<svg width="456" height="260" viewBox="0 0 456 260" fill="none" xmlns="http://www.w3.org/2000/svg">
<path fill-rule="evenodd" clip-rule="evenodd" d="M-182.225 -40V26.4041H-297.265L-182.225 -40ZM-290.096 23.8317L-231.338 8.70744L-185.869 -36.4273L-290.096 23.8317ZM-195.206 -2.67748L-184.012 -35.427L-205.876 -0.10516L-195.206 -2.67748ZM-195.206 -1.89149L-205.972 0.704647L-184.369 23.6888L-195.206 -1.89149ZM-183.464 24.0937V-4.98781L-194.539 -2.20113L-183.464 24.0937ZM-206.853 0.275925L-184.512 -35.9986L-229.242 8.42162L-206.853 0.275925ZM-194.468 -2.77275L-183.488 -5.53562V-35.0459L-194.468 -2.77275ZM-206.71 0.942825L-229.337 9.30288L-185.083 23.9985L-206.71 0.942825ZM-230.933 10.0174L-290.477 25.2132H-185.226L-230.933 10.0174ZM-177.533 -40V26.4041H-62.5169L-177.533 -40ZM-69.6622 23.8317L-128.516 8.70744L-173.77 -36.4273L-69.6622 23.8317ZM-164.505 -2.67748L-175.699 -35.427L-153.882 -0.10516L-164.505 -2.67748ZM-164.505 -1.98677L-153.739 0.609375L-175.413 23.5936L-164.505 -1.98677ZM-176.318 23.9985V-4.98781L-165.243 -2.20113L-176.318 23.9985ZM-152.929 0.180656L-175.247 -35.9986L-130.517 8.42162L-152.929 0.180656ZM-165.315 -2.86803L-176.295 -5.63089V-35.0459L-165.315 -2.86803ZM-153.072 0.847553L-130.445 9.20761L-174.699 23.8556L-153.072 0.847553ZM-128.73 10.0174L-69.3764 25.3084H-174.627L-128.73 10.0174ZM-177.533 31.0962V97.5003L-62.5169 31.0962H-177.533ZM-128.516 48.7928L-69.6622 33.6685L-173.77 93.9276L-128.516 48.7928ZM-175.699 92.9272L-164.505 60.1777L-153.882 57.6531L-175.699 92.9272ZM-153.739 56.8909L-164.505 59.487L-175.413 33.8352L-153.739 56.8909ZM-176.318 62.4166V33.5018L-165.243 59.6538L-176.318 62.4166ZM-175.247 93.4989L-152.929 57.3196L-130.517 49.0786L-175.247 93.4989ZM-176.295 63.1311L-165.315 60.3683L-176.295 92.5462V63.1311ZM-130.445 48.2927L-153.072 56.6527L-174.699 33.6447L-130.445 48.2927ZM-69.3764 32.2394L-128.73 47.5305L-174.627 32.2394H-69.3764ZM-182.225 97.5003V31.0962H-297.265L-182.225 97.5003ZM-290.096 33.6685L-231.338 48.7928L-185.869 93.9276L-290.096 33.6685ZM-195.206 60.1777L-184.012 92.9272L-205.876 57.6531L-195.206 60.1777ZM-195.206 59.487L-205.972 56.8909L-184.345 33.8352L-195.206 59.487ZM-183.464 33.5018V62.4166L-194.539 59.6538L-183.464 33.5018ZM-206.853 57.3196L-184.536 93.4512L-229.242 49.0786L-206.853 57.3196ZM-194.468 60.3683L-183.488 63.1311V92.5462L-194.468 60.3683ZM-206.686 56.7003L-229.313 48.3403L-185.06 33.6447L-206.686 56.7003ZM-230.933 47.5781L-290.477 32.2871H-185.226L-230.933 47.5781ZM-311.96 107.496V41.0917L-427 107.496H-311.96ZM-361.072 89.7991L-419.831 104.923L-315.604 44.6644L-361.072 89.7991ZM-313.746 45.6647L-324.941 78.4142L-335.611 80.9865L-313.746 45.6647ZM-335.706 81.7963L-324.941 79.2002L-314.104 104.781L-335.706 81.7963ZM-313.198 76.1039V105.185L-324.274 78.8906L-313.198 76.1039ZM-314.246 45.0931L-336.588 81.3676L-358.976 89.5133L-314.246 45.0931ZM-313.222 75.5561L-324.202 78.3189L-313.222 46.0458V75.5561ZM-359.072 90.3946L-336.445 82.0345L-314.818 105.09L-359.072 90.3946ZM-420.212 106.305L-360.667 91.1091L-314.961 106.305H-420.212ZM-307.268 107.496V41.0917L-192.252 107.496H-307.268ZM-258.251 89.7991L-199.397 104.923L-303.505 44.6644L-258.251 89.7991ZM-305.434 45.6647L-294.239 78.4142L-283.617 80.9865L-305.434 45.6647ZM-283.474 81.7011L-294.239 79.1049L-305.148 104.685L-283.474 81.7011ZM-306.053 76.1039V105.09L-294.978 78.8906L-306.053 76.1039ZM-304.981 45.0931L-282.664 81.2723L-260.251 89.5133L-304.981 45.0931ZM-306.029 75.4608L-295.049 78.2237L-306.029 46.0458V75.4608ZM-260.18 90.2993L-282.807 81.9392L-304.433 104.947L-260.18 90.2993ZM-199.111 106.4L-258.465 91.1091L-304.362 106.4H-199.111ZM-307.268 178.592V112.188H-192.252L-307.268 178.592ZM-199.397 114.76L-258.251 129.885L-303.505 175.019L-199.397 114.76ZM-294.239 141.269L-305.434 174.019L-283.617 138.745L-294.239 141.269ZM-294.239 140.579L-283.474 137.983L-305.148 114.927L-294.239 140.579ZM-306.053 114.593V143.508L-294.978 140.745L-306.053 114.593ZM-282.664 138.411L-304.981 174.591L-260.251 130.17L-282.664 138.411ZM-295.049 141.46L-306.029 144.223V173.638L-295.049 141.46ZM-282.807 137.744L-260.18 129.384L-304.433 114.736L-282.807 137.744ZM-258.465 128.622L-199.111 113.331H-304.362L-258.465 128.622ZM-311.96 112.188V178.592L-427 112.188H-311.96ZM-361.072 129.885L-419.831 114.76L-315.604 175.019L-361.072 129.885ZM-313.746 174.019L-324.941 141.269L-335.611 138.745L-313.746 174.019ZM-335.706 137.983L-324.941 140.579L-314.08 114.927L-335.706 137.983ZM-313.198 143.508V114.593L-324.274 140.745L-313.198 143.508ZM-314.27 174.543L-336.588 138.411L-358.976 130.17L-314.27 174.543ZM-313.222 144.223L-324.202 141.46L-313.222 173.638V144.223ZM-359.048 129.432L-336.421 137.792L-314.794 114.736L-359.048 129.432ZM-420.212 113.379L-360.667 128.67L-314.961 113.379H-420.212ZM-48.0193 41.0917V107.496H66.9969L-48.0193 41.0917ZM59.8516 104.923L0.997742 89.7991L-44.2561 44.6644L59.8516 104.923ZM-34.991 78.4142L-46.1853 45.6647L-24.3682 80.9865L-34.991 78.4142ZM-34.991 79.1049L-24.2253 81.7011L-45.8995 104.685L-34.991 79.1049ZM-46.8046 105.09V76.1039L-35.7293 78.8906L-46.8046 105.09ZM-23.4155 81.2723L-45.7328 45.0931L-1.00293 89.5133L-23.4155 81.2723ZM-35.8008 78.2237L-46.7808 75.4608V46.0458L-35.8008 78.2237ZM-23.5584 81.9392L-0.931488 90.2993L-45.185 104.947L-23.5584 81.9392ZM0.783417 91.1091L60.1374 106.4H-45.1136L0.783417 91.1091ZM-52.7115 107.496V41.0917L-167.752 107.496H-52.7115ZM-101.824 89.7991L-160.582 104.923L-56.3556 44.6644L-101.824 89.7991ZM-54.4978 45.6647L-65.6922 78.4142L-76.3626 80.9865L-54.4978 45.6647ZM-76.4579 81.7963L-65.6922 79.2002L-54.8551 104.781L-76.4579 81.7963ZM-53.95 76.1039V105.185L-65.0253 78.8906L-53.95 76.1039ZM-54.998 45.0931L-77.3391 81.3676L-99.7278 89.5133L-54.998 45.0931ZM-53.9738 75.5561L-64.9539 78.3189L-53.9738 46.0458V75.5561ZM-99.8231 90.3946L-77.1962 82.0345L-55.5696 105.09L-99.8231 90.3946ZM-160.963 106.305L-101.419 91.1091L-55.7125 106.305H-160.963ZM-48.0193 178.592V112.188H66.9969L-48.0193 178.592ZM59.8516 114.76L0.997742 129.885L-44.2561 175.019L59.8516 114.76ZM-34.991 141.269L-46.1853 174.019L-24.3682 138.745L-34.991 141.269ZM-34.991 140.579L-24.2253 137.983L-45.8995 114.927L-34.991 140.579ZM-46.8046 114.593V143.508L-35.7293 140.745L-46.8046 114.593ZM-23.4155 138.411L-45.7328 174.591L-1.00293 130.17L-23.4155 138.411ZM-35.8008 141.46L-46.7808 144.223V173.638L-35.8008 141.46ZM-23.5584 137.744L-0.931488 129.384L-45.185 114.736L-23.5584 137.744ZM0.783417 128.622L60.1374 113.331H-45.1136L0.783417 128.622ZM-52.7115 112.188V178.592L-167.752 112.188H-52.7115ZM-101.824 129.885L-160.582 114.76L-56.3556 175.019L-101.824 129.885ZM-54.4978 174.019L-65.6922 141.269L-76.3626 138.745L-54.4978 174.019ZM-76.4579 137.983L-65.6922 140.579L-54.8313 114.927L-76.4579 137.983ZM-53.95 143.508V114.593L-65.0253 140.745L-53.95 143.508ZM-55.0218 174.543L-77.3391 138.411L-99.7278 130.17L-55.0218 174.543ZM-53.9738 144.223L-64.9539 141.46L-53.9738 173.638V144.223ZM-99.7993 129.432L-77.1724 137.792L-55.5458 114.736L-99.7993 129.432ZM-160.963 113.379L-101.419 128.67L-55.7125 113.379H-160.963ZM211.229 41.0917V107.496H326.245L211.229 41.0917ZM319.1 104.923L260.246 89.7991L214.992 44.6644L319.1 104.923ZM224.258 78.4142L213.063 45.6647L234.88 80.9865L224.258 78.4142ZM224.258 79.1049L235.023 81.7011L213.349 104.685L224.258 79.1049ZM212.444 105.09V76.1039L223.519 78.8906L212.444 105.09ZM235.833 81.2723L213.516 45.0931L258.246 89.5133L235.833 81.2723ZM223.448 78.2237L212.468 75.4608V46.0458L223.448 78.2237ZM235.69 81.9392L258.317 90.2993L214.064 104.947L235.69 81.9392ZM260.032 91.1091L319.386 106.4H214.135L260.032 91.1091ZM206.537 107.496V41.0917L91.497 107.496H206.537ZM157.425 89.7991L98.6662 104.923L202.893 44.6644L157.425 89.7991ZM204.751 45.6647L193.556 78.4142L182.886 80.9865L204.751 45.6647ZM182.791 81.7963L193.556 79.2002L204.393 104.781L182.791 81.7963ZM205.299 76.1039V105.185L194.223 78.8906L205.299 76.1039ZM204.251 45.0931L181.909 81.3676L159.521 89.5133L204.251 45.0931ZM205.275 75.5561L194.295 78.3189L205.275 46.0458V75.5561ZM159.425 90.3946L182.052 82.0345L203.679 105.09L159.425 90.3946ZM98.2851 106.305L157.83 91.1091L203.536 106.305H98.2851ZM211.229 178.592V112.188H326.245L211.229 178.592ZM319.1 114.76L260.246 129.885L214.992 175.019L319.1 114.76ZM224.258 141.269L213.063 174.019L234.88 138.745L224.258 141.269ZM224.258 140.579L235.023 137.983L213.349 114.927L224.258 140.579ZM212.444 114.593V143.508L223.519 140.745L212.444 114.593ZM235.833 138.411L213.516 174.591L258.246 130.17L235.833 138.411ZM223.448 141.46L212.468 144.223V173.638L223.448 141.46ZM235.69 137.744L258.317 129.384L214.064 114.736L235.69 137.744ZM260.032 128.622L319.386 113.331H214.135L260.032 128.622ZM206.537 112.188V178.592L91.497 112.188H206.537ZM157.425 129.885L98.6662 114.76L202.893 175.019L157.425 129.885ZM204.751 174.019L193.556 141.269L182.886 138.745L204.751 174.019ZM182.791 137.983L193.556 140.579L204.417 114.927L182.791 137.983ZM205.299 143.508V114.593L194.223 140.745L205.299 143.508ZM204.227 174.543L181.909 138.411L159.521 130.17L204.227 174.543ZM205.275 144.223L194.295 141.46L205.275 173.638V144.223ZM159.449 129.432L182.076 137.792L203.703 114.736L159.449 129.432ZM98.2851 113.379L157.83 128.67L203.536 113.379H98.2851ZM-177.541 188.596V122.192L-62.5243 188.596H-177.541ZM-128.523 170.9L-69.6696 186.024L-173.777 125.765L-128.523 170.9ZM-175.707 126.765L-164.512 159.515L-153.889 162.087L-175.707 126.765ZM-153.747 162.802L-164.512 160.206L-175.421 185.786L-153.747 162.802ZM-176.326 157.204V186.191L-165.251 159.991L-176.326 157.204ZM-175.254 126.194L-152.937 162.373L-130.524 170.614L-175.254 126.194ZM-176.302 156.561L-165.322 159.324L-176.302 127.146V156.561ZM-130.453 171.4L-153.08 163.04L-174.706 186.048L-130.453 171.4ZM-69.3838 187.501L-128.738 172.21L-174.635 187.501H-69.3838ZM-182.233 188.597V122.193L-297.273 188.597H-182.233ZM-231.345 170.9L-290.104 186.024L-185.877 125.765L-231.345 170.9ZM-184.019 126.766L-195.213 159.515L-205.884 162.087L-184.019 126.766ZM-205.979 162.897L-195.213 160.301L-184.376 185.881L-205.979 162.897ZM-183.471 157.205V186.286L-194.547 159.991L-183.471 157.205ZM-184.519 126.194L-206.86 162.468L-229.249 170.614L-184.519 126.194ZM-183.495 156.657L-194.475 159.42L-183.495 127.147V156.657ZM-229.344 171.495L-206.717 163.135L-185.091 186.191L-229.344 171.495ZM-290.485 187.406L-230.94 172.21L-185.234 187.406H-290.485ZM-177.541 259.693V193.288H-62.5243L-177.541 259.693ZM-69.6696 195.861L-128.523 210.985L-173.777 256.12L-69.6696 195.861ZM-164.512 222.37L-175.707 255.12L-153.889 219.845L-164.512 222.37ZM-164.512 221.679L-153.747 219.083L-175.421 196.028L-164.512 221.679ZM-176.326 195.694V224.609L-165.251 221.846L-176.326 195.694ZM-152.937 219.512L-175.254 255.691L-130.524 211.271L-152.937 219.512ZM-165.322 222.561L-176.302 225.323V254.738L-165.322 222.561ZM-153.08 218.845L-130.453 210.485L-174.706 195.837L-153.08 218.845ZM-128.738 209.723L-69.3838 194.432H-174.635L-128.738 209.723ZM-182.233 193.288V259.693L-297.273 193.288H-182.233ZM-231.345 210.985L-290.104 195.861L-185.877 256.12L-231.345 210.985ZM-184.019 255.12L-195.213 222.37L-205.884 219.845L-184.019 255.12ZM-205.979 219.083L-195.213 221.679L-184.352 196.028L-205.979 219.083ZM-183.471 224.609V195.694L-194.547 221.846L-183.471 224.609ZM-184.543 255.644L-206.86 219.512L-229.249 211.271L-184.543 255.644ZM-183.495 225.323L-194.475 222.561L-183.495 254.738V225.323ZM-229.32 210.533L-206.694 218.893L-185.067 195.837L-229.32 210.533ZM-290.485 194.479L-230.94 209.77L-185.234 194.479H-290.485ZM81.7154 188.596V122.192L196.732 188.596H81.7154ZM130.732 170.9L189.586 186.024L85.4786 125.765L130.732 170.9ZM83.5494 126.765L94.7438 159.515L105.366 162.087L83.5494 126.765ZM105.509 162.802L94.7438 160.206L83.8352 185.786L105.509 162.802ZM82.9301 157.204V186.191L94.0054 159.991L82.9301 157.204ZM84.0019 126.194L106.319 162.373L128.732 170.614L84.0019 126.194ZM82.9539 156.561L93.934 159.324L82.9539 127.146V156.561ZM128.803 171.4L106.176 163.04L84.5497 186.048L128.803 171.4ZM189.872 187.501L130.518 172.21L84.6212 187.501H189.872ZM77.0232 188.597V122.193L-38.0168 188.597H77.0232ZM27.9109 170.9L-30.8477 186.024L73.3791 125.765L27.9109 170.9ZM75.2368 126.766L64.0425 159.515L53.3721 162.087L75.2368 126.766ZM53.2769 162.897L64.0425 160.301L74.8796 185.881L53.2769 162.897ZM75.7847 157.205V186.286L64.7094 159.991L75.7847 157.205ZM74.7367 126.194L52.3956 162.468L30.0068 170.614L74.7367 126.194ZM75.7608 156.657L64.7808 159.42L75.7608 127.147V156.657ZM29.9116 171.495L52.5385 163.135L74.165 186.191L29.9116 171.495ZM-31.2288 187.406L28.3158 172.21L74.0222 187.406H-31.2288ZM81.7154 259.693V193.288H196.732L81.7154 259.693ZM189.586 195.861L130.732 210.985L85.4786 256.12L189.586 195.861ZM94.7438 222.37L83.5494 255.12L105.366 219.845L94.7438 222.37ZM94.7438 221.679L105.509 219.083L83.8352 196.028L94.7438 221.679ZM82.9301 195.694V224.609L94.0054 221.846L82.9301 195.694ZM106.319 219.512L84.0019 255.691L128.732 211.271L106.319 219.512ZM93.934 222.561L82.9539 225.323V254.738L93.934 222.561ZM106.176 218.845L128.803 210.485L84.5497 195.837L106.176 218.845ZM130.518 209.723L189.872 194.432H84.6212L130.518 209.723ZM77.0233 193.288V259.693L-38.0168 193.288H77.0233ZM27.9109 210.985L-30.8476 195.861L73.3791 256.12L27.9109 210.985ZM75.2369 255.12L64.0425 222.37L53.3722 219.845L75.2369 255.12ZM53.2769 219.083L64.0425 221.679L74.9034 196.028L53.2769 219.083ZM75.7847 224.609V195.694L64.7094 221.846L75.7847 224.609ZM74.7129 255.644L52.3956 219.512L30.0069 211.271L74.7129 255.644ZM75.7609 225.323L64.7809 222.561L75.7609 254.738V225.323ZM29.9354 210.533L52.5623 218.893L74.1889 195.837L29.9354 210.533ZM-31.2287 194.479L28.3158 209.77L74.0222 194.479H-31.2287ZM77.0306 -40V26.4041H-38.0094L77.0306 -40ZM-30.8402 23.8317L27.9183 8.70744L73.3865 -36.4273L-30.8402 23.8317ZM64.0499 -2.67748L75.2443 -35.427L53.3795 -0.10516L64.0499 -2.67748ZM64.0499 -1.89149L53.2843 0.704647L74.8871 23.6888L64.0499 -1.89149ZM75.7921 24.0937V-4.98781L64.7168 -2.20113L75.7921 24.0937ZM52.403 0.275925L74.7441 -35.9986L30.0143 8.42162L52.403 0.275925ZM64.7883 -2.77275L75.7683 -5.53562V-35.0459L64.7883 -2.77275ZM52.5459 0.942825L29.919 9.30288L74.1725 23.9985L52.5459 0.942825ZM28.3232 10.0174L-31.2213 25.2132H74.0296L28.3232 10.0174ZM81.7228 -40V26.4041H196.739L81.7228 -40ZM189.594 23.8317L130.74 8.70744L85.486 -36.4273L189.594 23.8317ZM94.7512 -2.67748L83.5568 -35.427L105.374 -0.10516L94.7512 -2.67748ZM94.7512 -1.98677L105.517 0.609375L83.8426 23.5936L94.7512 -1.98677ZM82.9375 23.9985V-4.98781L94.0128 -2.20113L82.9375 23.9985ZM106.327 0.180656L84.0093 -35.9986L128.739 8.42162L106.327 0.180656ZM93.9413 -2.86803L82.9613 -5.63089V-35.0459L93.9413 -2.86803ZM106.184 0.847553L128.811 9.20761L84.5571 23.8556L106.184 0.847553ZM130.526 10.0174L189.88 25.3084H84.6286L130.526 10.0174ZM81.7228 31.0962V97.5003L196.739 31.0962H81.7228ZM130.74 48.7928L189.594 33.6685L85.486 93.9276L130.74 48.7928ZM83.5568 92.9272L94.7512 60.1777L105.374 57.6531L83.5568 92.9272ZM105.517 56.8909L94.7512 59.487L83.8426 33.8352L105.517 56.8909ZM82.9375 62.4166V33.5018L94.0128 59.6538L82.9375 62.4166ZM84.0093 93.4989L106.327 57.3196L128.739 49.0786L84.0093 93.4989ZM82.9613 63.1311L93.9413 60.3683L82.9613 92.5462V63.1311ZM128.811 48.2927L106.184 56.6527L84.5571 33.6447L128.811 48.2927ZM189.88 32.2394L130.526 47.5305L84.6286 32.2394H189.88ZM77.0306 97.5003V31.0962H-38.0094L77.0306 97.5003ZM-30.8402 33.6685L27.9183 48.7928L73.3865 93.9276L-30.8402 33.6685ZM64.0499 60.1777L75.2443 92.9272L53.3795 57.6531L64.0499 60.1777ZM64.0499 59.487L53.2843 56.8909L74.9108 33.8352L64.0499 59.487ZM75.7921 33.5018V62.4166L64.7168 59.6538L75.7921 33.5018ZM52.403 57.3196L74.7203 93.4512L30.0143 49.0786L52.403 57.3196ZM64.7883 60.3683L75.7683 63.1311V92.5462L64.7883 60.3683ZM52.5697 56.7003L29.9428 48.3403L74.1963 33.6447L52.5697 56.7003ZM28.3232 47.5781L-31.2213 32.2871H74.0296L28.3232 47.5781ZM340.971 188.596V122.192L455.988 188.596H340.971ZM389.988 170.9L448.842 186.024L344.735 125.765L389.988 170.9ZM342.805 126.765L354 159.515L364.622 162.087L342.805 126.765ZM364.765 162.802L354 160.206L343.091 185.786L364.765 162.802ZM342.186 157.204V186.191L353.261 159.991L342.186 157.204ZM343.258 126.194L365.575 162.373L387.988 170.614L343.258 126.194ZM342.21 156.561L353.19 159.324L342.21 127.146V156.561ZM388.059 171.4L365.432 163.04L343.806 186.048L388.059 171.4ZM449.128 187.501L389.774 172.21L343.877 187.501H449.128ZM336.279 188.597V122.193L221.239 188.597H336.279ZM287.167 170.9L228.408 186.024L332.635 125.765L287.167 170.9ZM334.493 126.766L323.298 159.515L312.628 162.087L334.493 126.766ZM312.533 162.897L323.298 160.301L334.135 185.881L312.533 162.897ZM335.041 157.205V186.286L323.965 159.991L335.041 157.205ZM333.993 126.194L311.651 162.468L289.263 170.614L333.993 126.194ZM335.017 156.657L324.037 159.42L335.017 127.147V156.657ZM289.167 171.495L311.794 163.135L333.421 186.191L289.167 171.495ZM228.027 187.406L287.572 172.21L333.278 187.406H228.027ZM340.971 259.693V193.288H455.988L340.971 259.693ZM448.842 195.861L389.988 210.985L344.735 256.12L448.842 195.861ZM354 222.37L342.805 255.12L364.622 219.845L354 222.37ZM354 221.679L364.765 219.083L343.091 196.028L354 221.679ZM342.186 195.694V224.609L353.261 221.846L342.186 195.694ZM365.575 219.512L343.258 255.691L387.988 211.271L365.575 219.512ZM353.19 222.561L342.21 225.323V254.738L353.19 222.561ZM365.432 218.845L388.059 210.485L343.806 195.837L365.432 218.845ZM389.774 209.723L449.128 194.432H343.877L389.774 209.723ZM336.279 193.288V259.693L221.239 193.288H336.279ZM287.167 210.985L228.408 195.861L332.635 256.12L287.167 210.985ZM334.493 255.12L323.298 222.37L312.628 219.845L334.493 255.12ZM312.533 219.083L323.298 221.679L334.159 196.028L312.533 219.083ZM335.041 224.609V195.694L323.965 221.846L335.041 224.609ZM333.969 255.644L311.652 219.512L289.263 211.271L333.969 255.644ZM335.017 225.323L324.037 222.561L335.017 254.738V225.323ZM289.191 210.533L311.818 218.893L333.445 195.837L289.191 210.533ZM228.027 194.479L287.572 209.77L333.278 194.479H228.027ZM336.287 -40V26.4041H221.247L336.287 -40ZM228.416 23.8317L287.174 8.70744L332.642 -36.4273L228.416 23.8317ZM323.306 -2.67748L334.5 -35.427L312.635 -0.10516L323.306 -2.67748ZM323.306 -1.89149L312.54 0.704647L334.143 23.6888L323.306 -1.89149ZM335.048 24.0937V-4.98781L323.973 -2.20113L335.048 24.0937ZM311.659 0.275925L334 -35.9986L289.27 8.42162L311.659 0.275925ZM324.044 -2.77275L335.024 -5.53562V-35.0459L324.044 -2.77275ZM311.802 0.942825L289.175 9.30288L333.428 23.9985L311.802 0.942825ZM287.579 10.0174L228.035 25.2132H333.286L287.579 10.0174ZM340.979 -40V26.4041H455.995L340.979 -40ZM448.85 23.8317L389.996 8.70744L344.742 -36.4273L448.85 23.8317ZM354.007 -2.67748L342.813 -35.427L364.63 -0.10516L354.007 -2.67748ZM354.007 -1.98677L364.773 0.609375L343.099 23.5936L354.007 -1.98677ZM342.193 23.9985V-4.98781L353.269 -2.20113L342.193 23.9985ZM365.583 0.180656L343.265 -35.9986L387.995 8.42162L365.583 0.180656ZM353.197 -2.86803L342.217 -5.63089V-35.0459L353.197 -2.86803ZM365.44 0.847553L388.067 9.20761L343.813 23.8556L365.44 0.847553ZM389.781 10.0174L449.135 25.3084H343.885L389.781 10.0174ZM340.979 31.0962V97.5003L455.995 31.0962H340.979ZM389.996 48.7928L448.85 33.6685L344.742 93.9276L389.996 48.7928ZM342.813 92.9272L354.007 60.1777L364.63 57.6531L342.813 92.9272ZM364.773 56.8909L354.007 59.487L343.099 33.8352L364.773 56.8909ZM342.193 62.4166V33.5018L353.269 59.6538L342.193 62.4166ZM343.265 93.4989L365.583 57.3196L387.995 49.0786L343.265 93.4989ZM342.217 63.1311L353.197 60.3683L342.217 92.5462V63.1311ZM388.067 48.2927L365.44 56.6527L343.813 33.6447L388.067 48.2927ZM449.135 32.2394L389.781 47.5305L343.885 32.2394H449.135ZM336.287 97.5003V31.0962H221.247L336.287 97.5003ZM228.416 33.6685L287.174 48.7928L332.642 93.9276L228.416 33.6685ZM323.306 60.1777L334.5 92.9272L312.635 57.6531L323.306 60.1777ZM323.306 59.487L312.54 56.8909L334.167 33.8352L323.306 59.487ZM335.048 33.5018V62.4166L323.973 59.6538L335.048 33.5018ZM311.659 57.3196L333.976 93.4512L289.27 49.0786L311.659 57.3196ZM324.044 60.3683L335.024 63.1311V92.5462L324.044 60.3683ZM311.826 56.7003L289.199 48.3403L333.452 33.6447L311.826 56.7003ZM287.579 47.5781L228.035 32.2871H333.286L287.579 47.5781Z" fill="#1D1D1B" fill-opacity="0.08"/>
</svg>
