<svg width="112" height="32" viewBox="0 0 112 32" fill="none" xmlns="http://www.w3.org/2000/svg">
<g id="Frame" clip-path="url(#clip0_283_5996)">
<g id="Group">
<path id="Vector" d="M23.1049 31.9998C27.8282 31.9998 31.6573 28.1708 31.6573 23.4474C31.6573 18.7241 27.8282 14.895 23.1049 14.895C18.3815 14.895 14.5525 18.7241 14.5525 23.4474C14.5525 28.1708 18.3815 31.9998 23.1049 31.9998Z" fill="#97CF26"/>
<path id="Vector_2" d="M7.02856 27.4287C9.22718 27.4287 11.0095 25.6464 11.0095 23.4477C11.0095 21.2491 9.22718 19.4668 7.02856 19.4668C4.82994 19.4668 3.04761 21.2491 3.04761 23.4477C3.04761 25.6464 4.82994 27.4287 7.02856 27.4287Z" fill="#A169F7"/>
<path id="Vector_3" d="M23.1049 12.8762C26.1451 12.8762 28.6096 10.4117 28.6096 7.37146C28.6096 4.33127 26.1451 1.8667 23.1049 1.8667C20.0647 1.8667 17.6001 4.33127 17.6001 7.37146C17.6001 10.4117 20.0647 12.8762 23.1049 12.8762Z" fill="#FF6163"/>
<path id="Vector_4" d="M7.02857 14.3999C10.9103 14.3999 14.0571 11.2531 14.0571 7.37134C14.0571 3.48957 10.9103 0.342773 7.02857 0.342773C3.1468 0.342773 0 3.48957 0 7.37134C0 11.2531 3.1468 14.3999 7.02857 14.3999Z" fill="#00AAFF"/>
<path id="Vector_5" d="M53.8918 27.382H58.3314L50.1093 4.99414H46.8891L38.6655 27.3827H43.1055L44.6758 23.1092H52.3215L53.8918 27.3827L45.9124 19.74L48.499 12.7L51.0842 19.74H45.9124L53.8918 27.382ZM69.3371 12.0974L65.2514 23.2189L61.1676 12.0974H56.9962L62.6122 27.382H67.8914L73.5067 12.0974H69.3364M75.2526 12.0974H79.424V27.382H75.2526V12.0974Z" fill="black"/>
<path id="Vector_6" d="M77.3525 10.3617C78.8357 10.3617 80.0382 9.15923 80.0382 7.67595C80.0382 6.19267 78.8357 4.99023 77.3525 4.99023C75.8692 4.99023 74.6667 6.19267 74.6667 7.67595C74.6667 9.15923 75.8692 10.3617 77.3525 10.3617Z" fill="black"/>
<path id="Vector_7" d="M94.1523 15.4656V12.0972H89.1553V7.88086H84.9865V12.0972H81.6875V15.4656H84.9865V22.0416C84.9865 25.4336 86.6826 27.6976 91.0132 27.6976C92.6856 27.6976 94.1523 27.0835 94.1523 27.0835L93.6456 23.7833C93.6456 23.7833 92.8246 24.0287 91.8151 24.0287C90.5778 24.0287 89.1553 23.4953 89.1553 21.7849V15.4652L94.1523 15.4656ZM103.718 23.8881C101.392 23.8881 99.5077 22.0443 99.5077 19.77C99.5077 17.4976 101.392 15.6534 103.717 15.6534C106.044 15.6534 107.927 17.498 107.927 19.7704C107.927 22.0447 106.044 23.8881 103.718 23.8881ZM103.718 11.7071C99.1968 11.7071 95.5302 15.2938 95.5302 19.7148C95.5302 24.1376 99.1968 27.7224 103.718 27.7224C108.236 27.7224 111.903 24.1376 111.903 19.7148C111.903 15.2938 108.236 11.7071 103.717 11.7071" fill="black"/>
</g>
</g>
<defs>
<clipPath id="clip0_283_5996">
<rect width="112" height="32" fill="white"/>
</clipPath>
</defs>
</svg>
