<svg width="308" height="159" viewBox="0 0 308 159" fill="none" xmlns="http://www.w3.org/2000/svg">
<path fill-rule="evenodd" clip-rule="evenodd" d="M-137.299 -50V-3.69104H-217.526L-137.299 -50ZM-212.526 -5.48494L-171.549 -16.0323L-139.84 -47.5085L-212.526 -5.48494ZM-146.351 -23.972L-138.545 -46.8109L-153.793 -22.1781L-146.351 -23.972ZM-146.351 -23.4238L-153.859 -21.6133L-138.794 -5.58459L-146.351 -23.4238ZM-138.163 -5.30222V-25.5832L-145.886 -23.6398L-138.163 -5.30222ZM-154.474 -21.9123L-138.893 -47.2095L-170.087 -16.2317L-154.474 -21.9123ZM-145.836 -24.0384L-138.179 -25.9652V-46.5451L-145.836 -24.0384ZM-154.374 -21.4472L-170.154 -15.6171L-139.292 -5.36866L-154.374 -21.4472ZM-171.266 -15.1188L-212.792 -4.52155H-139.392L-171.266 -15.1188ZM-134.026 -50V-3.69104H-53.8161L-134.026 -50ZM-58.7992 -5.48494L-99.8427 -16.0323L-131.402 -47.5085L-58.7992 -5.48494ZM-124.941 -23.972L-132.747 -46.8109L-117.532 -22.1781L-124.941 -23.972ZM-124.941 -23.4903L-117.433 -21.6798L-132.548 -5.65104L-124.941 -23.4903ZM-133.179 -5.36866V-25.5832L-125.456 -23.6398L-133.179 -5.36866ZM-116.868 -21.9788L-132.432 -47.2095L-101.238 -16.2317L-116.868 -21.9788ZM-125.505 -24.1049L-133.163 -26.0316V-46.5451L-125.505 -24.1049ZM-116.968 -21.5137L-101.188 -15.6835L-132.05 -5.46833L-116.968 -21.5137ZM-99.9922 -15.1188L-58.5999 -4.45511H-132L-99.9922 -15.1188ZM-134.026 -0.418846V45.8901L-53.8161 -0.418846H-134.026ZM-99.8427 11.9225L-58.7992 1.37505L-131.402 43.3986L-99.8427 11.9225ZM-132.747 42.701L-124.941 19.8621L-117.532 18.1014L-132.747 42.701ZM-117.433 17.5699L-124.941 19.3804L-132.548 1.49131L-117.433 17.5699ZM-133.179 21.4234V1.25877L-125.456 19.4967L-133.179 21.4234ZM-132.432 43.0996L-116.868 17.8689L-101.238 12.1218L-132.432 43.0996ZM-133.163 21.9217L-125.505 19.995L-133.163 42.4352V21.9217ZM-101.188 11.5736L-116.968 17.4038L-132.05 1.35843L-101.188 11.5736ZM-58.5999 0.378437L-99.9922 11.0421L-132 0.378437H-58.5999ZM-137.299 45.8901V-0.418846H-217.526L-137.299 45.8901ZM-212.526 1.37505L-171.549 11.9225L-139.84 43.3986L-212.526 1.37505ZM-146.351 19.8621L-138.544 42.701L-153.793 18.1014L-146.351 19.8621ZM-146.351 19.3804L-153.859 17.5699L-138.777 1.49131L-146.351 19.3804ZM-138.162 1.25877V21.4234L-145.886 19.4967L-138.162 1.25877ZM-154.474 17.8689L-138.91 43.0664L-170.087 12.1218L-154.474 17.8689ZM-145.836 19.995L-138.179 21.9217V42.4352L-145.836 19.995ZM-154.357 17.437L-170.137 11.6069L-139.275 1.35843L-154.357 17.437ZM-171.266 11.0753L-212.792 0.411659H-139.392L-171.266 11.0753ZM-227.773 52.8607V6.55179L-308 52.8607H-227.773ZM-262.023 40.5194L-303 51.0669L-230.315 9.04331L-262.023 40.5194ZM-229.019 9.74093L-236.826 32.5798L-244.267 34.3737L-229.019 9.74093ZM-244.333 34.9385L-236.826 33.128L-229.268 50.9672L-244.333 34.9385ZM-228.637 30.9686V51.2496L-236.361 32.912L-228.637 30.9686ZM-229.368 9.34229L-244.948 34.6395L-260.562 40.3201L-229.368 9.34229ZM-228.654 30.5866L-236.311 32.5134L-228.654 10.0067V30.5866ZM-260.628 40.9347L-244.848 35.1046L-229.766 51.1831L-260.628 40.9347ZM-303.266 52.0302L-261.741 41.433L-229.866 52.0302H-303.266ZM-224.501 52.8607V6.55179L-144.291 52.8607H-224.501ZM-190.318 40.5194L-149.274 51.0669L-221.877 9.04331L-190.318 40.5194ZM-223.222 9.74093L-215.415 32.5798L-208.007 34.3737L-223.222 9.74093ZM-207.908 34.872L-215.415 33.0615L-223.023 50.9008L-207.908 34.872ZM-223.654 30.9686V51.1831L-215.93 32.912L-223.654 30.9686ZM-222.907 9.34229L-207.343 34.573L-191.713 40.3201L-222.907 9.34229ZM-223.637 30.5202L-215.98 32.4469L-223.637 10.0067V30.5202ZM-191.663 40.8683L-207.443 35.0381L-222.525 51.0835L-191.663 40.8683ZM-149.075 52.0967L-190.467 41.433L-222.475 52.0967H-149.075ZM-224.501 102.442V56.1329H-144.291L-224.501 102.442ZM-149.274 57.9268L-190.318 68.4743L-221.877 99.9504L-149.274 57.9268ZM-215.415 76.4139L-223.222 99.2528L-208.007 74.6532L-215.415 76.4139ZM-215.415 75.9322L-207.908 74.1217L-223.023 58.0431L-215.415 75.9322ZM-223.654 57.8106V77.9752L-215.93 76.0485L-223.654 57.8106ZM-207.343 74.4207L-222.907 99.6514L-191.713 68.6736L-207.343 74.4207ZM-215.98 76.5468L-223.637 78.4735V98.987L-215.98 76.5468ZM-207.443 73.9556L-191.663 68.1254L-222.525 57.9102L-207.443 73.9556ZM-190.467 67.5939L-149.075 56.9302H-222.475L-190.467 67.5939ZM-227.773 56.1329V102.442L-308 56.1329H-227.773ZM-262.023 68.4743L-303 57.9268L-230.315 99.9504L-262.023 68.4743ZM-229.019 99.2528L-236.826 76.4139L-244.267 74.6532L-229.019 99.2528ZM-244.333 74.1217L-236.826 75.9322L-229.252 58.0431L-244.333 74.1217ZM-228.637 77.9752V57.8106L-236.361 76.0485L-228.637 77.9752ZM-229.384 99.6182L-244.948 74.4207L-260.562 68.6736L-229.384 99.6182ZM-228.654 78.4735L-236.311 76.5468L-228.654 98.987V78.4735ZM-260.611 68.1587L-244.832 73.9888L-229.75 57.9102L-260.611 68.1587ZM-303.266 56.9635L-261.741 67.6271L-229.866 56.9635H-303.266ZM-43.7059 6.55179V52.8607H36.5043L-43.7059 6.55179ZM31.5212 51.0669L-9.52231 40.5194L-41.0815 9.04331L31.5212 51.0669ZM-34.6202 32.5798L-42.4269 9.74093L-27.2121 34.3737L-34.6202 32.5798ZM-34.6202 33.0615L-27.1124 34.872L-42.2276 50.9008L-34.6202 33.0615ZM-42.8588 51.1831V30.9686L-35.1351 32.912L-42.8588 51.1831ZM-26.5477 34.573L-42.1113 9.34229L-10.9175 40.3201L-26.5477 34.573ZM-35.1849 32.4469L-42.8422 30.5202V10.0067L-35.1849 32.4469ZM-26.6473 35.0381L-10.8677 40.8683L-41.7293 51.0835L-26.6473 35.0381ZM-9.67178 41.433L31.7206 52.0967H-41.6795L-9.67178 41.433ZM-46.9783 52.8607V6.55179L-127.205 52.8607H-46.9783ZM-81.2283 40.5194L-122.205 51.0669L-49.5197 9.04331L-81.2283 40.5194ZM-48.2241 9.74093L-56.0308 32.5798L-63.4721 34.3737L-48.2241 9.74093ZM-63.5386 34.9385L-56.0308 33.128L-48.4732 50.9672L-63.5386 34.9385ZM-47.842 30.9686V51.2496L-55.5657 32.912L-47.842 30.9686ZM-48.5729 9.34229L-64.1531 34.6395L-79.7666 40.3201L-48.5729 9.34229ZM-47.8586 30.5866L-55.5159 32.5134L-47.8586 10.0067V30.5866ZM-79.8331 40.9347L-64.0535 35.1046L-48.9715 51.1831L-79.8331 40.9347ZM-122.471 52.0302L-80.9459 41.433L-49.0712 52.0302H-122.471ZM-43.7059 102.442V56.1329H36.5043L-43.7059 102.442ZM31.5212 57.9268L-9.52231 68.4743L-41.0815 99.9504L31.5212 57.9268ZM-34.6202 76.4139L-42.4269 99.2528L-27.2121 74.6532L-34.6202 76.4139ZM-34.6202 75.9322L-27.1124 74.1217L-42.2276 58.0431L-34.6202 75.9322ZM-42.8588 57.8106V77.9752L-35.1351 76.0485L-42.8588 57.8106ZM-26.5477 74.4207L-42.1113 99.6514L-10.9175 68.6736L-26.5477 74.4207ZM-35.1849 76.5468L-42.8422 78.4735V98.987L-35.1849 76.5468ZM-26.6473 73.9556L-10.8677 68.1254L-41.7293 57.9102L-26.6473 73.9556ZM-9.67178 67.5939L31.7206 56.9302H-41.6795L-9.67178 67.5939ZM-46.9783 56.1329V102.442L-127.205 56.1329H-46.9783ZM-81.2283 68.4743L-122.205 57.9268L-49.5197 99.9504L-81.2283 68.4743ZM-48.2241 99.2528L-56.0308 76.4139L-63.4721 74.6532L-48.2241 99.2528ZM-63.5386 74.1217L-56.0308 75.9322L-48.4566 58.0431L-63.5386 74.1217ZM-47.842 77.9752V57.8106L-55.5657 76.0485L-47.842 77.9752ZM-48.5895 99.6182L-64.1531 74.4207L-79.7666 68.6736L-48.5895 99.6182ZM-47.8586 78.4735L-55.5159 76.5468L-47.8586 98.987V78.4735ZM-79.8165 68.1587L-64.0369 73.9888L-48.9549 57.9102L-79.8165 68.1587ZM-122.471 56.9635L-80.9459 67.6271L-49.0712 56.9635H-122.471ZM137.089 6.55179V52.8607H217.299L137.089 6.55179ZM212.316 51.0669L171.273 40.5194L139.713 9.04331L212.316 51.0669ZM146.175 32.5798L138.368 9.74093L153.583 34.3737L146.175 32.5798ZM146.175 33.0615L153.683 34.872L138.567 50.9008L146.175 33.0615ZM137.936 51.1831V30.9686L145.66 32.912L137.936 51.1831ZM154.247 34.573L138.684 9.34229L169.877 40.3201L154.247 34.573ZM145.61 32.4469L137.953 30.5202V10.0067L145.61 32.4469ZM154.148 35.0381L169.927 40.8683L139.066 51.0835L154.148 35.0381ZM171.123 41.433L212.516 52.0967H139.115L171.123 41.433ZM133.817 52.8607V6.55179L53.5898 52.8607H133.817ZM99.5666 40.5194L58.5895 51.0669L131.275 9.04331L99.5666 40.5194ZM132.571 9.74093L124.764 32.5798L117.323 34.3737L132.571 9.74093ZM117.256 34.9385L124.764 33.128L132.322 50.9672L117.256 34.9385ZM132.953 30.9686V51.2496L125.229 32.912L132.953 30.9686ZM132.222 9.34229L116.642 34.6395L101.028 40.3201L132.222 9.34229ZM132.936 30.5866L125.279 32.5134L132.936 10.0067V30.5866ZM100.962 40.9347L116.741 35.1046L131.823 51.1831L100.962 40.9347ZM58.3237 52.0302L99.849 41.433L131.724 52.0302H58.3237ZM137.089 102.442V56.1329H217.299L137.089 102.442ZM212.316 57.9268L171.273 68.4743L139.713 99.9504L212.316 57.9268ZM146.175 76.4139L138.368 99.2528L153.583 74.6532L146.175 76.4139ZM146.175 75.9322L153.683 74.1217L138.567 58.0431L146.175 75.9322ZM137.936 57.8106V77.9752L145.66 76.0485L137.936 57.8106ZM154.247 74.4207L138.684 99.6514L169.877 68.6736L154.247 74.4207ZM145.61 76.5468L137.953 78.4735V98.987L145.61 76.5468ZM154.148 73.9556L169.927 68.1254L139.066 57.9102L154.148 73.9556ZM171.123 67.5939L212.516 56.9302H139.115L171.123 67.5939ZM133.817 56.1329V102.442L53.5898 56.1329H133.817ZM99.5666 68.4743L58.5895 57.9268L131.275 99.9504L99.5666 68.4743ZM132.571 99.2528L124.764 76.4139L117.323 74.6532L132.571 99.2528ZM117.256 74.1217L124.764 75.9322L132.338 58.0431L117.256 74.1217ZM132.953 77.9752V57.8106L125.229 76.0485L132.953 77.9752ZM132.205 99.6182L116.642 74.4207L101.028 68.6736L132.205 99.6182ZM132.936 78.4735L125.279 76.5468L132.936 98.987V78.4735ZM100.978 68.1587L116.758 73.9888L131.84 57.9102L100.978 68.1587ZM58.3237 56.9635L99.849 67.6271L131.724 56.9635H58.3237ZM-134.031 109.419V63.1096L-53.8212 109.419H-134.031ZM-99.8478 97.0773L-58.8043 107.625L-131.407 65.6011L-99.8478 97.0773ZM-132.752 66.2988L-124.946 89.1376L-117.538 90.9315L-132.752 66.2988ZM-117.438 91.4298L-124.946 89.6193L-132.553 107.459L-117.438 91.4298ZM-133.184 87.5265V107.741L-125.461 89.4698L-133.184 87.5265ZM-132.437 65.9001L-116.873 91.1309L-101.243 96.8779L-132.437 65.9001ZM-133.168 87.078L-125.51 89.0048L-133.168 66.5645V87.078ZM-101.193 97.4261L-116.973 91.5959L-132.055 107.641L-101.193 97.4261ZM-58.6049 108.655L-99.9973 97.9908L-132.005 108.655H-58.6049ZM-137.304 109.419V63.1099L-217.531 109.419H-137.304ZM-171.554 97.0775L-212.531 107.625L-139.845 65.6014L-171.554 97.0775ZM-138.55 66.299L-146.356 89.1379L-153.798 90.9318L-138.55 66.299ZM-153.864 91.4965L-146.356 89.686L-138.799 107.525L-153.864 91.4965ZM-138.168 87.5267V107.808L-145.891 89.4701L-138.168 87.5267ZM-138.898 65.9004L-154.479 91.1976L-170.092 96.8782L-138.898 65.9004ZM-138.184 87.1447L-145.841 89.0715L-138.184 66.5648V87.1447ZM-170.159 97.4928L-154.379 91.6626L-139.297 107.741L-170.159 97.4928ZM-212.797 108.588L-171.271 97.9911L-139.397 108.588H-212.797ZM-134.031 159V112.691H-53.8212L-134.031 159ZM-58.8043 114.485L-99.8478 125.032L-131.407 156.508L-58.8043 114.485ZM-124.946 132.972L-132.752 155.811L-117.538 131.211L-124.946 132.972ZM-124.946 132.49L-117.438 130.68L-132.553 114.601L-124.946 132.49ZM-133.184 114.368V134.533L-125.461 132.606L-133.184 114.368ZM-116.873 130.979L-132.437 156.209L-101.243 125.231L-116.873 130.979ZM-125.51 133.105L-133.168 135.031V155.545L-125.51 133.105ZM-116.973 130.513L-101.193 124.683L-132.055 114.468L-116.973 130.513ZM-99.9973 124.152L-58.6049 113.488H-132.005L-99.9973 124.152ZM-137.304 112.691V159L-217.531 112.691H-137.304ZM-171.554 125.032L-212.531 114.485L-139.845 156.508L-171.554 125.032ZM-138.55 155.811L-146.356 132.972L-153.798 131.211L-138.55 155.811ZM-153.864 130.68L-146.356 132.49L-138.782 114.601L-153.864 130.68ZM-138.168 134.533V114.368L-145.891 132.606L-138.168 134.533ZM-138.915 156.176L-154.479 130.979L-170.092 125.231L-138.915 156.176ZM-138.184 135.031L-145.841 133.105L-138.184 155.545V135.031ZM-170.142 124.717L-154.362 130.547L-139.28 114.468L-170.142 124.717ZM-212.797 113.521L-171.271 124.185L-139.397 113.521H-212.797ZM46.7686 109.419V63.1096L126.979 109.419H46.7686ZM80.9522 97.0773L121.996 107.625L49.393 65.6011L80.9522 97.0773ZM48.0476 66.2988L55.8543 89.1376L63.2625 90.9315L48.0476 66.2988ZM63.3621 91.4298L55.8543 89.6193L48.2469 107.459L63.3621 91.4298ZM47.6158 87.5265V107.741L55.3394 89.4698L47.6158 87.5265ZM48.3632 65.9001L63.9268 91.1309L79.557 96.8779L48.3632 65.9001ZM47.6324 87.078L55.2896 89.0048L47.6324 66.5645V87.078ZM79.6068 97.4261L63.8272 91.5959L48.7452 107.641L79.6068 97.4261ZM122.195 108.655L80.8027 97.9908L48.795 108.655H122.195ZM43.4962 109.419V63.1099L-36.7306 109.419H43.4962ZM9.24619 97.0775L-31.7309 107.625L40.9549 65.6014L9.24619 97.0775ZM42.2504 66.299L34.4437 89.1379L27.0024 90.9318L42.2504 66.299ZM26.9359 91.4965L34.4437 89.686L42.0013 107.525L26.9359 91.4965ZM42.6325 87.5267V107.808L34.9088 89.4701L42.6325 87.5267ZM41.9016 65.9004L26.3214 91.1976L10.7079 96.8782L41.9016 65.9004ZM42.6159 87.1447L34.9586 89.0715L42.6159 66.5648V87.1447ZM10.6414 97.4928L26.421 91.6626L41.503 107.741L10.6414 97.4928ZM-31.9967 108.588L9.52856 97.9911L41.4033 108.588H-31.9967ZM46.7686 159V112.691H126.979L46.7686 159ZM121.996 114.485L80.9522 125.032L49.393 156.508L121.996 114.485ZM55.8543 132.972L48.0476 155.811L63.2625 131.211L55.8543 132.972ZM55.8543 132.49L63.3621 130.68L48.2469 114.601L55.8543 132.49ZM47.6158 114.368V134.533L55.3394 132.606L47.6158 114.368ZM63.9268 130.979L48.3632 156.209L79.557 125.231L63.9268 130.979ZM55.2896 133.105L47.6324 135.031V155.545L55.2896 133.105ZM63.8272 130.513L79.6068 124.683L48.7452 114.468L63.8272 130.513ZM80.8027 124.152L122.195 113.488H48.795L80.8027 124.152ZM43.4962 112.691V159L-36.7306 112.691H43.4962ZM9.24619 125.032L-31.7309 114.485L40.9549 156.508L9.24619 125.032ZM42.2504 155.811L34.4437 132.972L27.0024 131.211L42.2504 155.811ZM26.9359 130.68L34.4437 132.49L42.0179 114.601L26.9359 130.68ZM42.6325 134.533V114.368L34.9088 132.606L42.6325 134.533ZM41.885 156.176L26.3214 130.979L10.7079 125.231L41.885 156.176ZM42.6159 135.031L34.9586 133.105L42.6159 155.545V135.031ZM10.6581 124.717L26.4376 130.547L41.5196 114.468L10.6581 124.717ZM-31.9967 113.521L9.52856 124.185L41.4033 113.521H-31.9967ZM43.5015 -50V-3.69104H-36.7252L43.5015 -50ZM-31.7256 -5.48494L9.25153 -16.0323L40.9602 -47.5085L-31.7256 -5.48494ZM34.449 -23.972L42.2558 -46.8109L27.0077 -22.1781L34.449 -23.972ZM34.449 -23.4238L26.9413 -21.6133L42.0067 -5.58459L34.449 -23.4238ZM42.6378 -5.30222V-25.5832L34.9141 -23.6398L42.6378 -5.30222ZM26.3267 -21.9123L41.907 -47.2095L10.7132 -16.2317L26.3267 -21.9123ZM34.964 -24.0384L42.6212 -25.9652V-46.5451L34.964 -24.0384ZM26.4264 -21.4472L10.6468 -15.6171L41.5083 -5.36866L26.4264 -21.4472ZM9.53391 -15.1188L-31.9913 -4.52155H41.4087L9.53391 -15.1188ZM46.7741 -50V-3.69104H126.984L46.7741 -50ZM122.001 -5.48494L80.9577 -16.0323L49.3985 -47.5085L122.001 -5.48494ZM55.8599 -23.972L48.0531 -46.8109L63.268 -22.1781L55.8599 -23.972ZM55.8599 -23.4903L63.3676 -21.6798L48.2524 -5.65104L55.8599 -23.4903ZM47.6212 -5.36866V-25.5832L55.3449 -23.6398L47.6212 -5.36866ZM63.9324 -21.9788L48.3687 -47.2095L79.5625 -16.2317L63.9324 -21.9788ZM55.2951 -24.1049L47.6379 -26.0316V-46.5451L55.2951 -24.1049ZM63.8327 -21.5137L79.6123 -15.6835L48.7507 -5.46833L63.8327 -21.5137ZM80.8082 -15.1188L122.201 -4.45511H48.8006L80.8082 -15.1188ZM46.7741 -0.418846V45.8901L126.984 -0.418846H46.7741ZM80.9577 11.9225L122.001 1.37505L49.3985 43.3986L80.9577 11.9225ZM48.0531 42.701L55.8599 19.8621L63.268 18.1014L48.0531 42.701ZM63.3676 17.5699L55.8599 19.3804L48.2524 1.49131L63.3676 17.5699ZM47.6212 21.4234V1.25877L55.3449 19.4967L47.6212 21.4234ZM48.3687 43.0996L63.9324 17.8689L79.5625 12.1218L48.3687 43.0996ZM47.6379 21.9217L55.2951 19.995L47.6379 42.4352V21.9217ZM79.6123 11.5736L63.8327 17.4038L48.7507 1.35843L79.6123 11.5736ZM122.201 0.378437L80.8082 11.0421L48.8006 0.378437H122.201ZM43.5017 45.8901V-0.418846H-36.7251L43.5017 45.8901ZM-31.7254 1.37505L9.25171 11.9225L40.9604 43.3986L-31.7254 1.37505ZM34.4492 19.8621L42.256 42.701L27.0079 18.1014L34.4492 19.8621ZM34.4492 19.3804L26.9414 17.5699L42.0234 1.49131L34.4492 19.3804ZM42.638 1.25877V21.4234L34.9143 19.4967L42.638 1.25877ZM26.3269 17.8689L41.8905 43.0664L10.7134 12.1218L26.3269 17.8689ZM34.9641 19.995L42.6214 21.9217V42.4352L34.9641 19.995ZM26.4431 17.437L10.6635 11.6069L41.5251 1.35843L26.4431 17.437ZM9.53406 11.0753L-31.9912 0.411659H41.4088L9.53406 11.0753ZM227.569 109.419V63.1096L307.779 109.419H227.569ZM261.753 97.0773L302.796 107.625L230.193 65.6011L261.753 97.0773ZM228.848 66.2988L236.655 89.1376L244.063 90.9315L228.848 66.2988ZM244.163 91.4298L236.655 89.6193L229.047 107.459L244.163 91.4298ZM228.416 87.5265V107.741L236.14 89.4698L228.416 87.5265ZM229.164 65.9001L244.727 91.1309L260.357 96.8779L229.164 65.9001ZM228.433 87.078L236.09 89.0048L228.433 66.5645V87.078ZM260.407 97.4261L244.628 91.5959L229.546 107.641L260.407 97.4261ZM302.996 108.655L261.603 97.9908L229.596 108.655H302.996ZM224.297 109.419V63.1099L144.07 109.419H224.297ZM190.047 97.0775L149.07 107.625L221.755 65.6014L190.047 97.0775ZM223.051 66.299L215.244 89.1379L207.803 90.9318L223.051 66.299ZM207.736 91.4965L215.244 89.686L222.802 107.525L207.736 91.4965ZM223.433 87.5267V107.808L215.709 89.4701L223.433 87.5267ZM222.702 65.9004L207.122 91.1976L191.508 96.8782L222.702 65.9004ZM223.416 87.1447L215.759 89.0715L223.416 66.5648V87.1447ZM191.442 97.4928L207.221 91.6626L222.303 107.741L191.442 97.4928ZM148.804 108.588L190.329 97.9911L222.204 108.588H148.804ZM227.569 159V112.691H307.779L227.569 159ZM302.796 114.485L261.753 125.032L230.193 156.508L302.796 114.485ZM236.655 132.972L228.848 155.811L244.063 131.211L236.655 132.972ZM236.655 132.49L244.163 130.68L229.047 114.601L236.655 132.49ZM228.416 114.368V134.533L236.14 132.606L228.416 114.368ZM244.727 130.979L229.164 156.209L260.357 125.231L244.727 130.979ZM236.09 133.105L228.433 135.031V155.545L236.09 133.105ZM244.628 130.513L260.407 124.683L229.546 114.468L244.628 130.513ZM261.603 124.152L302.996 113.488H229.596L261.603 124.152ZM224.297 112.691V159L144.07 112.691H224.297ZM190.047 125.032L149.07 114.485L221.755 156.508L190.047 125.032ZM223.051 155.811L215.244 132.972L207.803 131.211L223.051 155.811ZM207.736 130.68L215.244 132.49L222.818 114.601L207.736 130.68ZM223.433 134.533V114.368L215.709 132.606L223.433 134.533ZM222.685 156.176L207.122 130.979L191.508 125.231L222.685 156.176ZM223.416 135.031L215.759 133.105L223.416 155.545V135.031ZM191.459 124.717L207.238 130.547L222.32 114.468L191.459 124.717ZM148.804 113.521L190.329 124.185L222.204 113.521H148.804ZM224.302 -50V-3.69104H144.075L224.302 -50ZM149.075 -5.48494L190.052 -16.0323L221.761 -47.5085L149.075 -5.48494ZM215.25 -23.972L223.056 -46.8109L207.808 -22.1781L215.25 -23.972ZM215.25 -23.4238L207.742 -21.6133L222.807 -5.58459L215.25 -23.4238ZM223.438 -5.30222V-25.5832L215.715 -23.6398L223.438 -5.30222ZM207.127 -21.9123L222.708 -47.2095L191.514 -16.2317L207.127 -21.9123ZM215.765 -24.0384L223.422 -25.9652V-46.5451L215.765 -24.0384ZM207.227 -21.4472L191.447 -15.6171L222.309 -5.36866L207.227 -21.4472ZM190.335 -15.1188L148.809 -4.52155H222.209L190.335 -15.1188ZM227.575 -50V-3.69104H307.785L227.575 -50ZM302.802 -5.48494L261.758 -16.0323L230.199 -47.5085L302.802 -5.48494ZM236.66 -23.972L228.854 -46.8109L244.068 -22.1781L236.66 -23.972ZM236.66 -23.4903L244.168 -21.6798L229.053 -5.65104L236.66 -23.4903ZM228.422 -5.36866V-25.5832L236.145 -23.6398L228.422 -5.36866ZM244.733 -21.9788L229.169 -47.2095L260.363 -16.2317L244.733 -21.9788ZM236.096 -24.1049L228.438 -26.0316V-46.5451L236.096 -24.1049ZM244.633 -21.5137L260.413 -15.6835L229.551 -5.46833L244.633 -21.5137ZM261.609 -15.1188L303.001 -4.45511H229.601L261.609 -15.1188ZM227.575 -0.418846V45.8901L307.785 -0.418846H227.575ZM261.758 11.9225L302.802 1.37505L230.199 43.3986L261.758 11.9225ZM228.854 42.701L236.66 19.8621L244.068 18.1014L228.854 42.701ZM244.168 17.5699L236.66 19.3804L229.053 1.49131L244.168 17.5699ZM228.422 21.4234V1.25877L236.145 19.4967L228.422 21.4234ZM229.169 43.0996L244.733 17.8689L260.363 12.1218L229.169 43.0996ZM228.438 21.9217L236.096 19.995L228.438 42.4352V21.9217ZM260.413 11.5736L244.633 17.4038L229.551 1.35843L260.413 11.5736ZM303.001 0.378437L261.609 11.0421L229.601 0.378437H303.001ZM224.302 45.8901V-0.418846H144.075L224.302 45.8901ZM149.075 1.37505L190.052 11.9225L221.761 43.3986L149.075 1.37505ZM215.25 19.8621L223.056 42.701L207.808 18.1014L215.25 19.8621ZM215.25 19.3804L207.742 17.5699L222.824 1.49131L215.25 19.3804ZM223.438 1.25877V21.4234L215.715 19.4967L223.438 1.25877ZM207.127 17.8689L222.691 43.0664L191.514 12.1218L207.127 17.8689ZM215.765 19.995L223.422 21.9217V42.4352L215.765 19.995ZM207.244 17.437L191.464 11.6069L222.326 1.35843L207.244 17.437ZM190.335 11.0753L148.809 0.411659H222.209L190.335 11.0753Z" fill="white" fill-opacity="0.08"/>
</svg>
