<svg width="24" height="24" viewBox="0 0 24 24" fill="none" xmlns="http://www.w3.org/2000/svg">
<path d="M18.6567 6.75741L13.414 12L18.6567 17.2427C19.0456 17.6316 19.0456 18.268 18.6567 18.6569C18.2678 19.0458 17.6314 19.0458 17.2424 18.6569L11.9998 13.4143L6.75716 18.6569C6.36826 19.0458 5.73186 19.0458 5.34295 18.6569C4.95404 18.268 4.95404 17.6316 5.34295 17.2427L10.5856 12L5.34295 6.75741C4.95404 6.3685 4.95404 5.7321 5.34295 5.3432C5.73186 4.95429 6.36826 4.95429 6.75716 5.3432L11.9998 10.5858L17.2424 5.3432C17.6314 4.95429 18.2678 4.95429 18.6567 5.3432C19.0456 5.7321 19.0456 6.3685 18.6567 6.75741Z" fill="#6D7074"/>
</svg>
