<svg width="24" height="24" viewBox="0 0 24 24" fill="none" xmlns="http://www.w3.org/2000/svg">
<g id="clean 1" clip-path="url(#clip0_283_5350)">
<path id="Vector" d="M15 15H19.5V13.5H15V15Z" fill="#402020"/>
<path id="Vector_2" d="M18 21H22.5V19.5H18V21Z" fill="#402020"/>
<path id="Vector_3" d="M16.5 18H21V16.5H16.5V18Z" fill="#402020"/>
<path id="Vector_4" d="M12.7521 15C12.7468 14.3671 12.5779 13.7464 12.262 13.1981C11.946 12.6497 11.4937 12.1923 10.9488 11.8703L16.5 2.25L15.2018 1.5L9.51993 11.3445C8.82248 11.1886 8.09707 11.2101 7.41008 11.4071C6.72309 11.604 6.09644 11.97 5.58745 12.4717C2.77975 15.18 2.99718 21.5116 3.00745 21.78C3.01521 21.9737 3.09763 22.1568 3.23745 22.291C3.37728 22.4253 3.56363 22.5002 3.75745 22.5H15.0009C15.1583 22.5 15.3117 22.4505 15.4394 22.3584C15.5671 22.2664 15.6626 22.1365 15.7124 21.9872C15.7621 21.8378 15.7637 21.6766 15.7167 21.5264C15.6698 21.3761 15.5768 21.2444 15.4509 21.15C12.7961 19.1579 12.7521 15.0403 12.7521 15ZM8.94745 12.7478C9.54773 12.7544 10.1224 12.9922 10.5518 13.4116C10.9812 13.8311 11.2324 14.4 11.253 15C11.253 15.0286 11.2545 15.156 11.2656 15.3516L6.84108 13.3839C7.13251 13.1436 7.4688 12.9636 7.83041 12.8544C8.19201 12.7452 8.57172 12.709 8.94745 12.7478ZM11.587 21C10.9877 20.3895 10.6057 19.5989 10.5 18.75H8.99995C9.05374 19.5482 9.30317 20.321 9.72625 21H8.05878C7.75031 20.0267 7.56263 19.0191 7.49995 18H5.99995C6.04837 19.0161 6.21582 20.0229 6.49885 21H4.49995C4.5232 19.6227 4.71745 16.5809 5.85198 14.5855L11.5017 17.098C11.7735 18.5074 12.3525 19.8397 13.1976 21H11.587Z" fill="#402020"/>
</g>
<defs>
<clipPath id="clip0_283_5350">
<rect width="24" height="24" fill="white"/>
</clipPath>
</defs>
</svg>
