<svg width="24" height="24" viewBox="0 0 24 24" fill="none" xmlns="http://www.w3.org/2000/svg">
<g id="settings--services 1" clip-path="url(#clip0_283_5819)">
<path id="Vector" d="M21.75 18.75H20.25V17.25H21V14.25H18V15H16.5V13.5C16.5 13.3011 16.579 13.1103 16.7197 12.9697C16.8603 12.829 17.0511 12.75 17.25 12.75H21.75C21.9489 12.75 22.1397 12.829 22.2803 12.9697C22.421 13.1103 22.5 13.3011 22.5 13.5V18C22.5 18.1989 22.421 18.3897 22.2803 18.5303C22.1397 18.671 21.9489 18.75 21.75 18.75Z" fill="#402020"/>
<path id="Vector_2" d="M18 22.5H13.5C13.3011 22.5 13.1103 22.421 12.9697 22.2803C12.829 22.1397 12.75 21.9489 12.75 21.75V17.25C12.75 17.0511 12.829 16.8603 12.9697 16.7197C13.1103 16.579 13.3011 16.5 13.5 16.5H18C18.1989 16.5 18.3897 16.579 18.5303 16.7197C18.671 16.8603 18.75 17.0511 18.75 17.25V21.75C18.75 21.9489 18.671 22.1397 18.5303 22.2803C18.3897 22.421 18.1989 22.5 18 22.5ZM14.25 21H17.25V18H14.25V21Z" fill="#402020"/>
<path id="Vector_3" d="M11.25 14.8936C10.708 14.7524 10.2164 14.4621 9.8311 14.0555C9.44581 13.649 9.18223 13.1425 9.07031 12.5937C8.95838 12.0449 9.0026 11.4757 9.19793 10.9508C9.39326 10.4258 9.73188 9.96616 10.1753 9.624C10.6188 9.28184 11.1493 9.07089 11.7066 9.0151C12.264 8.95931 12.8258 9.06092 13.3282 9.30839C13.8307 9.55587 14.2537 9.93928 14.5492 10.4151C14.8448 10.8909 15.0009 11.4401 15 12.0002H16.5C16.5009 11.142 16.2563 10.3015 15.7953 9.57776C15.3342 8.85401 14.6758 8.27718 13.8977 7.9153C13.1195 7.55342 12.2542 7.42157 11.4036 7.5353C10.553 7.64904 9.75271 8.00361 9.097 8.5572C8.4413 9.1108 7.95757 9.84035 7.70283 10.6598C7.4481 11.4793 7.43299 12.3545 7.65928 13.1823C7.88558 14.01 8.34384 14.7559 8.98005 15.3318C9.61625 15.9077 10.4039 16.2896 11.25 16.4327V14.8936Z" fill="#402020"/>
<path id="Vector_4" d="M21.6674 10.1625L19.9349 11.685L18.8699 10.62L20.6774 9.03L18.9074 5.97L16.3274 6.84C15.7231 6.33696 15.0386 5.93892 14.3024 5.6625L13.7699 3H10.2299L9.69742 5.6625C8.95538 5.9312 8.26713 6.32993 7.66492 6.84L5.09242 5.97L3.32242 9.03L5.36242 10.8225C5.22366 11.5988 5.22366 12.3937 5.36242 13.17L3.32242 14.97L5.09242 18.03L7.67242 17.16C8.27678 17.663 8.96129 18.0611 9.69742 18.3375L10.2299 21H11.2499V22.5H10.2299C9.8831 22.4996 9.54712 22.3791 9.27912 22.159C9.01112 21.9388 8.82765 21.6326 8.75992 21.2925L8.37742 19.4025C8.03787 19.2369 7.70965 19.049 7.39492 18.84L5.57242 19.455C5.41745 19.5054 5.2554 19.5308 5.09242 19.53C4.82897 19.5318 4.5698 19.4633 4.34171 19.3314C4.11361 19.1996 3.92485 19.0092 3.79492 18.78L2.02492 15.72C1.84987 15.4193 1.78481 15.067 1.84091 14.7236C1.89701 14.3801 2.07077 14.0669 2.33242 13.8375L3.77242 12.5775C3.75742 12.3825 3.74992 12.195 3.74992 12C3.74992 11.805 3.76492 11.6175 3.77992 11.43L2.33242 10.1625C2.07077 9.93309 1.89701 9.61985 1.84091 9.27642C1.78481 8.93299 1.84987 8.58074 2.02492 8.28L3.79492 5.22C3.92485 4.9908 4.11361 4.80044 4.34171 4.66859C4.5698 4.53675 4.82897 4.46819 5.09242 4.47C5.2554 4.46925 5.41745 4.49457 5.57242 4.545L7.38742 5.16C7.70472 4.95098 8.03544 4.76307 8.37742 4.5975L8.75992 2.7075C8.82765 2.36735 9.01112 2.06117 9.27912 1.84103C9.54712 1.62089 9.8831 1.50038 10.2299 1.5H13.7699C14.1167 1.50038 14.4527 1.62089 14.7207 1.84103C14.9887 2.06117 15.1722 2.36735 15.2399 2.7075L15.6224 4.5975C15.962 4.76311 16.2902 4.95102 16.6049 5.16L18.4274 4.545C18.5824 4.49457 18.7444 4.46925 18.9074 4.47C19.1709 4.46819 19.43 4.53675 19.6581 4.66859C19.8862 4.80044 20.075 4.9908 20.2049 5.22L21.9749 8.28C22.15 8.58074 22.215 8.93299 22.1589 9.27642C22.1028 9.61985 21.9291 9.93309 21.6674 10.1625Z" fill="#402020"/>
</g>
<defs>
<clipPath id="clip0_283_5819">
<rect width="24" height="24" fill="white"/>
</clipPath>
</defs>
</svg>
