<?xml version="1.0" encoding="utf-8"?>
<!-- Generator: Adobe Illustrator 25.4.1, SVG Export Plug-In . SVG Version: 6.00 Build 0)  -->
<svg version="1.1" id="Слой_1" xmlns="http://www.w3.org/2000/svg" xmlns:xlink="http://www.w3.org/1999/xlink" x="0px" y="0px"
	 viewBox="0 0 20 20" style="enable-background:new 0 0 20 20;" xml:space="preserve">
<style type="text/css">
	.st0{clip-path:url(#SVGID_00000145756775181526018030000001017874456668119449_);}
	.st1{fill:none;stroke:#1D1D1B;stroke-width:1.25;}
</style>
<g>
	<defs>
		<rect id="SVGID_1_" y="0" width="20" height="20"/>
	</defs>
	<clipPath id="SVGID_00000043427009883821503690000009900112949526328963_">
		<use xlink:href="#SVGID_1_"  style="overflow:visible;"/>
	</clipPath>
	<g id="location--current_1" style="clip-path:url(#SVGID_00000043427009883821503690000009900112949526328963_);">
		<path id="Vector" class="st1" d="M2.6,9.4L2.6,9.4l6,2.4l0.2,0.1L9,12.2l2.4,6l0,0 M11.4,18.2 M2.6,9.4 M2.6,9.4L2,9.4L2.6,9.4
			L2.6,9.4L2.6,9.4L2.6,9.4L2.6,9.4L2.6,9.4L2.6,9.4l13.7-5l0,0l0,0l-5,13.8l0,0l0,0l0,0h0 M11.4,18.2 M2.6,9.4"/>
	</g>
</g>
</svg>
