<svg width="92" height="56" viewBox="0 0 92 56" fill="none" xmlns="http://www.w3.org/2000/svg">
<g id="Isolation_Mode" clip-path="url(#clip0_283_5163)">
<path id="Vector" d="M3.70159 55.9237V52.8571H0.596825V55.9237H0V52.3428H4.29206V55.9237H3.70159Z" fill="#FABB40"/>
<path id="Vector_2" d="M14.3747 55.1491H11.8033L11.2953 55.9301H10.6604L13.1048 52.2856L15.562 55.9301H14.9271L14.3747 55.1491ZM12.1271 54.6602H14.0318L13.0667 53.1999L12.1271 54.6602Z" fill="#FABB40"/>
<path id="Vector_3" d="M27.3396 55.9237L26.4126 53.4793L24.6729 55.9999L22.9396 53.4793L22.019 55.9237H21.4031L22.7999 52.2856L24.6729 55.092L26.5586 52.2856L27.9491 55.9237H27.3396Z" fill="#FABB40"/>
<path id="Vector_4" d="M34.1333 55.9239L35.0349 54.654C34.7907 54.5916 34.5754 54.4471 34.4252 54.2448C34.2749 54.0425 34.1987 53.7947 34.2095 53.5429C34.2082 53.3722 34.2434 53.2033 34.3126 53.0473C34.3818 52.8913 34.4835 52.7518 34.6109 52.6383C34.7383 52.5247 34.8885 52.4396 35.0514 52.3887C35.2142 52.3377 35.3861 52.3221 35.5555 52.3429H37.9492V55.9239H37.3524V54.6921H35.6381L34.7873 55.9239H34.1333ZM35.6444 52.8635C34.9714 52.8635 34.8381 53.2191 34.8381 53.4985C34.8381 53.7778 34.9714 54.1334 35.6444 54.1334H37.365V52.8635H35.6444Z" fill="#FABB40"/>
<path id="Vector_5" d="M46.165 55.9237V52.8571H44.438V52.3428H48.4888V52.8571H46.7682V55.9237H46.165Z" fill="#FABB40"/>
<path id="Vector_6" d="M58.6667 55.9237V54.3618H55.5619V55.9237H54.9714V52.3428H55.5619V53.8475H58.6667V52.3428H59.2572V55.9237H58.6667Z" fill="#FABB40"/>
<path id="Vector_7" d="M66.2412 55.9999V52.3428H66.8317V54.9079L70.4317 52.2856V55.9237H69.8412V53.3777L66.2412 55.9999Z" fill="#FABB40"/>
<path id="Vector_8" d="M79.5303 53.7904L81.3906 55.9237H80.616L79.0605 54.1713L78.0065 55.0158V55.9237H77.416V52.3428H78.0065V54.3364L80.5335 52.3428H81.3335L79.5303 53.7904Z" fill="#FABB40"/>
<path id="Vector_9" d="M87.7905 55.9999V52.3428H88.381V54.9079L91.981 52.2856V55.9237H91.3905V53.3777L87.7905 55.9999Z" fill="#FABB40"/>
<path id="Vector_10" d="M0.0571289 49.3269V39.1873H10.5333V40.5396H1.73332V49.3269H0.0571289Z" fill="#FABB40"/>
<path id="Vector_11" d="M14.4762 45.6698V49.3269H12.8V39.1682H19.6826C22.2858 39.1682 23.5366 40.7047 23.5366 42.4C23.5366 44.0952 22.2667 45.6508 19.6826 45.6508L14.4762 45.6698ZM14.4762 40.6603V44.2158H19.3461C21.3461 44.2158 21.727 43.2444 21.727 42.419C21.727 41.5936 21.3461 40.6349 19.3461 40.6349L14.4762 40.6603Z" fill="#FABB40"/>
<path id="Vector_12" d="M33.6889 47.1238H26.4127L24.9841 49.327H23.1238L30.0508 39.0286L36.9968 49.327H35.1428L33.6889 47.1238ZM27.3016 45.7524H32.7492L30.0254 41.6127L27.3016 45.7524Z" fill="#FABB40"/>
<path id="Vector_13" d="M49.2572 49.3269V44.9015H40.4762V49.3269H38.8V39.1873H40.4762V43.4476H49.2572V39.1873H50.9334V49.3269H49.2572Z" fill="#FABB40"/>
<path id="Vector_14" d="M54.5334 49.3269V39.1873H64.7112V40.5206H56.2096V43.5301H63.2573V44.7809H56.2096V47.9936H64.7112V49.3269H54.5334Z" fill="#FABB40"/>
<path id="Vector_15" d="M73.4792 43.2888L78.7491 49.3269H76.5459L72.1459 44.3555L69.1745 46.7365V49.3269H67.4983V39.1873H69.1745V44.819L76.3237 39.1873H78.5904L73.4792 43.2888Z" fill="#FABB40"/>
<path id="Vector_16" d="M91.981 48.5142C90.4429 49.219 88.7645 49.5642 87.0731 49.5237C82.7112 49.5237 79.8223 47.619 79.8223 44.273C79.8223 40.9269 82.6921 39.0285 87.0731 39.0285C88.7675 38.9993 90.4462 39.3576 91.981 40.0761V41.6317C90.4755 40.8367 88.7944 40.4328 87.0921 40.4571C83.8032 40.4571 81.6381 41.873 81.6381 44.2666C81.6381 46.6603 83.7842 48.0761 87.1556 48.0761C88.8244 48.1079 90.4774 47.7468 91.981 47.0222V48.5142Z" fill="#FABB40"/>
<path id="Union" fill-rule="evenodd" clip-rule="evenodd" d="M45.3649 17.7016V0L14.6982 17.7016H45.3649ZM32.2728 12.9841L16.6094 17.0159L44.3935 0.952381L32.2728 12.9841ZM44.8887 1.21905L41.9046 9.94921L39.0602 10.6349L44.8887 1.21905ZM39.0348 10.8508L41.9046 10.1587L44.7935 16.9778L39.0348 10.8508ZM45.0347 9.33333V17.0857L42.0824 10.0762L45.0347 9.33333ZM44.7554 1.06667L38.7998 10.7365L32.8316 12.9079L44.7554 1.06667ZM45.0284 9.1873L42.1014 9.92381L45.0284 1.32064V9.1873ZM32.8062 13.1429L38.8379 10.9143L44.603 17.0603L32.8062 13.1429ZM16.5078 17.3841L32.3808 13.3333L44.5649 17.3841H16.5078ZM46.6157 17.7016V0L77.276 17.7016H46.6157ZM59.6824 12.9841L75.3713 17.0159L47.6189 0.952381L59.6824 12.9841ZM47.1046 1.21905L50.0887 9.94921L52.9205 10.6349L47.1046 1.21905ZM52.9586 10.8254L50.0887 10.1333L47.1808 16.9524L52.9586 10.8254ZM46.9395 9.33333V17.0603L49.8919 10.0762L46.9395 9.33333ZM47.2252 1.06667L53.1744 10.7111L59.1491 12.9079L47.2252 1.06667ZM46.9459 9.16191L49.8729 9.89841L46.9459 1.32064V9.16191ZM59.1681 13.1175L53.1364 10.8889L47.3713 17.0222L59.1681 13.1175ZM75.4475 17.4095L59.6252 13.3333L47.3903 17.4095H75.4475ZM46.6157 36.654V18.9524H77.276L46.6157 36.654ZM75.3713 19.6381L59.6824 23.6698L47.6189 35.7016L75.3713 19.6381ZM50.0887 26.7048L47.1046 35.4349L52.9205 26.0318L50.0887 26.7048ZM50.0887 26.5206L52.9586 25.8286L47.1808 19.6825L50.0887 26.5206ZM46.9395 19.5937V27.3016L49.8919 26.5651L46.9395 19.5937ZM53.1744 25.9429L47.2252 35.5873L59.1491 23.746L53.1744 25.9429ZM49.8729 26.7556L46.9459 27.4921V35.3333L49.8729 26.7556ZM53.1364 25.7651L59.1681 23.5365L47.3713 19.6318L53.1364 25.7651ZM59.6252 23.3333L75.4475 19.2571H47.3903L59.6252 23.3333ZM45.3649 18.9524V36.654L14.6982 18.9524H45.3649ZM32.2728 23.6698L16.6094 19.6381L44.3935 35.7016L32.2728 23.6698ZM44.8887 35.4349L41.9046 26.7048L39.0602 26.0318L44.8887 35.4349ZM39.0348 25.8286L41.9046 26.5206L44.7998 19.6825L39.0348 25.8286ZM45.0347 27.3016V19.5937L42.0824 26.5651L45.0347 27.3016ZM44.749 35.5746L38.7998 25.9429L32.8316 23.746L44.749 35.5746ZM45.0284 27.4921L42.1014 26.7556L45.0284 35.3333V27.4921ZM32.8125 23.5492L38.8443 25.7778L44.6094 19.6318L32.8125 23.5492ZM16.5078 19.2698L32.3808 23.346L44.5649 19.2698H16.5078Z" fill="#FABB40"/>
</g>
<defs>
<clipPath id="clip0_283_5163">
<rect width="91.981" height="56" fill="white"/>
</clipPath>
</defs>
</svg>
