<svg width="24" height="24" viewBox="0 0 24 24" fill="none" xmlns="http://www.w3.org/2000/svg">
<g id="group-objects 1" clip-path="url(#clip0_283_5319)">
<path id="Vector" d="M14.25 9.75V6.75H6.75V14.25H9.75V17.25H17.25V9.75H14.25ZM8.25 8.25H12.75V12.75H8.25V8.25ZM15.75 15.75H11.25V14.25H14.25V11.25H15.75V15.75Z" fill="#402020"/>
<path id="Vector_2" d="M22.5 6V1.5H18V3H6V1.5H1.5V6H3V18H1.5V22.5H6V21H18V22.5H22.5V18H21V6H22.5ZM19.5 3H21V4.5H19.5V3ZM3 3H4.5V4.5H3V3ZM4.5 21H3V19.5H4.5V21ZM21 21H19.5V19.5H21V21ZM19.5 18H18V19.5H6V18H4.5V6H6V4.5H18V6H19.5V18Z" fill="#402020"/>
</g>
<defs>
<clipPath id="clip0_283_5319">
<rect width="24" height="24" fill="white"/>
</clipPath>
</defs>
</svg>
