<svg width="24" height="24" viewBox="0 0 24 24" fill="none" xmlns="http://www.w3.org/2000/svg">
<g id="white-paper 1" clip-path="url(#clip0_283_5843)">
<path id="Vector" d="M16.5 20.3847L14.5575 18.4423L13.5 19.4999L16.5 22.4999L22.5 16.4999L21.4424 15.4424L16.5 20.3847Z" fill="#402020"/>
<path id="Vector_2" d="M12 12.75H6.75V14.25H12V12.75Z" fill="#402020"/>
<path id="Vector_3" d="M15.75 9H6.75V10.5H15.75V9Z" fill="#402020"/>
<path id="Vector_4" d="M15.75 5.25H6.75V6.75H15.75V5.25Z" fill="#402020"/>
<path id="Vector_5" d="M12 22.5H4.5C3.67275 22.5 3 21.8271 3 21V3C3 2.1729 3.67275 1.5 4.5 1.5H18C18.8273 1.5 19.5 2.1729 19.5 3V14.25H18V3H4.5V21H12V22.5Z" fill="#402020"/>
</g>
<defs>
<clipPath id="clip0_283_5843">
<rect width="24" height="24" fill="white"/>
</clipPath>
</defs>
</svg>
