<svg width="248" height="158" viewBox="0 0 248 158" fill="none" xmlns="http://www.w3.org/2000/svg">
<path fill-rule="evenodd" clip-rule="evenodd" d="M244.775 -142V-75.5959H129.735L244.775 -142ZM136.904 -78.1683L195.662 -93.2926L241.131 -138.427L136.904 -78.1683ZM231.794 -104.677L242.988 -137.427L221.124 -102.105L231.794 -104.677ZM231.794 -103.891L221.028 -101.295L242.631 -78.3112L231.794 -103.891ZM243.536 -77.9063V-106.988L232.461 -104.201L243.536 -77.9063ZM220.147 -101.724L242.488 -137.999L197.758 -93.5784L220.147 -101.724ZM232.532 -104.773L243.512 -107.536V-137.046L232.532 -104.773ZM220.29 -101.057L197.663 -92.6971L241.917 -78.0015L220.29 -101.057ZM196.067 -91.9826L136.523 -76.7868H241.774L196.067 -91.9826ZM249.467 -142V-75.5959H364.483L249.467 -142ZM357.338 -78.1683L298.484 -93.2926L253.23 -138.427L357.338 -78.1683ZM262.495 -104.677L251.301 -137.427L273.118 -102.105L262.495 -104.677ZM262.495 -103.987L273.261 -101.391L251.587 -78.4064L262.495 -103.987ZM250.682 -78.0015V-106.988L261.757 -104.201L250.682 -78.0015ZM274.071 -101.819L251.753 -137.999L296.483 -93.5784L274.071 -101.819ZM261.685 -104.868L250.705 -107.631V-137.046L261.685 -104.868ZM273.928 -101.152L296.555 -92.7924L252.301 -78.1444L273.928 -101.152ZM298.27 -91.9826L357.624 -76.6916H252.373L298.27 -91.9826ZM249.467 -70.9038V-4.49974L364.483 -70.9038H249.467ZM298.484 -53.2072L357.338 -68.3315L253.23 -8.07242L298.484 -53.2072ZM251.301 -9.07275L262.495 -41.8223L273.118 -44.3469L251.301 -9.07275ZM273.261 -45.1091L262.495 -42.513L251.587 -68.1648L273.261 -45.1091ZM250.682 -39.5834V-68.4982L261.757 -42.3462L250.682 -39.5834ZM251.753 -8.50113L274.071 -44.6804L296.483 -52.9214L251.753 -8.50113ZM250.705 -38.8689L261.685 -41.6317L250.705 -9.45384V-38.8689ZM296.555 -53.7073L273.928 -45.3473L252.301 -68.3553L296.555 -53.7073ZM357.624 -69.7606L298.27 -54.4695L252.373 -69.7606H357.624ZM244.775 -4.49974V-70.9038H129.735L244.775 -4.49974ZM136.904 -68.3315L195.662 -53.2072L241.131 -8.07242L136.904 -68.3315ZM231.794 -41.8223L242.988 -9.07275L221.124 -44.3469L231.794 -41.8223ZM231.794 -42.513L221.028 -45.1091L242.655 -68.1648L231.794 -42.513ZM243.536 -68.4982V-39.5834L232.461 -42.3462L243.536 -68.4982ZM220.147 -44.6804L242.464 -8.54877L197.758 -52.9214L220.147 -44.6804ZM232.532 -41.6317L243.512 -38.8689V-9.45384L232.532 -41.6317ZM220.314 -45.2997L197.687 -53.6597L241.94 -68.3553L220.314 -45.2997ZM196.067 -54.4219L136.523 -69.7129H241.774L196.067 -54.4219ZM115.04 5.49576V-60.9083L0 5.49576H115.04ZM65.9277 -12.2009L7.16916 2.92343L111.396 -57.3356L65.9277 -12.2009ZM113.254 -56.3353L102.059 -23.5858L91.389 -21.0135L113.254 -56.3353ZM91.2937 -20.2037L102.059 -22.7998L112.896 2.78053L91.2937 -20.2037ZM113.802 -25.8961V3.18542L102.726 -23.1094L113.802 -25.8961ZM112.754 -56.9069L90.4124 -20.6324L68.0237 -12.4867L112.754 -56.9069ZM113.778 -26.4439L102.798 -23.6811L113.778 -55.9542V-26.4439ZM67.9284 -11.6054L90.5553 -19.9655L112.182 3.09016L67.9284 -11.6054ZM6.78808 4.30487L66.3326 -10.8909L112.039 4.30487H6.78808ZM119.732 5.49576V-60.9083L234.748 5.49576H119.732ZM168.749 -12.2009L227.603 2.92343L123.495 -57.3356L168.749 -12.2009ZM121.566 -56.3353L132.761 -23.5858L143.383 -21.0135L121.566 -56.3353ZM143.526 -20.2989L132.761 -22.8951L121.852 2.68526L143.526 -20.2989ZM120.947 -25.8961V3.09016L132.022 -23.1094L120.947 -25.8961ZM122.019 -56.9069L144.336 -20.7277L166.749 -12.4867L122.019 -56.9069ZM120.971 -26.5392L131.951 -23.7763L120.971 -55.9542V-26.5392ZM166.82 -11.7007L144.193 -20.0608L122.567 2.94725L166.82 -11.7007ZM227.889 4.40015L168.535 -10.8909L122.638 4.40015H227.889ZM119.732 76.5919V10.1879H234.748L119.732 76.5919ZM227.603 12.7602L168.749 27.8845L123.495 73.0193L227.603 12.7602ZM132.761 39.2694L121.566 72.0189L143.383 36.7448L132.761 39.2694ZM132.761 38.5787L143.526 35.9826L121.852 12.9269L132.761 38.5787ZM120.947 12.5935V41.5083L132.022 38.7454L120.947 12.5935ZM144.336 36.4113L122.019 72.5906L166.749 28.1703L144.336 36.4113ZM131.951 39.46L120.971 42.2228V71.6378L131.951 39.46ZM144.193 35.7444L166.82 27.3843L122.567 12.7364L144.193 35.7444ZM168.535 26.6222L227.889 11.3311H122.638L168.535 26.6222ZM115.04 10.1879V76.5919L0 10.1879H115.04ZM65.9277 27.8845L7.16916 12.7602L111.396 73.0193L65.9277 27.8845ZM113.254 72.0189L102.059 39.2694L91.389 36.7448L113.254 72.0189ZM91.2937 35.9826L102.059 38.5787L112.92 12.9269L91.2937 35.9826ZM113.802 41.5083V12.5935L102.726 38.7454L113.802 41.5083ZM112.73 72.5429L90.4124 36.4113L68.0237 28.1703L112.73 72.5429ZM113.778 42.2228L102.798 39.46L113.778 71.6378V42.2228ZM67.9522 27.432L90.5791 35.792L112.206 12.7364L67.9522 27.432ZM6.78808 11.3788L66.3326 26.6698L112.039 11.3788H6.78808ZM378.981 -60.9083V5.49576H493.997L378.981 -60.9083ZM486.852 2.92343L427.998 -12.2009L382.744 -57.3356L486.852 2.92343ZM392.009 -23.5858L380.815 -56.3353L402.632 -21.0135L392.009 -23.5858ZM392.009 -22.8951L402.775 -20.2989L381.1 2.68526L392.009 -22.8951ZM380.195 3.09016V-25.8961L391.271 -23.1094L380.195 3.09016ZM403.585 -20.7277L381.267 -56.9069L425.997 -12.4867L403.585 -20.7277ZM391.199 -23.7763L380.219 -26.5392V-55.9542L391.199 -23.7763ZM403.442 -20.0608L426.069 -11.7007L381.815 2.94725L403.442 -20.0608ZM427.783 -10.8909L487.137 4.40015H381.886L427.783 -10.8909ZM374.289 5.49576V-60.9083L259.248 5.49576H374.289ZM325.176 -12.2009L266.418 2.92343L370.644 -57.3356L325.176 -12.2009ZM372.502 -56.3353L361.308 -23.5858L350.637 -21.0135L372.502 -56.3353ZM350.542 -20.2037L361.308 -22.7998L372.145 2.78053L350.542 -20.2037ZM373.05 -25.8961V3.18542L361.975 -23.1094L373.05 -25.8961ZM372.002 -56.9069L349.661 -20.6324L327.272 -12.4867L372.002 -56.9069ZM373.026 -26.4439L362.046 -23.6811L373.026 -55.9542V-26.4439ZM327.177 -11.6054L349.804 -19.9655L371.43 3.09016L327.177 -11.6054ZM266.037 4.30487L325.581 -10.8909L371.287 4.30487H266.037ZM378.981 76.5919V10.1879H493.997L378.981 76.5919ZM486.852 12.7602L427.998 27.8845L382.744 73.0193L486.852 12.7602ZM392.009 39.2694L380.815 72.0189L402.632 36.7448L392.009 39.2694ZM392.009 38.5787L402.775 35.9826L381.1 12.9269L392.009 38.5787ZM380.195 12.5935V41.5083L391.271 38.7454L380.195 12.5935ZM403.585 36.4113L381.267 72.5906L425.997 28.1703L403.585 36.4113ZM391.199 39.46L380.219 42.2228V71.6378L391.199 39.46ZM403.442 35.7444L426.069 27.3843L381.815 12.7364L403.442 35.7444ZM427.783 26.6222L487.137 11.3311H381.886L427.783 26.6222ZM374.289 10.1879V76.5919L259.248 10.1879H374.289ZM325.176 27.8845L266.418 12.7602L370.644 73.0193L325.176 27.8845ZM372.502 72.0189L361.308 39.2694L350.637 36.7448L372.502 72.0189ZM350.542 35.9826L361.308 38.5787L372.169 12.9269L350.542 35.9826ZM373.05 41.5083V12.5935L361.975 38.7454L373.05 41.5083ZM371.978 72.5429L349.661 36.4113L327.272 28.1703L371.978 72.5429ZM373.026 42.2228L362.046 39.46L373.026 71.6378V42.2228ZM327.201 27.432L349.828 35.792L371.454 12.7364L327.201 27.432ZM266.037 11.3788L325.581 26.6698L371.287 11.3788H266.037ZM638.229 -60.9083V5.49576H753.245L638.229 -60.9083ZM746.1 2.92343L687.246 -12.2009L641.992 -57.3356L746.1 2.92343ZM651.258 -23.5858L640.063 -56.3353L661.88 -21.0135L651.258 -23.5858ZM651.258 -22.8951L662.023 -20.2989L640.349 2.68526L651.258 -22.8951ZM639.444 3.09016V-25.8961L650.519 -23.1094L639.444 3.09016ZM662.833 -20.7277L640.516 -56.9069L685.246 -12.4867L662.833 -20.7277ZM650.448 -23.7763L639.468 -26.5392V-55.9542L650.448 -23.7763ZM662.69 -20.0608L685.317 -11.7007L641.064 2.94725L662.69 -20.0608ZM687.032 -10.8909L746.386 4.40015H641.135L687.032 -10.8909ZM633.537 5.49576V-60.9083L518.497 5.49576H633.537ZM584.425 -12.2009L525.666 2.92343L629.893 -57.3356L584.425 -12.2009ZM631.751 -56.3353L620.556 -23.5858L609.886 -21.0135L631.751 -56.3353ZM609.791 -20.2037L620.556 -22.7998L631.393 2.78053L609.791 -20.2037ZM632.299 -25.8961V3.18542L621.223 -23.1094L632.299 -25.8961ZM631.251 -56.9069L608.909 -20.6324L586.521 -12.4867L631.251 -56.9069ZM632.275 -26.4439L621.295 -23.6811L632.275 -55.9542V-26.4439ZM586.425 -11.6054L609.052 -19.9655L630.679 3.09016L586.425 -11.6054ZM525.285 4.30487L584.83 -10.8909L630.536 4.30487H525.285ZM638.229 76.5919V10.1879H753.245L638.229 76.5919ZM746.1 12.7602L687.246 27.8845L641.992 73.0193L746.1 12.7602ZM651.258 39.2694L640.063 72.0189L661.88 36.7448L651.258 39.2694ZM651.258 38.5787L662.023 35.9826L640.349 12.9269L651.258 38.5787ZM639.444 12.5935V41.5083L650.519 38.7454L639.444 12.5935ZM662.833 36.4113L640.516 72.5906L685.246 28.1703L662.833 36.4113ZM650.448 39.46L639.468 42.2228V71.6378L650.448 39.46ZM662.69 35.7444L685.317 27.3843L641.064 12.7364L662.69 35.7444ZM687.032 26.6222L746.386 11.3311H641.135L687.032 26.6222ZM633.537 10.1879V76.5919L518.497 10.1879H633.537ZM584.425 27.8845L525.666 12.7602L629.893 73.0193L584.425 27.8845ZM631.751 72.0189L620.556 39.2694L609.886 36.7448L631.751 72.0189ZM609.791 35.9826L620.556 38.5787L631.417 12.9269L609.791 35.9826ZM632.299 41.5083V12.5935L621.223 38.7454L632.299 41.5083ZM631.227 72.5429L608.909 36.4113L586.521 28.1703L631.227 72.5429ZM632.275 42.2228L621.295 39.46L632.275 71.6378V42.2228ZM586.449 27.432L609.076 35.792L630.703 12.7364L586.449 27.432ZM525.285 11.3788L584.83 26.6698L630.536 11.3788H525.285ZM249.459 86.5964V20.1923L364.476 86.5964H249.459ZM298.477 68.8997L357.33 84.024L253.223 23.765L298.477 68.8997ZM251.293 24.7653L262.488 57.5148L273.111 60.0871L251.293 24.7653ZM273.253 60.8017L262.488 58.2055L251.579 83.7859L273.253 60.8017ZM250.674 55.2045V84.1908L261.749 57.9912L250.674 55.2045ZM251.746 24.1937L274.063 60.3729L296.476 68.6139L251.746 24.1937ZM250.698 54.5614L261.678 57.3243L250.698 25.1464V54.5614ZM296.547 69.3999L273.92 61.0398L252.294 84.0479L296.547 69.3999ZM357.616 85.5007L298.262 70.2097L252.365 85.5007H357.616ZM244.767 86.5966V20.1925L129.727 86.5966H244.767ZM195.655 68.8999L136.896 84.0243L241.123 23.7652L195.655 68.8999ZM242.981 24.7655L231.787 57.515L221.116 60.0874L242.981 24.7655ZM221.021 60.8972L231.787 58.301L242.624 83.8813L221.021 60.8972ZM243.529 55.2047V84.2863L232.453 57.9914L243.529 55.2047ZM242.481 24.1939L220.14 60.4684L197.751 68.6141L242.481 24.1939ZM243.505 54.6569L232.525 57.4198L243.505 25.1466V54.6569ZM197.656 69.4954L220.283 61.1353L241.909 84.191L197.656 69.4954ZM136.515 85.4057L196.06 70.2099L241.766 85.4057H136.515ZM249.459 157.693V91.2885H364.476L249.459 157.693ZM357.33 93.8608L298.477 108.985L253.223 154.12L357.33 93.8608ZM262.488 120.37L251.293 153.12L273.111 117.845L262.488 120.37ZM262.488 119.679L273.253 117.083L251.579 94.0275L262.488 119.679ZM250.674 93.6941V122.609L261.749 119.846L250.674 93.6941ZM274.063 117.512L251.746 153.691L296.476 109.271L274.063 117.512ZM261.678 120.561L250.698 123.323V152.738L261.678 120.561ZM273.92 116.845L296.547 108.485L252.294 93.837L273.92 116.845ZM298.262 107.723L357.616 92.4317H252.365L298.262 107.723ZM244.767 91.2885V157.693L129.727 91.2885H244.767ZM195.655 108.985L136.896 93.8608L241.123 154.12L195.655 108.985ZM242.981 153.12L231.787 120.37L221.116 117.845L242.981 153.12ZM221.021 117.083L231.787 119.679L242.648 94.0275L221.021 117.083ZM243.529 122.609V93.6941L232.453 119.846L243.529 122.609ZM242.457 153.644L220.14 117.512L197.751 109.271L242.457 153.644ZM243.505 123.323L232.525 120.561L243.505 152.738V123.323ZM197.68 108.533L220.306 116.893L241.933 93.837L197.68 108.533ZM136.515 92.4794L196.06 107.77L241.766 92.4794H136.515ZM508.715 86.5964V20.1923L623.732 86.5964H508.715ZM557.732 68.8997L616.586 84.024L512.479 23.765L557.732 68.8997ZM510.549 24.7653L521.744 57.5148L532.367 60.0871L510.549 24.7653ZM532.509 60.8017L521.744 58.2055L510.835 83.7859L532.509 60.8017ZM509.93 55.2045V84.1908L521.005 57.9912L509.93 55.2045ZM511.002 24.1937L533.319 60.3729L555.732 68.6139L511.002 24.1937ZM509.954 54.5614L520.934 57.3243L509.954 25.1464V54.5614ZM555.803 69.3999L533.176 61.0398L511.55 84.0479L555.803 69.3999ZM616.872 85.5007L557.518 70.2097L511.621 85.5007H616.872ZM504.023 86.5966V20.1925L388.983 86.5966H504.023ZM454.911 68.8999L396.152 84.0243L500.379 23.7652L454.911 68.8999ZM502.237 24.7655L491.042 57.515L480.372 60.0874L502.237 24.7655ZM480.277 60.8972L491.042 58.301L501.88 83.8813L480.277 60.8972ZM502.785 55.2047V84.2863L491.709 57.9914L502.785 55.2047ZM501.737 24.1939L479.396 60.4684L457.007 68.6141L501.737 24.1939ZM502.761 54.6569L491.781 57.4198L502.761 25.1466V54.6569ZM456.912 69.4954L479.538 61.1353L501.165 84.191L456.912 69.4954ZM395.771 85.4057L455.316 70.2099L501.022 85.4057H395.771ZM508.715 157.693V91.2885H623.732L508.715 157.693ZM616.586 93.8608L557.732 108.985L512.479 154.12L616.586 93.8608ZM521.744 120.37L510.549 153.12L532.367 117.845L521.744 120.37ZM521.744 119.679L532.509 117.083L510.835 94.0275L521.744 119.679ZM509.93 93.6941V122.609L521.005 119.846L509.93 93.6941ZM533.319 117.512L511.002 153.691L555.732 109.271L533.319 117.512ZM520.934 120.561L509.954 123.323V152.738L520.934 120.561ZM533.176 116.845L555.803 108.485L511.55 93.837L533.176 116.845ZM557.518 107.723L616.872 92.4317H511.621L557.518 107.723ZM504.023 91.2885V157.693L388.983 91.2885H504.023ZM454.911 108.985L396.152 93.8608L500.379 154.12L454.911 108.985ZM502.237 153.12L491.043 120.37L480.372 117.845L502.237 153.12ZM480.277 117.083L491.043 119.679L501.903 94.0275L480.277 117.083ZM502.785 122.609V93.6941L491.709 119.846L502.785 122.609ZM501.713 153.644L479.396 117.512L457.007 109.271L501.713 153.644ZM502.761 123.323L491.781 120.561L502.761 152.738V123.323ZM456.935 108.533L479.562 116.893L501.189 93.837L456.935 108.533ZM395.771 92.4794L455.316 107.77L501.022 92.4794H395.771ZM504.031 -142V-75.5959H388.991L504.031 -142ZM396.16 -78.1683L454.918 -93.2926L500.387 -138.427L396.16 -78.1683ZM491.05 -104.677L502.244 -137.427L480.38 -102.105L491.05 -104.677ZM491.05 -103.891L480.284 -101.295L501.887 -78.3112L491.05 -103.891ZM502.792 -77.9063V-106.988L491.717 -104.201L502.792 -77.9063ZM479.403 -101.724L501.744 -137.999L457.014 -93.5784L479.403 -101.724ZM491.788 -104.773L502.768 -107.536V-137.046L491.788 -104.773ZM479.546 -101.057L456.919 -92.6971L501.173 -78.0015L479.546 -101.057ZM455.323 -91.9826L395.779 -76.7868H501.03L455.323 -91.9826ZM508.723 -142V-75.5959H623.739L508.723 -142ZM616.594 -78.1683L557.74 -93.2926L512.486 -138.427L616.594 -78.1683ZM521.751 -104.677L510.557 -137.427L532.374 -102.105L521.751 -104.677ZM521.751 -103.987L532.517 -101.391L510.843 -78.4064L521.751 -103.987ZM509.938 -78.0015V-106.988L521.013 -104.201L509.938 -78.0015ZM533.327 -101.819L511.009 -137.999L555.739 -93.5784L533.327 -101.819ZM520.941 -104.868L509.961 -107.631V-137.046L520.941 -104.868ZM533.184 -101.152L555.811 -92.7924L511.557 -78.1444L533.184 -101.152ZM557.526 -91.9826L616.88 -76.6916H511.629L557.526 -91.9826ZM508.723 -70.9038V-4.49974L623.739 -70.9038H508.723ZM557.74 -53.2072L616.594 -68.3315L512.486 -8.07242L557.74 -53.2072ZM510.557 -9.07275L521.751 -41.8223L532.374 -44.3469L510.557 -9.07275ZM532.517 -45.1091L521.751 -42.513L510.843 -68.1648L532.517 -45.1091ZM509.938 -39.5834V-68.4982L521.013 -42.3462L509.938 -39.5834ZM511.009 -8.50113L533.327 -44.6804L555.739 -52.9214L511.009 -8.50113ZM509.961 -38.8689L520.941 -41.6317L509.961 -9.45384V-38.8689ZM555.811 -53.7073L533.184 -45.3473L511.557 -68.3553L555.811 -53.7073ZM616.88 -69.7606L557.526 -54.4695L511.629 -69.7606H616.88ZM504.031 -4.49974V-70.9038H388.991L504.031 -4.49974ZM396.16 -68.3315L454.918 -53.2072L500.387 -8.07242L396.16 -68.3315ZM491.05 -41.8223L502.244 -9.07275L480.38 -44.3469L491.05 -41.8223ZM491.05 -42.513L480.284 -45.1091L501.911 -68.1648L491.05 -42.513ZM502.792 -68.4982V-39.5834L491.717 -42.3462L502.792 -68.4982ZM479.403 -44.6804L501.72 -8.54877L457.014 -52.9214L479.403 -44.6804ZM491.788 -41.6317L502.768 -38.8689V-9.45384L491.788 -41.6317ZM479.57 -45.2997L456.943 -53.6597L501.196 -68.3553L479.57 -45.2997ZM455.323 -54.4219L395.779 -69.7129H501.03L455.323 -54.4219ZM767.971 86.5964V20.1923L882.988 86.5964H767.971ZM816.988 68.8997L875.842 84.024L771.735 23.765L816.988 68.8997ZM769.805 24.7653L781 57.5148L791.622 60.0871L769.805 24.7653ZM791.765 60.8017L781 58.2055L770.091 83.7859L791.765 60.8017ZM769.186 55.2045V84.1908L780.261 57.9912L769.186 55.2045ZM770.258 24.1937L792.575 60.3729L814.988 68.6139L770.258 24.1937ZM769.21 54.5614L780.19 57.3243L769.21 25.1464V54.5614ZM815.059 69.3999L792.432 61.0398L770.806 84.0479L815.059 69.3999ZM876.128 85.5007L816.774 70.2097L770.877 85.5007H876.128ZM763.279 86.5966V20.1925L648.239 86.5966H763.279ZM714.167 68.8999L655.408 84.0243L759.635 23.7652L714.167 68.8999ZM761.493 24.7655L750.298 57.515L739.628 60.0874L761.493 24.7655ZM739.533 60.8972L750.298 58.301L761.135 83.8813L739.533 60.8972ZM762.041 55.2047V84.2863L750.965 57.9914L762.041 55.2047ZM760.993 24.1939L738.651 60.4684L716.263 68.6141L760.993 24.1939ZM762.017 54.6569L751.037 57.4198L762.017 25.1466V54.6569ZM716.167 69.4954L738.794 61.1353L760.421 84.191L716.167 69.4954ZM655.027 85.4057L714.572 70.2099L760.278 85.4057H655.027ZM767.971 157.693V91.2885H882.988L767.971 157.693ZM875.842 93.8608L816.988 108.985L771.735 154.12L875.842 93.8608ZM781 120.37L769.805 153.12L791.622 117.845L781 120.37ZM781 119.679L791.765 117.083L770.091 94.0275L781 119.679ZM769.186 93.6941V122.609L780.261 119.846L769.186 93.6941ZM792.575 117.512L770.258 153.691L814.988 109.271L792.575 117.512ZM780.19 120.561L769.21 123.323V152.738L780.19 120.561ZM792.432 116.845L815.059 108.485L770.806 93.837L792.432 116.845ZM816.774 107.723L876.128 92.4317H770.877L816.774 107.723ZM763.279 91.2885V157.693L648.239 91.2885H763.279ZM714.167 108.985L655.408 93.8608L759.635 154.12L714.167 108.985ZM761.493 153.12L750.298 120.37L739.628 117.845L761.493 153.12ZM739.533 117.083L750.298 119.679L761.159 94.0275L739.533 117.083ZM762.041 122.609V93.6941L750.965 119.846L762.041 122.609ZM760.969 153.644L738.652 117.512L716.263 109.271L760.969 153.644ZM762.017 123.323L751.037 120.561L762.017 152.738V123.323ZM716.191 108.533L738.818 116.893L760.445 93.837L716.191 108.533ZM655.027 92.4794L714.572 107.77L760.278 92.4794H655.027ZM763.287 -142V-75.5959H648.247L763.287 -142ZM655.416 -78.1683L714.174 -93.2926L759.642 -138.427L655.416 -78.1683ZM750.306 -104.677L761.5 -137.427L739.635 -102.105L750.306 -104.677ZM750.306 -103.891L739.54 -101.295L761.143 -78.3112L750.306 -103.891ZM762.048 -77.9063V-106.988L750.973 -104.201L762.048 -77.9063ZM738.659 -101.724L761 -137.999L716.27 -93.5784L738.659 -101.724ZM751.044 -104.773L762.024 -107.536V-137.046L751.044 -104.773ZM738.802 -101.057L716.175 -92.6971L760.428 -78.0015L738.802 -101.057ZM714.579 -91.9826L655.035 -76.7868H760.286L714.579 -91.9826ZM767.979 -142V-75.5959H882.995L767.979 -142ZM875.85 -78.1683L816.996 -93.2926L771.742 -138.427L875.85 -78.1683ZM781.007 -104.677L769.813 -137.427L791.63 -102.105L781.007 -104.677ZM781.007 -103.987L791.773 -101.391L770.099 -78.4064L781.007 -103.987ZM769.193 -78.0015V-106.988L780.269 -104.201L769.193 -78.0015ZM792.583 -101.819L770.265 -137.999L814.995 -93.5784L792.583 -101.819ZM780.197 -104.868L769.217 -107.631V-137.046L780.197 -104.868ZM792.44 -101.152L815.067 -92.7924L770.813 -78.1444L792.44 -101.152ZM816.781 -91.9826L876.135 -76.6916H770.885L816.781 -91.9826ZM767.979 -70.9038V-4.49974L882.995 -70.9038H767.979ZM816.996 -53.2072L875.85 -68.3315L771.742 -8.07242L816.996 -53.2072ZM769.813 -9.07275L781.007 -41.8223L791.63 -44.3469L769.813 -9.07275ZM791.773 -45.1091L781.007 -42.513L770.099 -68.1648L791.773 -45.1091ZM769.193 -39.5834V-68.4982L780.269 -42.3462L769.193 -39.5834ZM770.265 -8.50113L792.583 -44.6804L814.995 -52.9214L770.265 -8.50113ZM769.217 -38.8689L780.197 -41.6317L769.217 -9.45384V-38.8689ZM815.067 -53.7073L792.44 -45.3473L770.813 -68.3553L815.067 -53.7073ZM876.135 -69.7606L816.781 -54.4695L770.885 -69.7606H876.135ZM763.287 -4.49974V-70.9038H648.247L763.287 -4.49974ZM655.416 -68.3315L714.174 -53.2072L759.642 -8.07242L655.416 -68.3315ZM750.306 -41.8223L761.5 -9.07275L739.635 -44.3469L750.306 -41.8223ZM750.306 -42.513L739.54 -45.1091L761.167 -68.1648L750.306 -42.513ZM762.048 -68.4982V-39.5834L750.973 -42.3462L762.048 -68.4982ZM738.659 -44.6804L760.976 -8.54877L716.27 -52.9214L738.659 -44.6804ZM751.044 -41.6317L762.024 -38.8689V-9.45384L751.044 -41.6317ZM738.826 -45.2997L716.199 -53.6597L760.452 -68.3553L738.826 -45.2997ZM714.579 -54.4219L655.035 -69.7129H760.286L714.579 -54.4219Z" fill="white" fill-opacity="0.08"/>
</svg>
