<svg width="490" height="155" viewBox="0 0 490 155" fill="none" xmlns="http://www.w3.org/2000/svg">
<path fill-rule="evenodd" clip-rule="evenodd" d="M245.726 0.307373V66.7114H130.686L245.726 0.307373ZM137.855 64.1391L196.614 49.0148L242.082 3.88005L137.855 64.1391ZM232.746 37.6299L243.94 4.88039L222.075 40.2022L232.746 37.6299ZM232.746 38.4159L221.98 41.012L243.583 63.9962L232.746 38.4159ZM244.488 64.4011V35.3196L233.413 38.1062L244.488 64.4011ZM221.099 40.5833L243.44 4.30877L198.71 48.729L221.099 40.5833ZM233.484 37.5346L244.464 34.7718V5.26148L233.484 37.5346ZM221.242 41.2502L198.615 49.6103L242.868 64.3058L221.242 41.2502ZM197.019 50.3248L137.474 65.5206H242.725L197.019 50.3248ZM250.419 0.307373V66.7114H365.435L250.419 0.307373ZM358.289 64.1391L299.436 49.0148L254.182 3.88005L358.289 64.1391ZM263.447 37.6299L252.253 4.88039L274.07 40.2022L263.447 37.6299ZM263.447 38.3206L274.213 40.9167L252.538 63.9009L263.447 38.3206ZM251.633 64.3058V35.3196L262.709 38.1062L251.633 64.3058ZM275.022 40.488L252.705 4.30877L297.435 48.729L275.022 40.488ZM262.637 37.4393L251.657 34.6765V5.26148L262.637 37.4393ZM274.879 41.1549L297.506 49.515L253.253 64.1629L274.879 41.1549ZM299.221 50.3248L358.575 65.6158H253.324L299.221 50.3248ZM250.419 71.4036V137.808L365.435 71.4036H250.419ZM299.436 89.1002L358.289 73.9759L254.182 134.235L299.436 89.1002ZM252.253 133.235L263.447 100.485L274.07 97.9604L252.253 133.235ZM274.213 97.1983L263.447 99.7944L252.538 74.1426L274.213 97.1983ZM251.633 102.724V73.8092L262.709 99.9611L251.633 102.724ZM252.705 133.806L275.022 97.627L297.435 89.386L252.705 133.806ZM251.657 103.439L262.637 100.676L251.657 132.854V103.439ZM297.506 88.6L274.879 96.9601L253.253 73.9521L297.506 88.6ZM358.575 72.5468L299.221 87.8379L253.324 72.5468H358.575ZM245.726 137.808V71.4036H130.686L245.726 137.808ZM137.855 73.9759L196.614 89.1002L242.082 134.235L137.855 73.9759ZM232.746 100.485L243.94 133.235L222.075 97.9604L232.746 100.485ZM232.746 99.7944L221.98 97.1983L243.607 74.1426L232.746 99.7944ZM244.488 73.8092V102.724L233.413 99.9611L244.488 73.8092ZM221.099 97.627L243.416 133.759L198.71 89.386L221.099 97.627ZM233.484 100.676L244.464 103.439V132.854L233.484 100.676ZM221.265 97.0077L198.639 88.6477L242.892 73.9521L221.265 97.0077ZM197.019 87.8855L137.474 72.5945H242.725L197.019 87.8855ZM115.992 147.803V81.3991L0.95166 147.803H115.992ZM66.8794 130.106L8.12082 145.231L112.348 84.9717L66.8794 130.106ZM114.205 85.9721L103.011 118.722L92.3406 121.294L114.205 85.9721ZM92.2453 122.104L103.011 119.508L113.848 145.088L92.2453 122.104ZM114.753 116.411V145.493L103.678 119.198L114.753 116.411ZM113.705 85.4005L91.3641 121.675L68.9753 129.821L113.705 85.4005ZM114.729 115.863L103.749 118.626L114.729 86.3532V115.863ZM68.8801 130.702L91.507 122.342L113.134 145.398L68.8801 130.702ZM7.73974 146.612L67.2843 131.416L112.991 146.612H7.73974ZM120.684 147.803V81.3991L235.7 147.803H120.684ZM169.701 130.106L228.555 145.231L124.447 84.9717L169.701 130.106ZM122.518 85.9721L133.712 118.722L144.335 121.294L122.518 85.9721ZM144.478 122.008L133.712 119.412L122.804 144.993L144.478 122.008ZM121.899 116.411V145.398L132.974 119.198L121.899 116.411ZM122.97 85.4005L145.288 121.58L167.7 129.821L122.97 85.4005ZM121.922 115.768L132.902 118.531L121.922 86.3532V115.768ZM167.772 130.607L145.145 122.247L123.518 145.255L167.772 130.607ZM228.841 146.708L169.487 131.416L123.59 146.708H228.841ZM120.684 218.899V152.495H235.7L120.684 218.899ZM228.555 155.068L169.701 170.192L124.447 215.327L228.555 155.068ZM133.712 181.577L122.518 214.326L144.335 179.052L133.712 181.577ZM133.712 180.886L144.478 178.29L122.804 155.234L133.712 180.886ZM121.899 154.901V183.816L132.974 181.053L121.899 154.901ZM145.288 178.719L122.97 214.898L167.7 170.478L145.288 178.719ZM132.902 181.767L121.922 184.53V213.945L132.902 181.767ZM145.145 178.052L167.772 169.692L123.518 155.044L145.145 178.052ZM169.487 168.93L228.841 153.639H123.59L169.487 168.93ZM115.992 152.495V218.899L0.95166 152.495H115.992ZM66.8794 170.192L8.12082 155.068L112.348 215.327L66.8794 170.192ZM114.205 214.326L103.011 181.577L92.3406 179.052L114.205 214.326ZM92.2453 178.29L103.011 180.886L113.872 155.234L92.2453 178.29ZM114.753 183.816V154.901L103.678 181.053L114.753 183.816ZM113.681 214.85L91.3641 178.719L68.9753 170.478L113.681 214.85ZM114.729 184.53L103.749 181.767L114.729 213.945V184.53ZM68.9039 169.739L91.5308 178.099L113.157 155.044L68.9039 169.739ZM7.73974 153.686L67.2843 168.977L112.991 153.686H7.73974ZM379.932 81.3991V147.803H494.949L379.932 81.3991ZM487.803 145.231L428.949 130.106L383.696 84.9717L487.803 145.231ZM392.961 118.722L381.766 85.9721L403.583 121.294L392.961 118.722ZM392.961 119.412L403.726 122.008L382.052 144.993L392.961 119.412ZM381.147 145.398V116.411L392.222 119.198L381.147 145.398ZM404.536 121.58L382.219 85.4005L426.949 129.821L404.536 121.58ZM392.151 118.531L381.171 115.768V86.3532L392.151 118.531ZM404.393 122.247L427.02 130.607L382.767 145.255L404.393 122.247ZM428.735 131.416L488.089 146.708H382.838L428.735 131.416ZM375.24 147.803V81.3991L260.2 147.803H375.24ZM326.128 130.106L267.369 145.231L371.596 84.9717L326.128 130.106ZM373.454 85.9721L362.259 118.722L351.589 121.294L373.454 85.9721ZM351.494 122.104L362.259 119.508L373.097 145.088L351.494 122.104ZM374.002 116.411V145.493L362.926 119.198L374.002 116.411ZM372.954 85.4005L350.613 121.675L328.224 129.821L372.954 85.4005ZM373.978 115.863L362.998 118.626L373.978 86.3532V115.863ZM328.129 130.702L350.755 122.342L372.382 145.398L328.129 130.702ZM266.988 146.612L326.533 131.416L372.239 146.612H266.988ZM379.932 218.899V152.495H494.949L379.932 218.899ZM487.803 155.068L428.949 170.192L383.696 215.327L487.803 155.068ZM392.961 181.577L381.766 214.326L403.583 179.052L392.961 181.577ZM392.961 180.886L403.726 178.29L382.052 155.234L392.961 180.886ZM381.147 154.901V183.816L392.222 181.053L381.147 154.901ZM404.536 178.719L382.219 214.898L426.949 170.478L404.536 178.719ZM392.151 181.767L381.171 184.53V213.945L392.151 181.767ZM404.393 178.052L427.02 169.692L382.767 155.044L404.393 178.052ZM428.735 168.93L488.089 153.639H382.838L428.735 168.93ZM375.24 152.495V218.899L260.2 152.495H375.24ZM326.128 170.192L267.369 155.068L371.596 215.327L326.128 170.192ZM373.454 214.326L362.259 181.577L351.589 179.052L373.454 214.326ZM351.494 178.29L362.259 180.886L373.12 155.234L351.494 178.29ZM374.002 183.816V154.901L362.926 181.053L374.002 183.816ZM372.93 214.85L350.613 178.719L328.224 170.478L372.93 214.85ZM373.978 184.53L362.998 181.767L373.978 213.945V184.53ZM328.152 169.739L350.779 178.099L372.406 155.044L328.152 169.739ZM266.988 153.686L326.533 168.977L372.239 153.686H266.988ZM639.181 81.3991V147.803H754.197L639.181 81.3991ZM747.052 145.231L688.198 130.106L642.944 84.9717L747.052 145.231ZM652.209 118.722L641.015 85.9721L662.832 121.294L652.209 118.722ZM652.209 119.412L662.975 122.008L641.301 144.993L652.209 119.412ZM640.396 145.398V116.411L651.471 119.198L640.396 145.398ZM663.785 121.58L641.467 85.4005L686.197 129.821L663.785 121.58ZM651.399 118.531L640.419 115.768V86.3532L651.399 118.531ZM663.642 122.247L686.269 130.607L642.015 145.255L663.642 122.247ZM687.984 131.416L747.338 146.708H642.087L687.984 131.416ZM634.489 147.803V81.3991L519.449 147.803H634.489ZM585.376 130.106L526.618 145.231L630.845 84.9717L585.376 130.106ZM632.702 85.9721L621.508 118.722L610.838 121.294L632.702 85.9721ZM610.742 122.104L621.508 119.508L632.345 145.088L610.742 122.104ZM633.25 116.411V145.493L622.175 119.198L633.25 116.411ZM632.202 85.4005L609.861 121.675L587.472 129.821L632.202 85.4005ZM633.226 115.863L622.246 118.626L633.226 86.3532V115.863ZM587.377 130.702L610.004 122.342L631.631 145.398L587.377 130.702ZM526.237 146.612L585.781 131.416L631.488 146.612H526.237ZM639.181 218.899V152.495H754.197L639.181 218.899ZM747.052 155.068L688.198 170.192L642.944 215.327L747.052 155.068ZM652.209 181.577L641.015 214.326L662.832 179.052L652.209 181.577ZM652.209 180.886L662.975 178.29L641.301 155.234L652.209 180.886ZM640.396 154.901V183.816L651.471 181.053L640.396 154.901ZM663.785 178.719L641.467 214.898L686.197 170.478L663.785 178.719ZM651.399 181.767L640.419 184.53V213.945L651.399 181.767ZM663.642 178.052L686.269 169.692L642.015 155.044L663.642 178.052ZM687.984 168.93L747.338 153.639H642.087L687.984 168.93ZM634.489 152.495V218.899L519.449 152.495H634.489ZM585.376 170.192L526.618 155.068L630.845 215.327L585.376 170.192ZM632.702 214.326L621.508 181.577L610.838 179.052L632.702 214.326ZM610.742 178.29L621.508 180.886L632.369 155.234L610.742 178.29ZM633.25 183.816V154.901L622.175 181.053L633.25 183.816ZM632.178 214.85L609.861 178.719L587.472 170.478L632.178 214.85ZM633.226 184.53L622.246 181.767L633.226 213.945V184.53ZM587.401 169.739L610.028 178.099L631.654 155.044L587.401 169.739ZM526.237 153.686L585.781 168.977L631.488 153.686H526.237ZM245.719 228.904V162.5L130.679 228.904H245.719ZM196.607 211.207L137.848 226.331L242.075 166.072L196.607 211.207ZM243.933 167.073L232.738 199.822L222.068 202.395L243.933 167.073ZM221.973 203.204L232.738 200.608L243.575 226.189L221.973 203.204ZM244.48 197.512V226.593L233.405 200.299L244.48 197.512ZM243.432 166.501L221.091 202.776L198.703 210.921L243.432 166.501ZM244.457 196.964L233.477 199.727L244.457 167.454V196.964ZM198.607 211.803L221.234 203.442L242.861 226.498L198.607 211.803ZM137.467 227.713L197.011 212.517L242.718 227.713H137.467ZM250.411 228.904V162.5L365.427 228.904L250.411 228.904ZM299.428 211.207L358.282 226.331L254.174 166.072L299.428 211.207ZM252.245 167.073L263.439 199.822L274.062 202.395L252.245 167.073ZM274.205 203.109L263.439 200.513L252.531 226.093L274.205 203.109ZM251.626 197.512V226.498L262.701 200.299L251.626 197.512ZM252.698 166.501L275.015 202.68L297.427 210.921L252.698 166.501ZM251.65 196.869L262.63 199.632L251.65 167.454V196.869ZM297.499 211.707L274.872 203.347L253.245 226.355L297.499 211.707ZM358.568 227.808L299.214 212.517L253.317 227.808H358.568ZM250.411 300V233.596H365.427L250.411 300ZM358.282 236.168L299.428 251.293L254.174 296.427L358.282 236.168ZM263.439 262.677L252.245 295.427L274.062 260.153L263.439 262.677ZM263.439 261.987L274.205 259.391L252.531 236.335L263.439 261.987ZM251.626 236.001V264.916L262.701 262.153L251.626 236.001ZM275.015 259.819L252.698 295.999L297.427 251.578L275.015 259.819ZM262.63 262.868L251.65 265.631V295.046L262.63 262.868ZM274.872 259.152L297.499 250.792L253.245 236.144L274.872 259.152ZM299.214 250.03L358.568 234.739H253.317L299.214 250.03ZM245.719 233.596V300L130.679 233.596H245.719ZM196.607 251.293L137.848 236.168L242.075 296.427L196.607 251.293ZM243.933 295.427L232.738 262.677L222.068 260.153L243.933 295.427ZM221.973 259.391L232.738 261.987L243.599 236.335L221.973 259.391ZM244.48 264.916V236.001L233.405 262.153L244.48 264.916ZM243.409 295.951L221.091 259.819L198.703 251.578L243.409 295.951ZM244.457 265.631L233.477 262.868L244.457 295.046V265.631ZM198.631 250.84L221.258 259.2L242.885 236.144L198.631 250.84ZM137.467 234.787L197.011 250.078L242.718 234.787H137.467ZM504.975 228.904V162.5L389.935 228.904H504.975ZM455.863 211.207L397.104 226.331L501.331 166.072L455.863 211.207ZM503.189 167.073L491.994 199.822L481.324 202.395L503.189 167.073ZM481.229 203.204L491.994 200.608L502.831 226.189L481.229 203.204ZM503.736 197.512V226.593L492.661 200.299L503.736 197.512ZM502.688 166.501L480.347 202.776L457.958 210.921L502.688 166.501ZM503.712 196.964L492.732 199.727L503.712 167.454V196.964ZM457.863 211.803L480.49 203.442L502.117 226.498L457.863 211.803ZM396.723 227.713L456.267 212.517L501.974 227.713H396.723ZM509.667 228.904V162.5L624.683 228.904L509.667 228.904ZM558.684 211.207L617.538 226.331L513.43 166.072L558.684 211.207ZM511.501 167.073L522.695 199.822L533.318 202.395L511.501 167.073ZM533.461 203.109L522.695 200.513L511.787 226.093L533.461 203.109ZM510.882 197.512V226.498L521.957 200.299L510.882 197.512ZM511.954 166.501L534.271 202.68L556.683 210.921L511.954 166.501ZM510.906 196.869L521.886 199.632L510.906 167.454V196.869ZM556.755 211.707L534.128 203.347L512.501 226.355L556.755 211.707ZM617.824 227.808L558.47 212.517L512.573 227.808H617.824ZM509.667 300V233.596H624.683L509.667 300ZM617.538 236.168L558.684 251.293L513.43 296.427L617.538 236.168ZM522.695 262.677L511.501 295.427L533.318 260.153L522.695 262.677ZM522.695 261.987L533.461 259.391L511.787 236.335L522.695 261.987ZM510.882 236.001V264.916L521.957 262.153L510.882 236.001ZM534.271 259.819L511.954 295.999L556.683 251.578L534.271 259.819ZM521.886 262.868L510.906 265.631V295.046L521.886 262.868ZM534.128 259.152L556.755 250.792L512.501 236.144L534.128 259.152ZM558.47 250.03L617.824 234.739H512.573L558.47 250.03ZM504.975 233.596V300L389.935 233.596H504.975ZM455.863 251.293L397.104 236.168L501.331 296.427L455.863 251.293ZM503.189 295.427L491.994 262.677L481.324 260.153L503.189 295.427ZM481.228 259.391L491.994 261.987L502.855 236.335L481.228 259.391ZM503.736 264.916V236.001L492.661 262.153L503.736 264.916ZM502.665 295.951L480.347 259.819L457.958 251.578L502.665 295.951ZM503.712 265.631L492.732 262.868L503.712 295.046V265.631ZM457.887 250.84L480.514 259.2L502.141 236.144L457.887 250.84ZM396.723 234.787L456.267 250.078L501.974 234.787H396.723ZM504.982 0.307373V66.7114H389.942L504.982 0.307373ZM397.111 64.1391L455.87 49.0148L501.338 3.88005L397.111 64.1391ZM492.002 37.6299L503.196 4.88039L481.331 40.2022L492.002 37.6299ZM492.002 38.4159L481.236 41.012L502.839 63.9962L492.002 38.4159ZM503.744 64.4011V35.3196L492.668 38.1062L503.744 64.4011ZM480.355 40.5833L502.696 4.30877L457.966 48.729L480.355 40.5833ZM492.74 37.5346L503.72 34.7718V5.26148L492.74 37.5346ZM480.498 41.2502L457.871 49.6103L502.124 64.3058L480.498 41.2502ZM456.275 50.3248L396.73 65.5206H501.981L456.275 50.3248ZM509.674 0.307373V66.7114H624.691L509.674 0.307373ZM617.545 64.1391L558.692 49.0148L513.438 3.88005L617.545 64.1391ZM522.703 37.6299L511.508 4.88039L533.326 40.2022L522.703 37.6299ZM522.703 38.3206L533.468 40.9167L511.794 63.9009L522.703 38.3206ZM510.889 64.3058V35.3196L521.964 38.1062L510.889 64.3058ZM534.278 40.488L511.961 4.30877L556.691 48.729L534.278 40.488ZM521.893 37.4393L510.913 34.6765V5.26148L521.893 37.4393ZM534.135 41.1549L556.762 49.515L512.509 64.1629L534.135 41.1549ZM558.477 50.3248L617.831 65.6158H512.58L558.477 50.3248ZM509.674 71.4036V137.808L624.691 71.4036H509.674ZM558.692 89.1002L617.545 73.9759L513.438 134.235L558.692 89.1002ZM511.508 133.235L522.703 100.485L533.326 97.9604L511.508 133.235ZM533.468 97.1983L522.703 99.7944L511.794 74.1426L533.468 97.1983ZM510.889 102.724V73.8092L521.964 99.9611L510.889 102.724ZM511.961 133.806L534.278 97.627L556.691 89.386L511.961 133.806ZM510.913 103.439L521.893 100.676L510.913 132.854V103.439ZM556.762 88.6L534.135 96.9601L512.509 73.9521L556.762 88.6ZM617.831 72.5468L558.477 87.8379L512.58 72.5468H617.831ZM504.982 137.808V71.4036H389.942L504.982 137.808ZM397.111 73.9759L455.87 89.1002L501.338 134.235L397.111 73.9759ZM492.002 100.485L503.196 133.235L481.331 97.9604L492.002 100.485ZM492.002 99.7944L481.236 97.1983L502.862 74.1426L492.002 99.7944ZM503.744 73.8092V102.724L492.668 99.9611L503.744 73.8092ZM480.355 97.627L502.672 133.759L457.966 89.386L480.355 97.627ZM492.74 100.676L503.72 103.439V132.854L492.74 100.676ZM480.521 97.0077L457.894 88.6477L502.148 73.9521L480.521 97.0077ZM456.275 87.8855L396.73 72.5945H501.981L456.275 87.8855ZM764.231 228.904V162.5L649.191 228.904H764.231ZM715.118 211.207L656.36 226.331L760.587 166.072L715.118 211.207ZM762.444 167.073L751.25 199.822L740.58 202.395L762.444 167.073ZM740.484 203.204L751.25 200.608L762.087 226.189L740.484 203.204ZM762.992 197.512V226.593L751.917 200.299L762.992 197.512ZM761.944 166.501L739.603 202.776L717.214 210.921L761.944 166.501ZM762.968 196.964L751.988 199.727L762.968 167.454V196.964ZM717.119 211.803L739.746 203.442L761.373 226.498L717.119 211.803ZM655.979 227.713L715.523 212.517L761.23 227.713H655.979ZM768.923 228.904V162.5L883.939 228.904L768.923 228.904ZM817.94 211.207L876.794 226.331L772.686 166.072L817.94 211.207ZM770.757 167.073L781.951 199.822L792.574 202.395L770.757 167.073ZM792.717 203.109L781.951 200.513L771.043 226.093L792.717 203.109ZM770.138 197.512V226.498L781.213 200.299L770.138 197.512ZM771.209 166.501L793.527 202.68L815.939 210.921L771.209 166.501ZM770.161 196.869L781.142 199.632L770.161 167.454V196.869ZM816.011 211.707L793.384 203.347L771.757 226.355L816.011 211.707ZM877.08 227.808L817.726 212.517L771.829 227.808H877.08ZM768.923 300V233.596H883.939L768.923 300ZM876.794 236.168L817.94 251.293L772.686 296.427L876.794 236.168ZM781.951 262.677L770.757 295.427L792.574 260.153L781.951 262.677ZM781.951 261.987L792.717 259.391L771.043 236.335L781.951 261.987ZM770.138 236.001V264.916L781.213 262.153L770.138 236.001ZM793.527 259.819L771.209 295.999L815.939 251.578L793.527 259.819ZM781.142 262.868L770.161 265.631V295.046L781.142 262.868ZM793.384 259.152L816.011 250.792L771.757 236.144L793.384 259.152ZM817.726 250.03L877.08 234.739H771.829L817.726 250.03ZM764.231 233.596V300L649.191 233.596H764.231ZM715.118 251.293L656.36 236.168L760.587 296.427L715.118 251.293ZM762.444 295.427L751.25 262.677L740.58 260.153L762.444 295.427ZM740.484 259.391L751.25 261.987L762.111 236.335L740.484 259.391ZM762.992 264.916V236.001L751.917 262.153L762.992 264.916ZM761.92 295.951L739.603 259.819L717.214 251.578L761.92 295.951ZM762.968 265.631L751.988 262.868L762.968 295.046V265.631ZM717.143 250.84L739.77 259.2L761.396 236.144L717.143 250.84ZM655.979 234.787L715.523 250.078L761.23 234.787H655.979ZM764.238 0.307373V66.7114H649.198L764.238 0.307373ZM656.367 64.1391L715.126 49.0148L760.594 3.88005L656.367 64.1391ZM751.258 37.6299L762.452 4.88039L740.587 40.2022L751.258 37.6299ZM751.258 38.4159L740.492 41.012L762.095 63.9962L751.258 38.4159ZM763 64.4011V35.3196L751.924 38.1062L763 64.4011ZM739.611 40.5833L761.952 4.30877L717.222 48.729L739.611 40.5833ZM751.996 37.5346L762.976 34.7718V5.26148L751.996 37.5346ZM739.753 41.2502L717.127 49.6103L761.38 64.3058L739.753 41.2502ZM715.531 50.3248L655.986 65.5206H761.237L715.531 50.3248ZM768.93 0.307373V66.7114H883.947L768.93 0.307373ZM876.801 64.1391L817.948 49.0148L772.694 3.88005L876.801 64.1391ZM781.959 37.6299L770.764 4.88039L792.582 40.2022L781.959 37.6299ZM781.959 38.3206L792.724 40.9167L771.05 63.9009L781.959 38.3206ZM770.145 64.3058V35.3196L781.22 38.1062L770.145 64.3058ZM793.534 40.488L771.217 4.30877L815.947 48.729L793.534 40.488ZM781.149 37.4393L770.169 34.6765V5.26148L781.149 37.4393ZM793.391 41.1549L816.018 49.515L771.765 64.1629L793.391 41.1549ZM817.733 50.3248L877.087 65.6158H771.836L817.733 50.3248ZM768.93 71.4036V137.808L883.947 71.4036H768.93ZM817.948 89.1002L876.801 73.9759L772.694 134.235L817.948 89.1002ZM770.764 133.235L781.959 100.485L792.582 97.9604L770.764 133.235ZM792.724 97.1983L781.959 99.7944L771.05 74.1426L792.724 97.1983ZM770.145 102.724V73.8092L781.22 99.9611L770.145 102.724ZM771.217 133.806L793.534 97.627L815.947 89.386L771.217 133.806ZM770.169 103.439L781.149 100.676L770.169 132.854V103.439ZM816.018 88.6L793.391 96.9601L771.765 73.9521L816.018 88.6ZM877.087 72.5468L817.733 87.8379L771.836 72.5468H877.087ZM764.238 137.808V71.4036H649.198L764.238 137.808ZM656.367 73.9759L715.126 89.1002L760.594 134.235L656.367 73.9759ZM751.258 100.485L762.452 133.235L740.587 97.9604L751.258 100.485ZM751.258 99.7944L740.492 97.1983L762.118 74.1426L751.258 99.7944ZM763 73.8092V102.724L751.924 99.9611L763 73.8092ZM739.611 97.627L761.928 133.759L717.222 89.386L739.611 97.627ZM751.996 100.676L762.976 103.439V132.854L751.996 100.676ZM739.777 97.0077L717.15 88.6477L761.404 73.9521L739.777 97.0077ZM715.531 87.8855L655.986 72.5945H761.237L715.531 87.8855Z" fill="white" fill-opacity="0.08"/>
</svg>
