<svg width="434" height="145" viewBox="0 0 434 145" fill="none" xmlns="http://www.w3.org/2000/svg">
<path fill-rule="evenodd" clip-rule="evenodd" d="M-204.426 -155V-88.5959H-319.466L-204.426 -155ZM-312.297 -91.1683L-253.538 -106.293L-208.07 -151.427L-312.297 -91.1683ZM-217.406 -117.677L-206.212 -150.427L-228.077 -115.105L-217.406 -117.677ZM-217.406 -116.891L-228.172 -114.295L-206.569 -91.3112L-217.406 -116.891ZM-205.664 -90.9063V-119.988L-216.74 -117.201L-205.664 -90.9063ZM-229.053 -114.724L-206.712 -150.999L-251.442 -106.578L-229.053 -114.724ZM-216.668 -117.773L-205.688 -120.536V-150.046L-216.668 -117.773ZM-228.91 -114.057L-251.537 -105.697L-207.284 -91.0015L-228.91 -114.057ZM-253.133 -104.983L-312.678 -89.7868H-207.427L-253.133 -104.983ZM-199.734 -155V-88.5959H-84.7173L-199.734 -155ZM-91.8627 -91.1683L-150.716 -106.293L-195.97 -151.427L-91.8627 -91.1683ZM-186.705 -117.677L-197.9 -150.427L-176.082 -115.105L-186.705 -117.677ZM-186.705 -116.987L-175.94 -114.391L-197.614 -91.4064L-186.705 -116.987ZM-198.519 -91.0015V-119.988L-187.444 -117.201L-198.519 -91.0015ZM-175.13 -114.819L-197.447 -150.999L-152.717 -106.578L-175.13 -114.819ZM-187.515 -117.868L-198.495 -120.631V-150.046L-187.515 -117.868ZM-175.273 -114.152L-152.646 -105.792L-196.899 -91.1444L-175.273 -114.152ZM-150.931 -104.983L-91.5768 -89.6916H-196.828L-150.931 -104.983ZM-199.734 -83.9038V-17.4997L-84.7173 -83.9038H-199.734ZM-150.716 -66.2072L-91.8627 -81.3315L-195.97 -21.0724L-150.716 -66.2072ZM-197.9 -22.0728L-186.705 -54.8223L-176.082 -57.3469L-197.9 -22.0728ZM-175.94 -58.1091L-186.705 -55.513L-197.614 -81.1648L-175.94 -58.1091ZM-198.519 -52.5834V-81.4982L-187.444 -55.3462L-198.519 -52.5834ZM-197.447 -21.5011L-175.13 -57.6804L-152.717 -65.9214L-197.447 -21.5011ZM-198.495 -51.8689L-187.515 -54.6317L-198.495 -22.4538V-51.8689ZM-152.646 -66.7073L-175.273 -58.3473L-196.899 -81.3553L-152.646 -66.7073ZM-91.5768 -82.7606L-150.931 -67.4695L-196.828 -82.7606H-91.5768ZM-204.426 -17.4997V-83.9038H-319.466L-204.426 -17.4997ZM-312.297 -81.3315L-253.538 -66.2072L-208.07 -21.0724L-312.297 -81.3315ZM-217.406 -54.8223L-206.212 -22.0728L-228.077 -57.3469L-217.406 -54.8223ZM-217.406 -55.513L-228.172 -58.1091L-206.546 -81.1648L-217.406 -55.513ZM-205.664 -81.4982V-52.5834L-216.74 -55.3462L-205.664 -81.4982ZM-229.053 -57.6804L-206.736 -21.5488L-251.442 -65.9214L-229.053 -57.6804ZM-216.668 -54.6317L-205.688 -51.8689V-22.4538L-216.668 -54.6317ZM-228.887 -58.2997L-251.514 -66.6597L-207.26 -81.3553L-228.887 -58.2997ZM-253.133 -67.4219L-312.678 -82.7129H-207.427L-253.133 -67.4219ZM-334.16 -7.50424V-73.9083L-449.2 -7.50424H-334.16ZM-383.273 -25.2009L-442.031 -10.0766L-337.805 -70.3356L-383.273 -25.2009ZM-335.947 -69.3353L-347.141 -36.5858L-357.811 -34.0135L-335.947 -69.3353ZM-357.907 -33.2037L-347.141 -35.7998L-336.304 -10.2195L-357.907 -33.2037ZM-335.399 -38.8961V-9.81458L-346.474 -36.1094L-335.399 -38.8961ZM-336.447 -69.9069L-358.788 -33.6324L-381.177 -25.4867L-336.447 -69.9069ZM-335.423 -39.4439L-346.403 -36.6811L-335.423 -68.9542V-39.4439ZM-381.272 -24.6054L-358.645 -32.9655L-337.019 -9.90984L-381.272 -24.6054ZM-442.412 -8.69513L-382.868 -23.8909L-337.161 -8.69513H-442.412ZM-329.468 -7.50424V-73.9083L-214.452 -7.50424H-329.468ZM-280.451 -25.2009L-221.597 -10.0766L-325.705 -70.3356L-280.451 -25.2009ZM-327.634 -69.3353L-316.44 -36.5858L-305.817 -34.0135L-327.634 -69.3353ZM-305.674 -33.2989L-316.44 -35.8951L-327.348 -10.3147L-305.674 -33.2989ZM-328.254 -38.8961V-9.90984L-317.178 -36.1094L-328.254 -38.8961ZM-327.182 -69.9069L-304.864 -33.7277L-282.452 -25.4867L-327.182 -69.9069ZM-328.23 -39.5392L-317.25 -36.7763L-328.23 -68.9542V-39.5392ZM-282.38 -24.7007L-305.007 -33.0608L-326.634 -10.0527L-282.38 -24.7007ZM-221.312 -8.59985L-280.666 -23.8909L-326.562 -8.59985H-221.312ZM-329.468 63.5919V-2.81212H-214.452L-329.468 63.5919ZM-221.597 -0.239792L-280.451 14.8845L-325.705 60.0193L-221.597 -0.239792ZM-316.44 26.2694L-327.634 59.0189L-305.817 23.7448L-316.44 26.2694ZM-316.44 25.5787L-305.674 22.9826L-327.348 -0.0730743L-316.44 25.5787ZM-328.254 -0.406525V28.5083L-317.178 25.7454L-328.254 -0.406525ZM-304.864 23.4113L-327.182 59.5906L-282.452 15.1703L-304.864 23.4113ZM-317.25 26.46L-328.23 29.2228V58.6378L-317.25 26.46ZM-305.007 22.7444L-282.38 14.3843L-326.634 -0.263611L-305.007 22.7444ZM-280.666 13.6222L-221.312 -1.66887H-326.562L-280.666 13.6222ZM-334.16 -2.81212V63.5919L-449.2 -2.81212H-334.16ZM-383.273 14.8845L-442.031 -0.239792L-337.805 60.0193L-383.273 14.8845ZM-335.947 59.0189L-347.141 26.2694L-357.811 23.7448L-335.947 59.0189ZM-357.907 22.9826L-347.141 25.5787L-336.28 -0.0730743L-357.907 22.9826ZM-335.399 28.5083V-0.406525L-346.474 25.7454L-335.399 28.5083ZM-336.471 59.5429L-358.788 23.4113L-381.177 15.1703L-336.471 59.5429ZM-335.423 29.2228L-346.403 26.46L-335.423 58.6378V29.2228ZM-381.248 14.432L-358.621 22.792L-336.995 -0.263611L-381.248 14.432ZM-442.412 -1.62123L-382.868 13.6698L-337.161 -1.62123H-442.412ZM-70.2198 -73.9083V-7.50424H44.7965L-70.2198 -73.9083ZM37.6512 -10.0766L-21.2027 -25.2009L-66.4565 -70.3356L37.6512 -10.0766ZM-57.1914 -36.5858L-68.3858 -69.3353L-46.5687 -34.0135L-57.1914 -36.5858ZM-57.1914 -35.8951L-46.4258 -33.2989L-68.1 -10.3147L-57.1914 -35.8951ZM-69.005 -9.90984V-38.8961L-57.9297 -36.1094L-69.005 -9.90984ZM-45.6159 -33.7277L-67.9333 -69.9069L-23.2034 -25.4867L-45.6159 -33.7277ZM-58.0012 -36.7763L-68.9812 -39.5392V-68.9542L-58.0012 -36.7763ZM-45.7589 -33.0608L-23.1319 -24.7007L-67.3854 -10.0527L-45.7589 -33.0608ZM-21.417 -23.8909L37.937 -8.59985H-67.314L-21.417 -23.8909ZM-74.9119 -7.50424V-73.9083L-189.952 -7.50424H-74.9119ZM-124.024 -25.2009L-182.783 -10.0766L-78.5561 -70.3356L-124.024 -25.2009ZM-76.6983 -69.3353L-87.8926 -36.5858L-98.563 -34.0135L-76.6983 -69.3353ZM-98.6583 -33.2037L-87.8926 -35.7998L-77.0555 -10.2195L-98.6583 -33.2037ZM-76.1505 -38.8961V-9.81458L-87.2257 -36.1094L-76.1505 -38.8961ZM-77.1985 -69.9069L-99.5396 -33.6324L-121.928 -25.4867L-77.1985 -69.9069ZM-76.1743 -39.4439L-87.1543 -36.6811L-76.1743 -68.9542V-39.4439ZM-122.024 -24.6054L-99.3966 -32.9655L-77.7701 -9.90984L-122.024 -24.6054ZM-183.164 -8.69513L-123.619 -23.8909L-77.913 -8.69513H-183.164ZM-70.2198 63.5919V-2.81212H44.7965L-70.2198 63.5919ZM37.6512 -0.239792L-21.2027 14.8845L-66.4565 60.0193L37.6512 -0.239792ZM-57.1914 26.2694L-68.3858 59.0189L-46.5687 23.7448L-57.1914 26.2694ZM-57.1914 25.5787L-46.4258 22.9826L-68.1 -0.0730743L-57.1914 25.5787ZM-69.005 -0.406525V28.5083L-57.9297 25.7454L-69.005 -0.406525ZM-45.6159 23.4113L-67.9333 59.5906L-23.2034 15.1703L-45.6159 23.4113ZM-58.0012 26.46L-68.9812 29.2228V58.6378L-58.0012 26.46ZM-45.7589 22.7444L-23.1319 14.3843L-67.3854 -0.263611L-45.7589 22.7444ZM-21.417 13.6222L37.937 -1.66887H-67.314L-21.417 13.6222ZM-74.9119 -2.81212V63.5919L-189.952 -2.81212H-74.9119ZM-124.024 14.8845L-182.783 -0.239792L-78.5561 60.0193L-124.024 14.8845ZM-76.6983 59.0189L-87.8926 26.2694L-98.563 23.7448L-76.6983 59.0189ZM-98.6583 22.9826L-87.8926 25.5787L-77.0317 -0.0730743L-98.6583 22.9826ZM-76.1505 28.5083V-0.406525L-87.2257 25.7454L-76.1505 28.5083ZM-77.2223 59.5429L-99.5396 23.4113L-121.928 15.1703L-77.2223 59.5429ZM-76.1743 29.2228L-87.1543 26.46L-76.1743 58.6378V29.2228ZM-122 14.432L-99.3728 22.792L-77.7462 -0.263611L-122 14.432ZM-183.164 -1.62123L-123.619 13.6698L-77.913 -1.62123H-183.164ZM189.029 -73.9083V-7.50424H304.045L189.029 -73.9083ZM296.9 -10.0766L238.046 -25.2009L192.792 -70.3356L296.9 -10.0766ZM202.057 -36.5858L190.863 -69.3353L212.68 -34.0135L202.057 -36.5858ZM202.057 -35.8951L212.823 -33.2989L191.149 -10.3147L202.057 -35.8951ZM190.243 -9.90984V-38.8961L201.319 -36.1094L190.243 -9.90984ZM213.633 -33.7277L191.315 -69.9069L236.045 -25.4867L213.633 -33.7277ZM201.247 -36.7763L190.267 -39.5392V-68.9542L201.247 -36.7763ZM213.49 -33.0608L236.117 -24.7007L191.863 -10.0527L213.49 -33.0608ZM237.831 -23.8909L297.185 -8.59985H191.935L237.831 -23.8909ZM184.337 -7.50424V-73.9083L69.2966 -7.50424H184.337ZM135.224 -25.2009L76.4658 -10.0766L180.693 -70.3356L135.224 -25.2009ZM182.55 -69.3353L171.356 -36.5858L160.686 -34.0135L182.55 -69.3353ZM160.59 -33.2037L171.356 -35.7998L182.193 -10.2195L160.59 -33.2037ZM183.098 -38.8961V-9.81458L172.023 -36.1094L183.098 -38.8961ZM182.05 -69.9069L159.709 -33.6324L137.32 -25.4867L182.05 -69.9069ZM183.074 -39.4439L172.094 -36.6811L183.074 -68.9542V-39.4439ZM137.225 -24.6054L159.852 -32.9655L181.478 -9.90984L137.225 -24.6054ZM76.0847 -8.69513L135.629 -23.8909L181.336 -8.69513H76.0847ZM189.029 63.5919V-2.81212H304.045L189.029 63.5919ZM296.9 -0.239792L238.046 14.8845L192.792 60.0193L296.9 -0.239792ZM202.057 26.2694L190.863 59.0189L212.68 23.7448L202.057 26.2694ZM202.057 25.5787L212.823 22.9826L191.149 -0.0730743L202.057 25.5787ZM190.243 -0.406525V28.5083L201.319 25.7454L190.243 -0.406525ZM213.633 23.4113L191.315 59.5906L236.045 15.1703L213.633 23.4113ZM201.247 26.46L190.267 29.2228V58.6378L201.247 26.46ZM213.49 22.7444L236.117 14.3843L191.863 -0.263611L213.49 22.7444ZM237.831 13.6222L297.185 -1.66887H191.935L237.831 13.6222ZM184.337 -2.81212V63.5919L69.2966 -2.81212H184.337ZM135.224 14.8845L76.4658 -0.239792L180.693 60.0193L135.224 14.8845ZM182.55 59.0189L171.356 26.2694L160.686 23.7448L182.55 59.0189ZM160.59 22.9826L171.356 25.5787L182.217 -0.0730743L160.59 22.9826ZM183.098 28.5083V-0.406525L172.023 25.7454L183.098 28.5083ZM182.026 59.5429L159.709 23.4113L137.32 15.1703L182.026 59.5429ZM183.074 29.2228L172.094 26.46L183.074 58.6378V29.2228ZM137.249 14.432L159.876 22.792L181.502 -0.263611L137.249 14.432ZM76.0847 -1.62123L135.629 13.6698L181.336 -1.62123H76.0847ZM-199.741 73.5964V7.19229L-84.7247 73.5964H-199.741ZM-150.724 55.8997L-91.8701 71.024L-195.978 10.765L-150.724 55.8997ZM-197.907 11.7653L-186.713 44.5148L-176.09 47.0871L-197.907 11.7653ZM-175.947 47.8017L-186.713 45.2055L-197.621 70.7859L-175.947 47.8017ZM-198.526 42.2045V71.1908L-187.451 44.9912L-198.526 42.2045ZM-197.454 11.1937L-175.137 47.3729L-152.725 55.6139L-197.454 11.1937ZM-198.502 41.5614L-187.522 44.3243L-198.502 12.1464V41.5614ZM-152.653 56.3999L-175.28 48.0398L-196.907 71.0479L-152.653 56.3999ZM-91.5843 72.5007L-150.938 57.2097L-196.835 72.5007H-91.5843ZM-204.433 73.5966V7.19252L-319.473 73.5966H-204.433ZM-253.546 55.8999L-312.304 71.0243L-208.077 10.7652L-253.546 55.8999ZM-206.22 11.7655L-217.414 44.515L-228.084 47.0874L-206.22 11.7655ZM-228.18 47.8972L-217.414 45.301L-206.577 70.8813L-228.18 47.8972ZM-205.672 42.2047V71.2863L-216.747 44.9914L-205.672 42.2047ZM-206.72 11.1939L-229.061 47.4684L-251.45 55.6141L-206.72 11.1939ZM-205.696 41.6569L-216.676 44.4198L-205.696 12.1466V41.6569ZM-251.545 56.4954L-228.918 48.1353L-207.291 71.191L-251.545 56.4954ZM-312.685 72.4057L-253.141 57.2099L-207.434 72.4057H-312.685ZM-199.741 144.693V78.2885H-84.7247L-199.741 144.693ZM-91.8701 80.8608L-150.724 95.9851L-195.978 141.12L-91.8701 80.8608ZM-186.713 107.37L-197.907 140.12L-176.09 104.845L-186.713 107.37ZM-186.713 106.679L-175.947 104.083L-197.621 81.0275L-186.713 106.679ZM-198.526 80.6941V109.609L-187.451 106.846L-198.526 80.6941ZM-175.137 104.512L-197.454 140.691L-152.725 96.2709L-175.137 104.512ZM-187.522 107.561L-198.502 110.323V139.738L-187.522 107.561ZM-175.28 103.845L-152.653 95.485L-196.907 80.837L-175.28 103.845ZM-150.938 94.7228L-91.5843 79.4317H-196.835L-150.938 94.7228ZM-204.433 78.2885V144.693L-319.473 78.2885H-204.433ZM-253.545 95.9851L-312.304 80.8608L-208.077 141.12L-253.545 95.9851ZM-206.219 140.12L-217.414 107.37L-228.084 104.845L-206.219 140.12ZM-228.179 104.083L-217.414 106.679L-206.553 81.0275L-228.179 104.083ZM-205.672 109.609V80.6941L-216.747 106.846L-205.672 109.609ZM-206.743 140.644L-229.061 104.512L-251.449 96.2709L-206.743 140.644ZM-205.695 110.323L-216.675 107.561L-205.695 139.738V110.323ZM-251.521 95.5326L-228.894 103.893L-207.267 80.837L-251.521 95.5326ZM-312.685 79.4794L-253.141 94.7704L-207.434 79.4794H-312.685ZM59.515 73.5964V7.19229L174.531 73.5964H59.515ZM108.532 55.8997L167.386 71.024L63.2782 10.765L108.532 55.8997ZM61.3489 11.7653L72.5433 44.5148L83.166 47.0871L61.3489 11.7653ZM83.309 47.8017L72.5433 45.2055L61.6347 70.7859L83.309 47.8017ZM60.7297 42.2045V71.1908L71.8049 44.9912L60.7297 42.2045ZM61.8015 11.1937L84.1188 47.3729L106.531 55.6139L61.8015 11.1937ZM60.7535 41.5614L71.7335 44.3243L60.7535 12.1464V41.5614ZM106.603 56.3999L83.9758 48.0398L62.3493 71.0479L106.603 56.3999ZM167.672 72.5007L108.318 57.2097L62.4207 72.5007H167.672ZM54.8228 73.5966V7.19252L-60.2173 73.5966H54.8228ZM5.71042 55.8999L-53.0481 71.0243L51.1786 10.7652L5.71042 55.8999ZM53.0364 11.7655L41.842 44.515L31.1717 47.0874L53.0364 11.7655ZM31.0764 47.8972L41.842 45.301L52.6791 70.8813L31.0764 47.8972ZM53.5842 42.2047V71.2863L42.5089 44.9914L53.5842 42.2047ZM52.5362 11.1939L30.1951 47.4684L7.8064 55.6141L52.5362 11.1939ZM53.5604 41.6569L42.5804 44.4198L53.5604 12.1466V41.6569ZM7.71112 56.4954L30.338 48.1353L51.9646 71.191L7.71112 56.4954ZM-53.4292 72.4057L6.11533 57.2099L51.8217 72.4057H-53.4292ZM59.515 144.693V78.2885H174.531L59.515 144.693ZM167.386 80.8608L108.532 95.9851L63.2782 141.12L167.386 80.8608ZM72.5433 107.37L61.3489 140.12L83.166 104.845L72.5433 107.37ZM72.5433 106.679L83.309 104.083L61.6347 81.0275L72.5433 106.679ZM60.7297 80.6941V109.609L71.8049 106.846L60.7297 80.6941ZM84.1188 104.512L61.8015 140.691L106.531 96.2709L84.1188 104.512ZM71.7335 107.561L60.7535 110.323V139.738L71.7335 107.561ZM83.9758 103.845L106.603 95.485L62.3493 80.837L83.9758 103.845ZM108.318 94.7228L167.672 79.4317H62.4207L108.318 94.7228ZM54.8228 78.2885V144.693L-60.2172 78.2885H54.8228ZM5.71048 95.9851L-53.0481 80.8608L51.1787 141.12L5.71048 95.9851ZM53.0365 140.12L41.8421 107.37L31.1717 104.845L53.0365 140.12ZM31.0764 104.083L41.8421 106.679L52.703 81.0275L31.0764 104.083ZM53.5843 109.609V80.6941L42.509 106.846L53.5843 109.609ZM52.5125 140.644L30.1952 104.512L7.80646 96.2709L52.5125 140.644ZM53.5605 110.323L42.5804 107.561L53.5605 139.738V110.323ZM7.73499 95.5326L30.3619 103.893L51.9885 80.837L7.73499 95.5326ZM-53.4291 79.4794L6.11539 94.7704L51.8218 79.4794H-53.4291ZM54.8302 -155V-88.5959H-60.2098L54.8302 -155ZM-53.0407 -91.1683L5.71786 -106.293L51.1861 -151.427L-53.0407 -91.1683ZM41.8495 -117.677L53.0439 -150.427L31.1791 -115.105L41.8495 -117.677ZM41.8495 -116.891L31.0839 -114.295L52.6866 -91.3112L41.8495 -116.891ZM53.5917 -90.9063V-119.988L42.5164 -117.201L53.5917 -90.9063ZM30.2026 -114.724L52.5437 -150.999L7.81384 -106.578L30.2026 -114.724ZM42.5878 -117.773L53.5678 -120.536V-150.046L42.5878 -117.773ZM30.3455 -114.057L7.71857 -105.697L51.9721 -91.0015L30.3455 -114.057ZM6.12277 -104.983L-53.4218 -89.7868H51.8292L6.12277 -104.983ZM59.5224 -155V-88.5959H174.539L59.5224 -155ZM167.393 -91.1683L108.539 -106.293L63.2856 -151.427L167.393 -91.1683ZM72.5507 -117.677L61.3564 -150.427L83.1735 -115.105L72.5507 -117.677ZM72.5507 -116.987L83.3163 -114.391L61.6422 -91.4064L72.5507 -116.987ZM60.7371 -91.0015V-119.988L71.8124 -117.201L60.7371 -91.0015ZM84.1262 -114.819L61.8089 -150.999L106.539 -106.578L84.1262 -114.819ZM71.7409 -117.868L60.7609 -120.631V-150.046L71.7409 -117.868ZM83.9833 -114.152L106.61 -105.792L62.3567 -91.1444L83.9833 -114.152ZM108.325 -104.983L167.679 -89.6916H62.4281L108.325 -104.983ZM59.5224 -83.9038V-17.4997L174.539 -83.9038H59.5224ZM108.539 -66.2072L167.393 -81.3315L63.2856 -21.0724L108.539 -66.2072ZM61.3564 -22.0728L72.5507 -54.8223L83.1735 -57.3469L61.3564 -22.0728ZM83.3163 -58.1091L72.5507 -55.513L61.6422 -81.1648L83.3163 -58.1091ZM60.7371 -52.5834V-81.4982L71.8124 -55.3462L60.7371 -52.5834ZM61.8089 -21.5011L84.1262 -57.6804L106.539 -65.9214L61.8089 -21.5011ZM60.7609 -51.8689L71.7409 -54.6317L60.7609 -22.4538V-51.8689ZM106.61 -66.7073L83.9833 -58.3473L62.3567 -81.3553L106.61 -66.7073ZM167.679 -82.7606L108.325 -67.4695L62.4281 -82.7606H167.679ZM54.8302 -17.4997V-83.9038H-60.2098L54.8302 -17.4997ZM-53.0407 -81.3315L5.71786 -66.2072L51.1861 -21.0724L-53.0407 -81.3315ZM41.8495 -54.8223L53.0439 -22.0728L31.1791 -57.3469L41.8495 -54.8223ZM41.8495 -55.513L31.0838 -58.1091L52.7104 -81.1648L41.8495 -55.513ZM53.5917 -81.4982V-52.5834L42.5164 -55.3462L53.5917 -81.4982ZM30.2026 -57.6804L52.5199 -21.5488L7.81384 -65.9214L30.2026 -57.6804ZM42.5878 -54.6317L53.5678 -51.8689V-22.4538L42.5878 -54.6317ZM30.3693 -58.2997L7.74237 -66.6597L51.9959 -81.3553L30.3693 -58.2997ZM6.12277 -67.4219L-53.4218 -82.7129H51.8292L6.12277 -67.4219ZM318.771 73.5964V7.19229L433.787 73.5964H318.771ZM367.788 55.8997L426.642 71.024L322.534 10.765L367.788 55.8997ZM320.605 11.7653L331.799 44.5148L342.422 47.0871L320.605 11.7653ZM342.565 47.8017L331.799 45.2055L320.891 70.7859L342.565 47.8017ZM319.986 42.2045V71.1908L331.061 44.9912L319.986 42.2045ZM321.057 11.1937L343.375 47.3729L365.787 55.6139L321.057 11.1937ZM320.009 41.5614L330.99 44.3243L320.009 12.1464V41.5614ZM365.859 56.3999L343.232 48.0398L321.605 71.0479L365.859 56.3999ZM426.928 72.5007L367.574 57.2097L321.677 72.5007H426.928ZM314.079 73.5966V7.19252L199.039 73.5966H314.079ZM264.966 55.8999L206.208 71.0243L310.435 10.7652L264.966 55.8999ZM312.292 11.7655L301.098 44.515L290.428 47.0874L312.292 11.7655ZM290.332 47.8972L301.098 45.301L311.935 70.8813L290.332 47.8972ZM312.84 42.2047V71.2863L301.765 44.9914L312.84 42.2047ZM311.792 11.1939L289.451 47.4684L267.062 55.6141L311.792 11.1939ZM312.816 41.6569L301.836 44.4198L312.816 12.1466V41.6569ZM266.967 56.4954L289.594 48.1353L311.221 71.191L266.967 56.4954ZM205.827 72.4057L265.371 57.2099L311.078 72.4057H205.827ZM318.771 144.693V78.2885H433.787L318.771 144.693ZM426.642 80.8608L367.788 95.9851L322.534 141.12L426.642 80.8608ZM331.799 107.37L320.605 140.12L342.422 104.845L331.799 107.37ZM331.799 106.679L342.565 104.083L320.891 81.0275L331.799 106.679ZM319.986 80.6941V109.609L331.061 106.846L319.986 80.6941ZM343.375 104.512L321.057 140.691L365.787 96.2709L343.375 104.512ZM330.99 107.561L320.009 110.323V139.738L330.99 107.561ZM343.232 103.845L365.859 95.485L321.605 80.837L343.232 103.845ZM367.574 94.7228L426.928 79.4317H321.677L367.574 94.7228ZM314.079 78.2885V144.693L199.039 78.2885H314.079ZM264.966 95.9851L206.208 80.8608L310.435 141.12L264.966 95.9851ZM312.292 140.12L301.098 107.37L290.428 104.845L312.292 140.12ZM290.332 104.083L301.098 106.679L311.959 81.0275L290.332 104.083ZM312.84 109.609V80.6941L301.765 106.846L312.84 109.609ZM311.768 140.644L289.451 104.512L267.062 96.2709L311.768 140.644ZM312.816 110.323L301.836 107.561L312.816 139.738V110.323ZM266.991 95.5326L289.618 103.893L311.244 80.837L266.991 95.5326ZM205.827 79.4794L265.371 94.7704L311.078 79.4794H205.827ZM314.086 -155V-88.5959H199.046L314.086 -155ZM206.215 -91.1683L264.974 -106.293L310.442 -151.427L206.215 -91.1683ZM301.105 -117.677L312.3 -150.427L290.435 -115.105L301.105 -117.677ZM301.105 -116.891L290.34 -114.295L311.943 -91.3112L301.105 -116.891ZM312.848 -90.9063V-119.988L301.772 -117.201L312.848 -90.9063ZM289.458 -114.724L311.8 -150.999L267.07 -106.578L289.458 -114.724ZM301.844 -117.773L312.824 -120.536V-150.046L301.844 -117.773ZM289.601 -114.057L266.974 -105.697L311.228 -91.0015L289.601 -114.057ZM265.379 -104.983L205.834 -89.7868H311.085L265.379 -104.983ZM318.778 -155V-88.5959H433.795L318.778 -155ZM426.649 -91.1683L367.795 -106.293L322.542 -151.427L426.649 -91.1683ZM331.807 -117.677L320.612 -150.427L342.429 -115.105L331.807 -117.677ZM331.807 -116.987L342.572 -114.391L320.898 -91.4064L331.807 -116.987ZM319.993 -91.0015V-119.988L331.068 -117.201L319.993 -91.0015ZM343.382 -114.819L321.065 -150.999L365.795 -106.578L343.382 -114.819ZM330.997 -117.868L320.017 -120.631V-150.046L330.997 -117.868ZM343.239 -114.152L365.866 -105.792L321.613 -91.1444L343.239 -114.152ZM367.581 -104.983L426.935 -89.6916H321.684L367.581 -104.983ZM318.778 -83.9038V-17.4997L433.795 -83.9038H318.778ZM367.795 -66.2072L426.649 -81.3315L322.542 -21.0724L367.795 -66.2072ZM320.612 -22.0728L331.807 -54.8223L342.429 -57.3469L320.612 -22.0728ZM342.572 -58.1091L331.807 -55.513L320.898 -81.1648L342.572 -58.1091ZM319.993 -52.5834V-81.4982L331.068 -55.3462L319.993 -52.5834ZM321.065 -21.5011L343.382 -57.6804L365.795 -65.9214L321.065 -21.5011ZM320.017 -51.8689L330.997 -54.6317L320.017 -22.4538V-51.8689ZM365.866 -66.7073L343.239 -58.3473L321.613 -81.3553L365.866 -66.7073ZM426.935 -82.7606L367.581 -67.4695L321.684 -82.7606H426.935ZM314.086 -17.4997V-83.9038H199.046L314.086 -17.4997ZM206.215 -81.3315L264.974 -66.2072L310.442 -21.0724L206.215 -81.3315ZM301.105 -54.8223L312.3 -22.0728L290.435 -57.3469L301.105 -54.8223ZM301.105 -55.513L290.34 -58.1091L311.966 -81.1648L301.105 -55.513ZM312.848 -81.4982V-52.5834L301.772 -55.3462L312.848 -81.4982ZM289.458 -57.6804L311.776 -21.5488L267.07 -65.9214L289.458 -57.6804ZM301.844 -54.6317L312.824 -51.8689V-22.4538L301.844 -54.6317ZM289.625 -58.2997L266.998 -66.6597L311.252 -81.3553L289.625 -58.2997ZM265.379 -67.4219L205.834 -82.7129H311.085L265.379 -67.4219Z" fill="white" fill-opacity="0.08"/>
</svg>
