<svg width="96" height="56" viewBox="0 0 96 56" fill="none" xmlns="http://www.w3.org/2000/svg">
<path id="Union" fill-rule="evenodd" clip-rule="evenodd" d="M46.8526 27.0445V0L0 27.0445H46.8526ZM26.8505 19.8372L2.9198 25.9969L45.3684 1.45505L26.8505 19.8372ZM46.1251 1.86246L41.5659 15.2004L37.2202 16.2481L46.1251 1.86246ZM37.1814 16.5779L41.5659 15.5205L45.9796 25.9387L37.1814 16.5779ZM46.3482 14.2595V26.1036L41.8375 15.3944L46.3482 14.2595ZM45.9214 1.62966L36.8224 16.4033L27.7041 19.7208L45.9214 1.62966ZM46.3385 14.0364L41.8666 15.1616L46.3385 2.01767V14.0364ZM27.6653 20.0797L36.8806 16.6749L45.6885 26.0648L27.6653 20.0797ZM2.76459 26.5595L27.0154 20.3707L45.6303 26.5595H2.76459ZM48.7636 27.0445V0L95.6065 27.0445H48.7636ZM68.7269 19.8372L92.6964 25.9969L50.2962 1.45505L68.7269 19.8372ZM49.5105 1.86246L54.0697 15.2004L58.396 16.2481L49.5105 1.86246ZM58.4542 16.5391L54.0697 15.4817L49.6269 25.8999L58.4542 16.5391ZM49.2583 14.2595V26.0648L53.769 15.3944L49.2583 14.2595ZM49.6948 1.62966L58.784 16.3645L67.912 19.7208L49.6948 1.62966ZM49.268 13.9976L53.7399 15.1228L49.268 2.01767V13.9976ZM67.9411 20.0409L58.7258 16.6361L49.9179 26.0066L67.9411 20.0409ZM92.8128 26.5983L68.6396 20.3707L49.947 26.5983H92.8128ZM48.7636 56V28.9555H95.6065L48.7636 56ZM92.6964 30.0031L68.7269 36.1628L50.2962 54.545L92.6964 30.0031ZM54.0697 40.7996L49.5105 54.1376L58.396 39.7714L54.0697 40.7996ZM54.0697 40.5183L58.4542 39.461L49.6269 30.071L54.0697 40.5183ZM49.2583 29.9352V41.7114L53.769 40.5862L49.2583 29.9352ZM58.784 39.6356L49.6948 54.3704L67.912 36.2792L58.784 39.6356ZM53.7399 40.8772L49.268 42.0024V53.9823L53.7399 40.8772ZM58.7258 39.3639L67.9411 35.9591L49.9179 29.9934L58.7258 39.3639ZM68.6396 35.6487L92.8128 29.4211H49.947L68.6396 35.6487ZM46.8526 28.9555V56L0 28.9555H46.8526ZM26.8505 36.1628L2.9198 30.0031L45.3684 54.545L26.8505 36.1628ZM46.1251 54.1376L41.5659 40.7996L37.2202 39.7714L46.1251 54.1376ZM37.1814 39.461L41.5659 40.5183L45.9893 30.071L37.1814 39.461ZM46.3482 41.7114V29.9352L41.8375 40.5862L46.3482 41.7114ZM45.9117 54.351L36.8224 39.6356L27.7041 36.2792L45.9117 54.351ZM46.3385 42.0024L41.8666 40.8772L46.3385 53.9823V42.0024ZM27.675 35.9785L36.8904 39.3833L45.6983 29.9934L27.675 35.9785ZM2.76459 29.4405L27.0154 35.6681L45.6303 29.4405H2.76459Z" fill="#402020"/>
</svg>
