<svg width="554" height="205" viewBox="0 0 554 205" fill="none" xmlns="http://www.w3.org/2000/svg">
<path fill-rule="evenodd" clip-rule="evenodd" d="M-84.4257 0V66.4041H-199.466L-84.4257 0ZM-192.297 63.8317L-133.538 48.7074L-88.0699 3.57267L-192.297 63.8317ZM-97.4064 37.3225L-86.2121 4.57302L-108.077 39.8948L-97.4064 37.3225ZM-97.4064 38.1085L-108.172 40.7046L-86.5693 63.6888L-97.4064 38.1085ZM-85.6643 64.0937V35.0122L-96.7395 37.7989L-85.6643 64.0937ZM-109.053 40.2759L-86.7122 4.00139L-131.442 48.4216L-109.053 40.2759ZM-96.6681 37.2272L-85.6881 34.4644V4.95411L-96.6681 37.2272ZM-108.91 40.9428L-131.537 49.3029L-87.2839 63.9985L-108.91 40.9428ZM-133.133 50.0174L-192.678 65.2132H-87.4268L-133.133 50.0174ZM-79.7336 0V66.4041H35.2827L-79.7336 0ZM28.1373 63.8317L-30.7165 48.7074L-75.9703 3.57267L28.1373 63.8317ZM-66.7052 37.3225L-77.8996 4.57302L-56.0825 39.8948L-66.7052 37.3225ZM-66.7052 38.0132L-55.9395 40.6094L-77.6138 63.5936L-66.7052 38.0132ZM-78.5188 63.9985V35.0122L-67.4435 37.7989L-78.5188 63.9985ZM-55.1298 40.1807L-77.4471 4.00139L-32.7172 48.4216L-55.1298 40.1807ZM-67.515 37.132L-78.495 34.3691V4.95411L-67.515 37.132ZM-55.2726 40.8476L-32.6457 49.2076L-76.8992 63.8556L-55.2726 40.8476ZM-30.9308 50.0174L28.4232 65.3084H-76.8278L-30.9308 50.0174ZM-79.7336 71.0962V137.5L35.2827 71.0962H-79.7336ZM-30.7165 88.7928L28.1373 73.6685L-75.9703 133.928L-30.7165 88.7928ZM-77.8996 132.927L-66.7052 100.178L-56.0825 97.6531L-77.8996 132.927ZM-55.9395 96.8909L-66.7052 99.487L-77.6138 73.8352L-55.9395 96.8909ZM-78.5188 102.417V73.5018L-67.4435 99.6538L-78.5188 102.417ZM-77.4471 133.499L-55.1298 97.3196L-32.7172 89.0786L-77.4471 133.499ZM-78.495 103.131L-67.515 100.368L-78.495 132.546V103.131ZM-32.6457 88.2927L-55.2726 96.6527L-76.8992 73.6447L-32.6457 88.2927ZM28.4232 72.2394L-30.9308 87.5305L-76.8278 72.2394H28.4232ZM-84.4258 137.5V71.0962H-199.466L-84.4258 137.5ZM-192.297 73.6685L-133.538 88.7928L-88.0699 133.928L-192.297 73.6685ZM-97.4064 100.178L-86.2121 132.927L-108.077 97.6531L-97.4064 100.178ZM-97.4064 99.487L-108.172 96.8909L-86.5455 73.8352L-97.4064 99.487ZM-85.6643 73.5018V102.417L-96.7395 99.6538L-85.6643 73.5018ZM-109.053 97.3196L-86.7361 133.451L-131.442 89.0786L-109.053 97.3196ZM-96.6681 100.368L-85.6881 103.131V132.546L-96.6681 100.368ZM-108.887 96.7003L-131.514 88.3403L-87.2601 73.6447L-108.887 96.7003ZM-133.133 87.5781L-192.678 72.2871H-87.4268L-133.133 87.5781ZM-214.16 147.496V81.0917L-329.2 147.496H-214.16ZM-263.273 129.799L-322.031 144.923L-217.805 84.6644L-263.273 129.799ZM-215.947 85.6647L-227.141 118.414L-237.811 120.987L-215.947 85.6647ZM-237.907 121.796L-227.141 119.2L-216.304 144.781L-237.907 121.796ZM-215.399 116.104V145.185L-226.474 118.891L-215.399 116.104ZM-216.447 85.0931L-238.788 121.368L-261.177 129.513L-216.447 85.0931ZM-215.423 115.556L-226.403 118.319L-215.423 86.0458V115.556ZM-261.272 130.395L-238.645 122.035L-217.019 145.09L-261.272 130.395ZM-322.412 146.305L-262.868 131.109L-217.161 146.305H-322.412ZM-209.468 147.496V81.0917L-94.452 147.496H-209.468ZM-160.451 129.799L-101.597 144.923L-205.705 84.6644L-160.451 129.799ZM-207.634 85.6647L-196.44 118.414L-185.817 120.987L-207.634 85.6647ZM-185.674 121.701L-196.44 119.105L-207.348 144.685L-185.674 121.701ZM-208.254 116.104V145.09L-197.178 118.891L-208.254 116.104ZM-207.182 85.0931L-184.864 121.272L-162.452 129.513L-207.182 85.0931ZM-208.23 115.461L-197.25 118.224L-208.23 86.0458V115.461ZM-162.38 130.299L-185.007 121.939L-206.634 144.947L-162.38 130.299ZM-101.312 146.4L-160.666 131.109L-206.562 146.4H-101.312ZM-209.468 218.592V152.188H-94.452L-209.468 218.592ZM-101.597 154.76L-160.451 169.885L-205.705 215.019L-101.597 154.76ZM-196.44 181.269L-207.634 214.019L-185.817 178.745L-196.44 181.269ZM-196.44 180.579L-185.674 177.983L-207.348 154.927L-196.44 180.579ZM-208.254 154.593V183.508L-197.178 180.745L-208.254 154.593ZM-184.864 178.411L-207.182 214.591L-162.452 170.17L-184.864 178.411ZM-197.25 181.46L-208.23 184.223V213.638L-197.25 181.46ZM-185.007 177.744L-162.38 169.384L-206.634 154.736L-185.007 177.744ZM-160.666 168.622L-101.312 153.331H-206.562L-160.666 168.622ZM-214.16 152.188V218.592L-329.2 152.188H-214.16ZM-263.273 169.885L-322.031 154.76L-217.805 215.019L-263.273 169.885ZM-215.947 214.019L-227.141 181.269L-237.811 178.745L-215.947 214.019ZM-237.907 177.983L-227.141 180.579L-216.28 154.927L-237.907 177.983ZM-215.399 183.508V154.593L-226.474 180.745L-215.399 183.508ZM-216.471 214.543L-238.788 178.411L-261.177 170.17L-216.471 214.543ZM-215.423 184.223L-226.403 181.46L-215.423 213.638V184.223ZM-261.248 169.432L-238.621 177.792L-216.995 154.736L-261.248 169.432ZM-322.412 153.379L-262.868 168.67L-217.161 153.379H-322.412ZM49.7802 81.0917V147.496H164.796L49.7802 81.0917ZM157.651 144.923L98.7973 129.799L53.5435 84.6644L157.651 144.923ZM62.8086 118.414L51.6142 85.6647L73.4313 120.987L62.8086 118.414ZM62.8086 119.105L73.5742 121.701L51.9 144.685L62.8086 119.105ZM50.995 145.09V116.104L62.0703 118.891L50.995 145.09ZM74.3841 121.272L52.0667 85.0931L96.7966 129.513L74.3841 121.272ZM61.9988 118.224L51.0188 115.461V86.0458L61.9988 118.224ZM74.2411 121.939L96.8681 130.299L52.6146 144.947L74.2411 121.939ZM98.583 131.109L157.937 146.4H52.686L98.583 131.109ZM45.0881 147.496V81.0917L-69.952 147.496H45.0881ZM-4.02426 129.799L-62.7828 144.923L41.4439 84.6644L-4.02426 129.799ZM43.3017 85.6647L32.1074 118.414L21.437 120.987L43.3017 85.6647ZM21.3417 121.796L32.1074 119.2L42.9445 144.781L21.3417 121.796ZM43.8495 116.104V145.185L32.7743 118.891L43.8495 116.104ZM42.8015 85.0931L20.4604 121.368L-1.92828 129.513L42.8015 85.0931ZM43.8257 115.556L32.8457 118.319L43.8257 86.0458V115.556ZM-2.02356 130.395L20.6034 122.035L42.2299 145.09L-2.02356 130.395ZM-63.1639 146.305L-3.61935 131.109L42.087 146.305H-63.1639ZM49.7802 218.592V152.188H164.796L49.7802 218.592ZM157.651 154.76L98.7973 169.885L53.5435 215.019L157.651 154.76ZM62.8086 181.269L51.6142 214.019L73.4313 178.745L62.8086 181.269ZM62.8086 180.579L73.5742 177.983L51.9 154.927L62.8086 180.579ZM50.995 154.593V183.508L62.0703 180.745L50.995 154.593ZM74.3841 178.411L52.0667 214.591L96.7966 170.17L74.3841 178.411ZM61.9988 181.46L51.0188 184.223V213.638L61.9988 181.46ZM74.2411 177.744L96.8681 169.384L52.6146 154.736L74.2411 177.744ZM98.583 168.622L157.937 153.331H52.686L98.583 168.622ZM45.0881 152.188V218.592L-69.952 152.188H45.0881ZM-4.02426 169.885L-62.7828 154.76L41.4439 215.019L-4.02426 169.885ZM43.3017 214.019L32.1074 181.269L21.437 178.745L43.3017 214.019ZM21.3417 177.983L32.1074 180.579L42.9683 154.927L21.3417 177.983ZM43.8495 183.508V154.593L32.7743 180.745L43.8495 183.508ZM42.7777 214.543L20.4604 178.411L-1.92828 170.17L42.7777 214.543ZM43.8257 184.223L32.8457 181.46L43.8257 213.638V184.223ZM-1.99976 169.432L20.6272 177.792L42.2538 154.736L-1.99976 169.432ZM-63.1639 153.379L-3.61935 168.67L42.087 153.379H-63.1639ZM309.029 81.0917V147.496H424.045L309.029 81.0917ZM416.9 144.923L358.046 129.799L312.792 84.6644L416.9 144.923ZM322.057 118.414L310.863 85.6647L332.68 120.987L322.057 118.414ZM322.057 119.105L332.823 121.701L311.149 144.685L322.057 119.105ZM310.243 145.09V116.104L321.319 118.891L310.243 145.09ZM333.633 121.272L311.315 85.0931L356.045 129.513L333.633 121.272ZM321.247 118.224L310.267 115.461V86.0458L321.247 118.224ZM333.49 121.939L356.117 130.299L311.863 144.947L333.49 121.939ZM357.831 131.109L417.185 146.4H311.935L357.831 131.109ZM304.337 147.496V81.0917L189.297 147.496H304.337ZM255.224 129.799L196.466 144.923L300.693 84.6644L255.224 129.799ZM302.55 85.6647L291.356 118.414L280.686 120.987L302.55 85.6647ZM280.59 121.796L291.356 119.2L302.193 144.781L280.59 121.796ZM303.098 116.104V145.185L292.023 118.891L303.098 116.104ZM302.05 85.0931L279.709 121.368L257.32 129.513L302.05 85.0931ZM303.074 115.556L292.094 118.319L303.074 86.0458V115.556ZM257.225 130.395L279.852 122.035L301.478 145.09L257.225 130.395ZM196.085 146.305L255.629 131.109L301.336 146.305H196.085ZM309.029 218.592V152.188H424.045L309.029 218.592ZM416.9 154.76L358.046 169.885L312.792 215.019L416.9 154.76ZM322.057 181.269L310.863 214.019L332.68 178.745L322.057 181.269ZM322.057 180.579L332.823 177.983L311.149 154.927L322.057 180.579ZM310.243 154.593V183.508L321.319 180.745L310.243 154.593ZM333.633 178.411L311.315 214.591L356.045 170.17L333.633 178.411ZM321.247 181.46L310.267 184.223V213.638L321.247 181.46ZM333.49 177.744L356.117 169.384L311.863 154.736L333.49 177.744ZM357.831 168.622L417.185 153.331H311.935L357.831 168.622ZM304.337 152.188V218.592L189.297 152.188H304.337ZM255.224 169.885L196.466 154.76L300.693 215.019L255.224 169.885ZM302.55 214.019L291.356 181.269L280.686 178.745L302.55 214.019ZM280.59 177.983L291.356 180.579L302.217 154.927L280.59 177.983ZM303.098 183.508V154.593L292.023 180.745L303.098 183.508ZM302.026 214.543L279.709 178.411L257.32 170.17L302.026 214.543ZM303.074 184.223L292.094 181.46L303.074 213.638V184.223ZM257.249 169.432L279.876 177.792L301.502 154.736L257.249 169.432ZM196.085 153.379L255.629 168.67L301.336 153.379H196.085ZM-79.741 228.596V162.192L35.2753 228.596H-79.741ZM-30.7239 210.9L28.1299 226.024L-75.9778 165.765L-30.7239 210.9ZM-77.907 166.765L-66.7126 199.515L-56.0899 202.087L-77.907 166.765ZM-55.947 202.802L-66.7126 200.206L-77.6212 225.786L-55.947 202.802ZM-78.5263 197.204V226.191L-67.451 199.991L-78.5263 197.204ZM-77.4545 166.194L-55.1372 202.373L-32.7246 210.614L-77.4545 166.194ZM-78.5024 196.561L-67.5224 199.324L-78.5024 167.146V196.561ZM-32.6531 211.4L-55.2801 203.04L-76.9066 226.048L-32.6531 211.4ZM28.4157 227.501L-30.9383 212.21L-76.8352 227.501H28.4157ZM-84.4332 228.597V162.193L-199.473 228.597H-84.4332ZM-133.546 210.9L-192.304 226.024L-88.0773 165.765L-133.546 210.9ZM-86.2195 166.766L-97.4139 199.515L-108.084 202.087L-86.2195 166.766ZM-108.18 202.897L-97.4139 200.301L-86.5768 225.881L-108.18 202.897ZM-85.6717 197.205V226.286L-96.747 199.991L-85.6717 197.205ZM-86.7197 166.194L-109.061 202.468L-131.45 210.614L-86.7197 166.194ZM-85.6955 196.657L-96.6755 199.42L-85.6955 167.147V196.657ZM-131.545 211.495L-108.918 203.135L-87.2913 226.191L-131.545 211.495ZM-192.685 227.406L-133.141 212.21L-87.4342 227.406H-192.685ZM-79.741 299.693V233.288H35.2753L-79.741 299.693ZM28.1299 235.861L-30.7239 250.985L-75.9778 296.12L28.1299 235.861ZM-66.7126 262.37L-77.907 295.12L-56.0899 259.845L-66.7126 262.37ZM-66.7126 261.679L-55.947 259.083L-77.6212 236.028L-66.7126 261.679ZM-78.5263 235.694V264.609L-67.451 261.846L-78.5263 235.694ZM-55.1372 259.512L-77.4545 295.691L-32.7246 251.271L-55.1372 259.512ZM-67.5224 262.561L-78.5024 265.323V294.738L-67.5224 262.561ZM-55.2801 258.845L-32.6531 250.485L-76.9066 235.837L-55.2801 258.845ZM-30.9383 249.723L28.4157 234.432H-76.8352L-30.9383 249.723ZM-84.4331 233.288V299.693L-199.473 233.288H-84.4331ZM-133.545 250.985L-192.304 235.861L-88.0773 296.12L-133.545 250.985ZM-86.2195 295.12L-97.4138 262.37L-108.084 259.845L-86.2195 295.12ZM-108.179 259.083L-97.4138 261.679L-86.5529 236.028L-108.179 259.083ZM-85.6717 264.609V235.694L-96.7469 261.846L-85.6717 264.609ZM-86.7434 295.644L-109.061 259.512L-131.449 251.271L-86.7434 295.644ZM-85.6955 265.323L-96.6755 262.561L-85.6955 294.738V265.323ZM-131.521 250.533L-108.894 258.893L-87.2674 235.837L-131.521 250.533ZM-192.685 234.479L-133.141 249.77L-87.4342 234.479H-192.685ZM179.515 228.596V162.192L294.531 228.596H179.515ZM228.532 210.9L287.386 226.024L183.278 165.765L228.532 210.9ZM181.349 166.765L192.543 199.515L203.166 202.087L181.349 166.765ZM203.309 202.802L192.543 200.206L181.635 225.786L203.309 202.802ZM180.73 197.204V226.191L191.805 199.991L180.73 197.204ZM181.801 166.194L204.119 202.373L226.531 210.614L181.801 166.194ZM180.753 196.561L191.734 199.324L180.753 167.146V196.561ZM226.603 211.4L203.976 203.04L182.349 226.048L226.603 211.4ZM287.672 227.501L228.318 212.21L182.421 227.501H287.672ZM174.823 228.597V162.193L59.7827 228.597H174.823ZM125.71 210.9L66.9519 226.024L171.179 165.765L125.71 210.9ZM173.036 166.766L161.842 199.515L151.172 202.087L173.036 166.766ZM151.076 202.897L161.842 200.301L172.679 225.881L151.076 202.897ZM173.584 197.205V226.286L162.509 199.991L173.584 197.205ZM172.536 166.194L150.195 202.468L127.806 210.614L172.536 166.194ZM173.56 196.657L162.58 199.42L173.56 167.147V196.657ZM127.711 211.495L150.338 203.135L171.965 226.191L127.711 211.495ZM66.5708 227.406L126.115 212.21L171.822 227.406H66.5708ZM179.515 299.693V233.288H294.531L179.515 299.693ZM287.386 235.861L228.532 250.985L183.278 296.12L287.386 235.861ZM192.543 262.37L181.349 295.12L203.166 259.845L192.543 262.37ZM192.543 261.679L203.309 259.083L181.635 236.028L192.543 261.679ZM180.73 235.694V264.609L191.805 261.846L180.73 235.694ZM204.119 259.512L181.801 295.691L226.531 251.271L204.119 259.512ZM191.734 262.561L180.753 265.323V294.738L191.734 262.561ZM203.976 258.845L226.603 250.485L182.349 235.837L203.976 258.845ZM228.318 249.723L287.672 234.432H182.421L228.318 249.723ZM174.823 233.288V299.693L59.7828 233.288H174.823ZM125.71 250.985L66.9519 235.861L171.179 296.12L125.71 250.985ZM173.036 295.12L161.842 262.37L151.172 259.845L173.036 295.12ZM151.076 259.083L161.842 261.679L172.703 236.028L151.076 259.083ZM173.584 264.609V235.694L162.509 261.846L173.584 264.609ZM172.512 295.644L150.195 259.512L127.806 251.271L172.512 295.644ZM173.56 265.323L162.58 262.561L173.56 294.738V265.323ZM127.735 250.533L150.362 258.893L171.988 235.837L127.735 250.533ZM66.5709 234.479L126.115 249.77L171.822 234.479H66.5709ZM174.83 0V66.4041H59.7902L174.83 0ZM66.9593 63.8317L125.718 48.7074L171.186 3.57267L66.9593 63.8317ZM161.849 37.3225L173.044 4.57302L151.179 39.8948L161.849 37.3225ZM161.849 38.1085L151.084 40.7046L172.687 63.6888L161.849 38.1085ZM173.592 64.0937V35.0122L162.516 37.7989L173.592 64.0937ZM150.203 40.2759L172.544 4.00139L127.814 48.4216L150.203 40.2759ZM162.588 37.2272L173.568 34.4644V4.95411L162.588 37.2272ZM150.345 40.9428L127.719 49.3029L171.972 63.9985L150.345 40.9428ZM126.123 50.0174L66.5782 65.2132H171.829L126.123 50.0174ZM179.522 0V66.4041H294.539L179.522 0ZM287.393 63.8317L228.539 48.7074L183.286 3.57267L287.393 63.8317ZM192.551 37.3225L181.356 4.57302L203.173 39.8948L192.551 37.3225ZM192.551 38.0132L203.316 40.6094L181.642 63.5936L192.551 38.0132ZM180.737 63.9985V35.0122L191.812 37.7989L180.737 63.9985ZM204.126 40.1807L181.809 4.00139L226.539 48.4216L204.126 40.1807ZM191.741 37.132L180.761 34.3691V4.95411L191.741 37.132ZM203.983 40.8476L226.61 49.2076L182.357 63.8556L203.983 40.8476ZM228.325 50.0174L287.679 65.3084H182.428L228.325 50.0174ZM179.522 71.0962V137.5L294.539 71.0962H179.522ZM228.539 88.7928L287.393 73.6685L183.286 133.928L228.539 88.7928ZM181.356 132.927L192.551 100.178L203.173 97.6531L181.356 132.927ZM203.316 96.8909L192.551 99.487L181.642 73.8352L203.316 96.8909ZM180.737 102.417V73.5018L191.812 99.6538L180.737 102.417ZM181.809 133.499L204.126 97.3196L226.539 89.0786L181.809 133.499ZM180.761 103.131L191.741 100.368L180.761 132.546V103.131ZM226.61 88.2927L203.983 96.6527L182.357 73.6447L226.61 88.2927ZM287.679 72.2394L228.325 87.5305L182.428 72.2394H287.679ZM174.83 137.5V71.0962H59.7902L174.83 137.5ZM66.9593 73.6685L125.718 88.7928L171.186 133.928L66.9593 73.6685ZM161.849 100.178L173.044 132.927L151.179 97.6531L161.849 100.178ZM161.849 99.487L151.084 96.8909L172.71 73.8352L161.849 99.487ZM173.592 73.5018V102.417L162.516 99.6538L173.592 73.5018ZM150.203 97.3196L172.52 133.451L127.814 89.0786L150.203 97.3196ZM162.588 100.368L173.568 103.131V132.546L162.588 100.368ZM150.369 96.7003L127.742 88.3403L171.996 73.6447L150.369 96.7003ZM126.123 87.5781L66.5782 72.2871H171.829L126.123 87.5781ZM438.771 228.596V162.192L553.787 228.596H438.771ZM487.788 210.9L546.642 226.024L442.534 165.765L487.788 210.9ZM440.605 166.765L451.799 199.515L462.422 202.087L440.605 166.765ZM462.565 202.802L451.799 200.206L440.891 225.786L462.565 202.802ZM439.986 197.204V226.191L451.061 199.991L439.986 197.204ZM441.057 166.194L463.375 202.373L485.787 210.614L441.057 166.194ZM440.009 196.561L450.99 199.324L440.009 167.146V196.561ZM485.859 211.4L463.232 203.04L441.605 226.048L485.859 211.4ZM546.928 227.501L487.574 212.21L441.677 227.501H546.928ZM434.079 228.597V162.193L319.039 228.597H434.079ZM384.966 210.9L326.208 226.024L430.435 165.765L384.966 210.9ZM432.292 166.766L421.098 199.515L410.428 202.087L432.292 166.766ZM410.332 202.897L421.098 200.301L431.935 225.881L410.332 202.897ZM432.84 197.205V226.286L421.765 199.991L432.84 197.205ZM431.792 166.194L409.451 202.468L387.062 210.614L431.792 166.194ZM432.816 196.657L421.836 199.42L432.816 167.147V196.657ZM386.967 211.495L409.594 203.135L431.221 226.191L386.967 211.495ZM325.827 227.406L385.371 212.21L431.078 227.406H325.827ZM438.771 299.693V233.288H553.787L438.771 299.693ZM546.642 235.861L487.788 250.985L442.534 296.12L546.642 235.861ZM451.799 262.37L440.605 295.12L462.422 259.845L451.799 262.37ZM451.799 261.679L462.565 259.083L440.891 236.028L451.799 261.679ZM439.986 235.694V264.609L451.061 261.846L439.986 235.694ZM463.375 259.512L441.057 295.691L485.787 251.271L463.375 259.512ZM450.99 262.561L440.009 265.323V294.738L450.99 262.561ZM463.232 258.845L485.859 250.485L441.605 235.837L463.232 258.845ZM487.574 249.723L546.928 234.432H441.677L487.574 249.723ZM434.079 233.288V299.693L319.039 233.288H434.079ZM384.966 250.985L326.208 235.861L430.435 296.12L384.966 250.985ZM432.292 295.12L421.098 262.37L410.428 259.845L432.292 295.12ZM410.332 259.083L421.098 261.679L431.959 236.028L410.332 259.083ZM432.84 264.609V235.694L421.765 261.846L432.84 264.609ZM431.768 295.644L409.451 259.512L387.062 251.271L431.768 295.644ZM432.816 265.323L421.836 262.561L432.816 294.738V265.323ZM386.991 250.533L409.618 258.893L431.244 235.837L386.991 250.533ZM325.827 234.479L385.371 249.77L431.078 234.479H325.827ZM434.086 0V66.4041H319.046L434.086 0ZM326.215 63.8317L384.974 48.7074L430.442 3.57267L326.215 63.8317ZM421.105 37.3225L432.3 4.57302L410.435 39.8948L421.105 37.3225ZM421.105 38.1085L410.34 40.7046L431.943 63.6888L421.105 38.1085ZM432.848 64.0937V35.0122L421.772 37.7989L432.848 64.0937ZM409.458 40.2759L431.8 4.00139L387.07 48.4216L409.458 40.2759ZM421.844 37.2272L432.824 34.4644V4.95411L421.844 37.2272ZM409.601 40.9428L386.974 49.3029L431.228 63.9985L409.601 40.9428ZM385.379 50.0174L325.834 65.2132H431.085L385.379 50.0174ZM438.778 0V66.4041H553.795L438.778 0ZM546.649 63.8317L487.795 48.7074L442.542 3.57267L546.649 63.8317ZM451.807 37.3225L440.612 4.57302L462.429 39.8948L451.807 37.3225ZM451.807 38.0132L462.572 40.6094L440.898 63.5936L451.807 38.0132ZM439.993 63.9985V35.0122L451.068 37.7989L439.993 63.9985ZM463.382 40.1807L441.065 4.00139L485.795 48.4216L463.382 40.1807ZM450.997 37.132L440.017 34.3691V4.95411L450.997 37.132ZM463.239 40.8476L485.866 49.2076L441.613 63.8556L463.239 40.8476ZM487.581 50.0174L546.935 65.3084H441.684L487.581 50.0174ZM438.778 71.0962V137.5L553.795 71.0962H438.778ZM487.795 88.7928L546.649 73.6685L442.542 133.928L487.795 88.7928ZM440.612 132.927L451.807 100.178L462.429 97.6531L440.612 132.927ZM462.572 96.8909L451.807 99.487L440.898 73.8352L462.572 96.8909ZM439.993 102.417V73.5018L451.068 99.6538L439.993 102.417ZM441.065 133.499L463.382 97.3196L485.795 89.0786L441.065 133.499ZM440.017 103.131L450.997 100.368L440.017 132.546V103.131ZM485.866 88.2927L463.239 96.6527L441.613 73.6447L485.866 88.2927ZM546.935 72.2394L487.581 87.5305L441.684 72.2394H546.935ZM434.086 137.5V71.0962H319.046L434.086 137.5ZM326.215 73.6685L384.974 88.7928L430.442 133.928L326.215 73.6685ZM421.105 100.178L432.3 132.927L410.435 97.6531L421.105 100.178ZM421.105 99.487L410.34 96.8909L431.966 73.8352L421.105 99.487ZM432.848 73.5018V102.417L421.772 99.6538L432.848 73.5018ZM409.458 97.3196L431.776 133.451L387.07 89.0786L409.458 97.3196ZM421.844 100.368L432.824 103.131V132.546L421.844 100.368ZM409.625 96.7003L386.998 88.3403L431.252 73.6447L409.625 96.7003ZM385.379 87.5781L325.834 72.2871H431.085L385.379 87.5781Z" fill="white" fill-opacity="0.08"/>
</svg>
