<svg width="240" height="232" viewBox="0 0 240 232" fill="none" xmlns="http://www.w3.org/2000/svg">
<path fill-rule="evenodd" clip-rule="evenodd" d="M-398.225 -68V-1.59593H-513.265L-398.225 -68ZM-506.096 -4.16825L-447.338 -19.2926L-401.869 -64.4273L-506.096 -4.16825ZM-411.206 -30.6775L-400.012 -63.427L-421.876 -28.1052L-411.206 -30.6775ZM-411.206 -29.8915L-421.972 -27.2954L-400.369 -4.31116L-411.206 -29.8915ZM-399.464 -3.90626V-32.9878L-410.539 -30.2011L-399.464 -3.90626ZM-422.853 -27.7241L-400.512 -63.9986L-445.242 -19.5784L-422.853 -27.7241ZM-410.468 -30.7728L-399.488 -33.5356V-63.0459L-410.468 -30.7728ZM-422.71 -27.0572L-445.337 -18.6971L-401.083 -4.00153L-422.71 -27.0572ZM-446.933 -17.9826L-506.477 -2.78682H-401.226L-446.933 -17.9826ZM-393.533 -68V-1.59593H-278.517L-393.533 -68ZM-285.662 -4.16825L-344.516 -19.2926L-389.77 -64.4273L-285.662 -4.16825ZM-380.505 -30.6775L-391.699 -63.427L-369.882 -28.1052L-380.505 -30.6775ZM-380.505 -29.9868L-369.739 -27.3906L-391.413 -4.40643L-380.505 -29.9868ZM-392.318 -4.00153V-32.9878L-381.243 -30.2011L-392.318 -4.00153ZM-368.929 -27.8193L-391.247 -63.9986L-346.517 -19.5784L-368.929 -27.8193ZM-381.315 -30.868L-392.295 -33.6309V-63.0459L-381.315 -30.868ZM-369.072 -27.1524L-346.445 -18.7924L-390.699 -4.14444L-369.072 -27.1524ZM-344.73 -17.9826L-285.376 -2.69155H-390.627L-344.73 -17.9826ZM-393.533 3.09619V69.5003L-278.517 3.09619H-393.533ZM-344.516 20.7928L-285.662 5.66852L-389.77 65.9276L-344.516 20.7928ZM-391.699 64.9272L-380.505 32.1777L-369.882 29.6531L-391.699 64.9272ZM-369.739 28.8909L-380.505 31.487L-391.413 5.83524L-369.739 28.8909ZM-392.318 34.4166V5.50179L-381.243 31.6538L-392.318 34.4166ZM-391.247 65.4989L-368.929 29.3196L-346.517 21.0786L-391.247 65.4989ZM-392.295 35.1311L-381.315 32.3683L-392.295 64.5462V35.1311ZM-346.445 20.2927L-369.072 28.6527L-390.699 5.6447L-346.445 20.2927ZM-285.376 4.23945L-344.73 19.5305L-390.627 4.23945H-285.376ZM-398.225 69.5003V3.09619H-513.265L-398.225 69.5003ZM-506.096 5.66852L-447.338 20.7928L-401.869 65.9276L-506.096 5.66852ZM-411.206 32.1777L-400.012 64.9272L-421.876 29.6531L-411.206 32.1777ZM-411.206 31.487L-421.972 28.8909L-400.345 5.83524L-411.206 31.487ZM-399.464 5.50179V34.4166L-410.539 31.6538L-399.464 5.50179ZM-422.853 29.3196L-400.536 65.4512L-445.242 21.0786L-422.853 29.3196ZM-410.468 32.3683L-399.488 35.1311V64.5462L-410.468 32.3683ZM-422.686 28.7003L-445.313 20.3403L-401.06 5.6447L-422.686 28.7003ZM-446.933 19.5781L-506.477 4.28708H-401.226L-446.933 19.5781ZM-527.96 79.4958V13.0917L-643 79.4958H-527.96ZM-577.072 61.7991L-635.831 76.9234L-531.604 16.6644L-577.072 61.7991ZM-529.746 17.6647L-540.941 50.4142L-551.611 52.9865L-529.746 17.6647ZM-551.706 53.7963L-540.941 51.2002L-530.104 76.7805L-551.706 53.7963ZM-529.198 48.1039V77.1854L-540.274 50.8906L-529.198 48.1039ZM-530.246 17.0931L-552.588 53.3676L-574.976 61.5133L-530.246 17.0931ZM-529.222 47.5561L-540.202 50.3189L-529.222 18.0458V47.5561ZM-575.072 62.3946L-552.445 54.0345L-530.818 77.0902L-575.072 62.3946ZM-636.212 78.3049L-576.667 63.1091L-530.961 78.3049H-636.212ZM-523.268 79.4958V13.0917L-408.252 79.4958H-523.268ZM-474.251 61.7991L-415.397 76.9234L-519.505 16.6644L-474.251 61.7991ZM-521.434 17.6647L-510.239 50.4142L-499.617 52.9865L-521.434 17.6647ZM-499.474 53.7011L-510.239 51.1049L-521.148 76.6853L-499.474 53.7011ZM-522.053 48.1039V77.0902L-510.978 50.8906L-522.053 48.1039ZM-520.981 17.0931L-498.664 53.2723L-476.251 61.5133L-520.981 17.0931ZM-522.029 47.4608L-511.049 50.2237L-522.029 18.0458V47.4608ZM-476.18 62.2993L-498.807 53.9392L-520.433 76.9473L-476.18 62.2993ZM-415.111 78.4001L-474.465 63.1091L-520.362 78.4001H-415.111ZM-523.268 150.592V84.1879H-408.252L-523.268 150.592ZM-415.397 86.7602L-474.251 101.885L-519.505 147.019L-415.397 86.7602ZM-510.239 113.269L-521.434 146.019L-499.617 110.745L-510.239 113.269ZM-510.239 112.579L-499.474 109.983L-521.148 86.9269L-510.239 112.579ZM-522.053 86.5935V115.508L-510.978 112.745L-522.053 86.5935ZM-498.664 110.411L-520.981 146.591L-476.251 102.17L-498.664 110.411ZM-511.049 113.46L-522.029 116.223V145.638L-511.049 113.46ZM-498.807 109.744L-476.18 101.384L-520.433 86.7364L-498.807 109.744ZM-474.465 100.622L-415.111 85.3311H-520.362L-474.465 100.622ZM-527.96 84.1879V150.592L-643 84.1879H-527.96ZM-577.072 101.885L-635.831 86.7602L-531.604 147.019L-577.072 101.885ZM-529.746 146.019L-540.941 113.269L-551.611 110.745L-529.746 146.019ZM-551.706 109.983L-540.941 112.579L-530.08 86.9269L-551.706 109.983ZM-529.198 115.508V86.5935L-540.274 112.745L-529.198 115.508ZM-530.27 146.543L-552.588 110.411L-574.976 102.17L-530.27 146.543ZM-529.222 116.223L-540.202 113.46L-529.222 145.638V116.223ZM-575.048 101.432L-552.421 109.792L-530.794 86.7364L-575.048 101.432ZM-636.212 85.3788L-576.667 100.67L-530.961 85.3788H-636.212ZM-264.019 13.0917V79.4958H-149.003L-264.019 13.0917ZM-156.148 76.9234L-215.002 61.7991L-260.256 16.6644L-156.148 76.9234ZM-250.991 50.4142L-262.185 17.6647L-240.368 52.9865L-250.991 50.4142ZM-250.991 51.1049L-240.225 53.7011L-261.9 76.6853L-250.991 51.1049ZM-262.805 77.0902V48.1039L-251.729 50.8906L-262.805 77.0902ZM-239.415 53.2723L-261.733 17.0931L-217.003 61.5133L-239.415 53.2723ZM-251.801 50.2237L-262.781 47.4608V18.0458L-251.801 50.2237ZM-239.558 53.9392L-216.931 62.2993L-261.185 76.9473L-239.558 53.9392ZM-215.217 63.1091L-155.863 78.4001H-261.114L-215.217 63.1091ZM-268.711 79.4958V13.0917L-383.752 79.4958H-268.711ZM-317.824 61.7991L-376.582 76.9234L-272.356 16.6644L-317.824 61.7991ZM-270.498 17.6647L-281.692 50.4142L-292.363 52.9865L-270.498 17.6647ZM-292.458 53.7963L-281.692 51.2002L-270.855 76.7805L-292.458 53.7963ZM-269.95 48.1039V77.1854L-281.025 50.8906L-269.95 48.1039ZM-270.998 17.0931L-293.339 53.3676L-315.728 61.5133L-270.998 17.0931ZM-269.974 47.5561L-280.954 50.3189L-269.974 18.0458V47.5561ZM-315.823 62.3946L-293.196 54.0345L-271.57 77.0902L-315.823 62.3946ZM-376.963 78.3049L-317.419 63.1091L-271.713 78.3049H-376.963ZM-264.019 150.592V84.1879H-149.003L-264.019 150.592ZM-156.148 86.7602L-215.002 101.885L-260.256 147.019L-156.148 86.7602ZM-250.991 113.269L-262.185 146.019L-240.368 110.745L-250.991 113.269ZM-250.991 112.579L-240.225 109.983L-261.9 86.9269L-250.991 112.579ZM-262.805 86.5935V115.508L-251.729 112.745L-262.805 86.5935ZM-239.415 110.411L-261.733 146.591L-217.003 102.17L-239.415 110.411ZM-251.801 113.46L-262.781 116.223V145.638L-251.801 113.46ZM-239.558 109.744L-216.931 101.384L-261.185 86.7364L-239.558 109.744ZM-215.217 100.622L-155.863 85.3311H-261.114L-215.217 100.622ZM-268.711 84.1879V150.592L-383.752 84.1879H-268.711ZM-317.824 101.885L-376.582 86.7602L-272.356 147.019L-317.824 101.885ZM-270.498 146.019L-281.692 113.269L-292.363 110.745L-270.498 146.019ZM-292.458 109.983L-281.692 112.579L-270.831 86.9269L-292.458 109.983ZM-269.95 115.508V86.5935L-281.025 112.745L-269.95 115.508ZM-271.022 146.543L-293.339 110.411L-315.728 102.17L-271.022 146.543ZM-269.974 116.223L-280.954 113.46L-269.974 145.638V116.223ZM-315.799 101.432L-293.172 109.792L-271.546 86.7364L-315.799 101.432ZM-376.963 85.3788L-317.419 100.67L-271.713 85.3788H-376.963ZM-4.77081 13.0917V79.4958H110.245L-4.77081 13.0917ZM103.1 76.9234L44.2463 61.7991L-1.00757 16.6644L103.1 76.9234ZM8.25751 50.4142L-2.93683 17.6647L18.8803 52.9865L8.25751 50.4142ZM8.25751 51.1049L19.0232 53.7011L-2.651 76.6853L8.25751 51.1049ZM-3.55609 77.0902V48.1039L7.51917 50.8906L-3.55609 77.0902ZM19.833 53.2723L-2.48431 17.0931L42.2455 61.5133L19.833 53.2723ZM7.44775 50.2237L-3.53229 47.4608V18.0458L7.44775 50.2237ZM19.6901 53.9392L42.317 62.2993L-1.93646 76.9473L19.6901 53.9392ZM44.0319 63.1091L103.386 78.4001H-1.86505L44.0319 63.1091ZM-9.46295 79.4958V13.0917L-124.503 79.4958H-9.46295ZM-58.5753 61.7991L-117.334 76.9234L-13.1071 16.6644L-58.5753 61.7991ZM-11.2493 17.6647L-22.4437 50.4142L-33.114 52.9865L-11.2493 17.6647ZM-33.2093 53.7963L-22.4437 51.2002L-11.6066 76.7805L-33.2093 53.7963ZM-10.7015 48.1039V77.1854L-21.7768 50.8906L-10.7015 48.1039ZM-11.7495 17.0931L-34.0906 53.3676L-56.4793 61.5133L-11.7495 17.0931ZM-10.7253 47.5561L-21.7053 50.3189L-10.7253 18.0458V47.5561ZM-56.5746 62.3946L-33.9477 54.0345L-12.3211 77.0902L-56.5746 62.3946ZM-117.715 78.3049L-58.1703 63.1091L-12.464 78.3049H-117.715ZM-4.77081 150.592V84.1879H110.245L-4.77081 150.592ZM103.1 86.7602L44.2463 101.885L-1.00757 147.019L103.1 86.7602ZM8.25751 113.269L-2.93683 146.019L18.8803 110.745L8.25751 113.269ZM8.25751 112.579L19.0232 109.983L-2.651 86.9269L8.25751 112.579ZM-3.55609 86.5935V115.508L7.51917 112.745L-3.55609 86.5935ZM19.833 110.411L-2.48431 146.591L42.2455 102.17L19.833 110.411ZM7.44775 113.46L-3.53229 116.223V145.638L7.44775 113.46ZM19.6901 109.744L42.317 101.384L-1.93646 86.7364L19.6901 109.744ZM44.0319 100.622L103.386 85.3311H-1.86505L44.0319 100.622ZM-9.46295 84.1879V150.592L-124.503 84.1879H-9.46295ZM-58.5753 101.885L-117.334 86.7602L-13.1071 147.019L-58.5753 101.885ZM-11.2493 146.019L-22.4437 113.269L-33.114 110.745L-11.2493 146.019ZM-33.2093 109.983L-22.4437 112.579L-11.5828 86.9269L-33.2093 109.983ZM-10.7015 115.508V86.5935L-21.7768 112.745L-10.7015 115.508ZM-11.7733 146.543L-34.0906 110.411L-56.4793 102.17L-11.7733 146.543ZM-10.7253 116.223L-21.7053 113.46L-10.7253 145.638V116.223ZM-56.5508 101.432L-33.9238 109.792L-12.2972 86.7364L-56.5508 101.432ZM-117.715 85.3788L-58.1703 100.67L-12.464 85.3788H-117.715ZM-393.541 160.596V94.1923L-278.524 160.596H-393.541ZM-344.523 142.9L-285.67 158.024L-389.777 97.765L-344.523 142.9ZM-391.707 98.7653L-380.512 131.515L-369.889 134.087L-391.707 98.7653ZM-369.747 134.802L-380.512 132.206L-391.421 157.786L-369.747 134.802ZM-392.326 129.204V158.191L-381.251 131.991L-392.326 129.204ZM-391.254 98.1937L-368.937 134.373L-346.524 142.614L-391.254 98.1937ZM-392.302 128.561L-381.322 131.324L-392.302 99.1464V128.561ZM-346.453 143.4L-369.08 135.04L-390.706 158.048L-346.453 143.4ZM-285.384 159.501L-344.738 144.21L-390.635 159.501H-285.384ZM-398.233 160.597V94.1925L-513.273 160.597H-398.233ZM-447.345 142.9L-506.104 158.024L-401.877 97.7652L-447.345 142.9ZM-400.019 98.7655L-411.213 131.515L-421.884 134.087L-400.019 98.7655ZM-421.979 134.897L-411.213 132.301L-400.376 157.881L-421.979 134.897ZM-399.471 129.205V158.286L-410.547 131.991L-399.471 129.205ZM-400.519 98.1939L-422.86 134.468L-445.249 142.614L-400.519 98.1939ZM-399.495 128.657L-410.475 131.42L-399.495 99.1466V128.657ZM-445.344 143.495L-422.717 135.135L-401.091 158.191L-445.344 143.495ZM-506.485 159.406L-446.94 144.21L-401.234 159.406H-506.485ZM-393.541 231.693V165.288H-278.524L-393.541 231.693ZM-285.67 167.861L-344.523 182.985L-389.777 228.12L-285.67 167.861ZM-380.512 194.37L-391.707 227.12L-369.889 191.845L-380.512 194.37ZM-380.512 193.679L-369.747 191.083L-391.421 168.028L-380.512 193.679ZM-392.326 167.694V196.609L-381.251 193.846L-392.326 167.694ZM-368.937 191.512L-391.254 227.691L-346.524 183.271L-368.937 191.512ZM-381.322 194.561L-392.302 197.323V226.738L-381.322 194.561ZM-369.08 190.845L-346.453 182.485L-390.706 167.837L-369.08 190.845ZM-344.738 181.723L-285.384 166.432H-390.635L-344.738 181.723ZM-398.233 165.288V231.693L-513.273 165.288H-398.233ZM-447.345 182.985L-506.104 167.861L-401.877 228.12L-447.345 182.985ZM-400.019 227.12L-411.213 194.37L-421.884 191.845L-400.019 227.12ZM-421.979 191.083L-411.213 193.679L-400.352 168.028L-421.979 191.083ZM-399.471 196.609V167.694L-410.547 193.846L-399.471 196.609ZM-400.543 227.644L-422.86 191.512L-445.249 183.271L-400.543 227.644ZM-399.495 197.323L-410.475 194.561L-399.495 226.738V197.323ZM-445.32 182.533L-422.694 190.893L-401.067 167.837L-445.32 182.533ZM-506.485 166.479L-446.94 181.77L-401.234 166.479H-506.485ZM-134.285 160.596V94.1923L-19.2684 160.596H-134.285ZM-85.2675 142.9L-26.4137 158.024L-130.521 97.765L-85.2675 142.9ZM-132.451 98.7653L-121.256 131.515L-110.634 134.087L-132.451 98.7653ZM-110.491 134.802L-121.256 132.206L-132.165 157.786L-110.491 134.802ZM-133.07 129.204V158.191L-121.995 131.991L-133.07 129.204ZM-131.998 98.1937L-109.681 134.373L-87.2682 142.614L-131.998 98.1937ZM-133.046 128.561L-122.066 131.324L-133.046 99.1464V128.561ZM-87.1968 143.4L-109.824 135.04L-131.45 158.048L-87.1968 143.4ZM-26.1279 159.501L-85.4819 144.21L-131.379 159.501H-26.1279ZM-138.977 160.597V94.1925L-254.017 160.597H-138.977ZM-188.089 142.9L-246.848 158.024L-142.621 97.7652L-188.089 142.9ZM-140.763 98.7655L-151.958 131.515L-162.628 134.087L-140.763 98.7655ZM-162.723 134.897L-151.958 132.301L-141.12 157.881L-162.723 134.897ZM-140.215 129.205V158.286L-151.291 131.991L-140.215 129.205ZM-141.263 98.1939L-163.604 134.468L-185.993 142.614L-141.263 98.1939ZM-140.239 128.657L-151.219 131.42L-140.239 99.1466V128.657ZM-186.088 143.495L-163.462 135.135L-141.835 158.191L-186.088 143.495ZM-247.229 159.406L-187.684 144.21L-141.978 159.406H-247.229ZM-134.285 231.693V165.288H-19.2684L-134.285 231.693ZM-26.4137 167.861L-85.2675 182.985L-130.521 228.12L-26.4137 167.861ZM-121.256 194.37L-132.451 227.12L-110.634 191.845L-121.256 194.37ZM-121.256 193.679L-110.491 191.083L-132.165 168.028L-121.256 193.679ZM-133.07 167.694V196.609L-121.995 193.846L-133.07 167.694ZM-109.681 191.512L-131.998 227.691L-87.2682 183.271L-109.681 191.512ZM-122.066 194.561L-133.046 197.323V226.738L-122.066 194.561ZM-109.824 190.845L-87.1968 182.485L-131.45 167.837L-109.824 190.845ZM-85.4819 181.723L-26.1279 166.432H-131.379L-85.4819 181.723ZM-138.977 165.288V231.693L-254.017 165.288H-138.977ZM-188.089 182.985L-246.848 167.861L-142.621 228.12L-188.089 182.985ZM-140.763 227.12L-151.957 194.37L-162.628 191.845L-140.763 227.12ZM-162.723 191.083L-151.957 193.679L-141.097 168.028L-162.723 191.083ZM-140.215 196.609V167.694L-151.291 193.846L-140.215 196.609ZM-141.287 227.644L-163.604 191.512L-185.993 183.271L-141.287 227.644ZM-140.239 197.323L-151.219 194.561L-140.239 226.738V197.323ZM-186.065 182.533L-163.438 190.893L-141.811 167.837L-186.065 182.533ZM-247.229 166.479L-187.684 181.77L-141.978 166.479H-247.229ZM-138.969 -68V-1.59593H-254.009L-138.969 -68ZM-246.84 -4.16825L-188.082 -19.2926L-142.613 -64.4273L-246.84 -4.16825ZM-151.95 -30.6775L-140.756 -63.427L-162.62 -28.1052L-151.95 -30.6775ZM-151.95 -29.8915L-162.716 -27.2954L-141.113 -4.31116L-151.95 -29.8915ZM-140.208 -3.90626V-32.9878L-151.283 -30.2011L-140.208 -3.90626ZM-163.597 -27.7241L-141.256 -63.9986L-185.986 -19.5784L-163.597 -27.7241ZM-151.212 -30.7728L-140.232 -33.5356V-63.0459L-151.212 -30.7728ZM-163.454 -27.0572L-186.081 -18.6971L-141.827 -4.00153L-163.454 -27.0572ZM-187.677 -17.9826L-247.221 -2.78682H-141.97L-187.677 -17.9826ZM-134.277 -68V-1.59593H-19.2609L-134.277 -68ZM-26.4063 -4.16825L-85.2601 -19.2926L-130.514 -64.4273L-26.4063 -4.16825ZM-121.249 -30.6775L-132.443 -63.427L-110.626 -28.1052L-121.249 -30.6775ZM-121.249 -29.9868L-110.483 -27.3906L-132.157 -4.40643L-121.249 -29.9868ZM-133.062 -4.00153V-32.9878L-121.987 -30.2011L-133.062 -4.00153ZM-109.673 -27.8193L-131.991 -63.9986L-87.2608 -19.5784L-109.673 -27.8193ZM-122.059 -30.868L-133.039 -33.6309V-63.0459L-122.059 -30.868ZM-109.816 -27.1524L-87.1894 -18.7924L-131.443 -4.14444L-109.816 -27.1524ZM-85.4745 -17.9826L-26.1205 -2.69155H-131.371L-85.4745 -17.9826ZM-134.277 3.09619V69.5003L-19.2609 3.09619H-134.277ZM-85.2601 20.7928L-26.4063 5.66852L-130.514 65.9276L-85.2601 20.7928ZM-132.443 64.9272L-121.249 32.1777L-110.626 29.6531L-132.443 64.9272ZM-110.483 28.8909L-121.249 31.487L-132.157 5.83524L-110.483 28.8909ZM-133.062 34.4166V5.50179L-121.987 31.6538L-133.062 34.4166ZM-131.991 65.4989L-109.673 29.3196L-87.2608 21.0786L-131.991 65.4989ZM-133.039 35.1311L-122.059 32.3683L-133.039 64.5462V35.1311ZM-87.1894 20.2927L-109.816 28.6527L-131.443 5.6447L-87.1894 20.2927ZM-26.1205 4.23945L-85.4745 19.5305L-131.371 4.23945H-26.1205ZM-138.969 69.5003V3.09619H-254.009L-138.969 69.5003ZM-246.84 5.66852L-188.082 20.7928L-142.613 65.9276L-246.84 5.66852ZM-151.95 32.1777L-140.756 64.9272L-162.62 29.6531L-151.95 32.1777ZM-151.95 31.487L-162.716 28.8909L-141.089 5.83524L-151.95 31.487ZM-140.208 5.50179V34.4166L-151.283 31.6538L-140.208 5.50179ZM-163.597 29.3196L-141.28 65.4512L-185.986 21.0786L-163.597 29.3196ZM-151.212 32.3683L-140.232 35.1311V64.5462L-151.212 32.3683ZM-163.43 28.7003L-186.057 20.3403L-141.804 5.6447L-163.43 28.7003ZM-187.677 19.5781L-247.221 4.28708H-141.97L-187.677 19.5781ZM124.971 160.596V94.1923L239.988 160.596H124.971ZM173.988 142.9L232.842 158.024L128.735 97.765L173.988 142.9ZM126.805 98.7653L138 131.515L148.622 134.087L126.805 98.7653ZM148.765 134.802L138 132.206L127.091 157.786L148.765 134.802ZM126.186 129.204V158.191L137.261 131.991L126.186 129.204ZM127.258 98.1937L149.575 134.373L171.988 142.614L127.258 98.1937ZM126.21 128.561L137.19 131.324L126.21 99.1464V128.561ZM172.059 143.4L149.432 135.04L127.806 158.048L172.059 143.4ZM233.128 159.501L173.774 144.21L127.877 159.501H233.128ZM120.279 160.597V94.1925L5.23907 160.597H120.279ZM71.1668 142.9L12.4083 158.024L116.635 97.7652L71.1668 142.9ZM118.493 98.7655L107.298 131.515L96.6281 134.087L118.493 98.7655ZM96.5328 134.897L107.298 132.301L118.135 157.881L96.5328 134.897ZM119.041 129.205V158.286L107.965 131.991L119.041 129.205ZM117.993 98.1939L95.6515 134.468L73.2628 142.614L117.993 98.1939ZM119.017 128.657L108.037 131.42L119.017 99.1466V128.657ZM73.1675 143.495L95.7944 135.135L117.421 158.191L73.1675 143.495ZM12.0272 159.406L71.5717 144.21L117.278 159.406H12.0272ZM124.971 231.693V165.288H239.988L124.971 231.693ZM232.842 167.861L173.988 182.985L128.735 228.12L232.842 167.861ZM138 194.37L126.805 227.12L148.622 191.845L138 194.37ZM138 193.679L148.765 191.083L127.091 168.028L138 193.679ZM126.186 167.694V196.609L137.261 193.846L126.186 167.694ZM149.575 191.512L127.258 227.691L171.988 183.271L149.575 191.512ZM137.19 194.561L126.21 197.323V226.738L137.19 194.561ZM149.432 190.845L172.059 182.485L127.806 167.837L149.432 190.845ZM173.774 181.723L233.128 166.432H127.877L173.774 181.723ZM120.279 165.288V231.693L5.23914 165.288H120.279ZM71.1669 182.985L12.4083 167.861L116.635 228.12L71.1669 182.985ZM118.493 227.12L107.298 194.37L96.6281 191.845L118.493 227.12ZM96.5328 191.083L107.298 193.679L118.159 168.028L96.5328 191.083ZM119.041 196.609V167.694L107.965 193.846L119.041 196.609ZM117.969 227.644L95.6516 191.512L73.2628 183.271L117.969 227.644ZM119.017 197.323L108.037 194.561L119.017 226.738V197.323ZM73.1913 182.533L95.8183 190.893L117.445 167.837L73.1913 182.533ZM12.0272 166.479L71.5718 181.77L117.278 166.479H12.0272ZM120.287 -68V-1.59593H5.24652L120.287 -68ZM12.4157 -4.16825L71.1743 -19.2926L116.642 -64.4273L12.4157 -4.16825ZM107.306 -30.6775L118.5 -63.427L96.6355 -28.1052L107.306 -30.6775ZM107.306 -29.8915L96.5402 -27.2954L118.143 -4.31116L107.306 -29.8915ZM119.048 -3.90626V-32.9878L107.973 -30.2011L119.048 -3.90626ZM95.6589 -27.7241L118 -63.9986L73.2702 -19.5784L95.6589 -27.7241ZM108.044 -30.7728L119.024 -33.5356V-63.0459L108.044 -30.7728ZM95.8018 -27.0572L73.1749 -18.6971L117.428 -4.00153L95.8018 -27.0572ZM71.5791 -17.9826L12.0346 -2.78682H117.286L71.5791 -17.9826ZM124.979 -68V-1.59593H239.995L124.979 -68ZM232.85 -4.16825L173.996 -19.2926L128.742 -64.4273L232.85 -4.16825ZM138.007 -30.6775L126.813 -63.427L148.63 -28.1052L138.007 -30.6775ZM138.007 -29.9868L148.773 -27.3906L127.099 -4.40643L138.007 -29.9868ZM126.193 -4.00153V-32.9878L137.269 -30.2011L126.193 -4.00153ZM149.583 -27.8193L127.265 -63.9986L171.995 -19.5784L149.583 -27.8193ZM137.197 -30.868L126.217 -33.6309V-63.0459L137.197 -30.868ZM149.44 -27.1524L172.067 -18.7924L127.813 -4.14444L149.44 -27.1524ZM173.781 -17.9826L233.135 -2.69155H127.885L173.781 -17.9826ZM124.979 3.09619V69.5003L239.995 3.09619H124.979ZM173.996 20.7928L232.85 5.66852L128.742 65.9276L173.996 20.7928ZM126.813 64.9272L138.007 32.1777L148.63 29.6531L126.813 64.9272ZM148.773 28.8909L138.007 31.487L127.099 5.83524L148.773 28.8909ZM126.193 34.4166V5.50179L137.269 31.6538L126.193 34.4166ZM127.265 65.4989L149.583 29.3196L171.995 21.0786L127.265 65.4989ZM126.217 35.1311L137.197 32.3683L126.217 64.5462V35.1311ZM172.067 20.2927L149.44 28.6527L127.813 5.6447L172.067 20.2927ZM233.135 4.23945L173.781 19.5305L127.885 4.23945H233.135ZM120.287 69.5003V3.09619H5.24652L120.287 69.5003ZM12.4157 5.66852L71.1743 20.7928L116.642 65.9276L12.4157 5.66852ZM107.306 32.1777L118.5 64.9272L96.6355 29.6531L107.306 32.1777ZM107.306 31.487L96.5402 28.8909L118.167 5.83524L107.306 31.487ZM119.048 5.50179V34.4166L107.973 31.6538L119.048 5.50179ZM95.6589 29.3196L117.976 65.4512L73.2702 21.0786L95.6589 29.3196ZM108.044 32.3683L119.024 35.1311V64.5462L108.044 32.3683ZM95.8257 28.7003L73.1988 20.3403L117.452 5.6447L95.8257 28.7003ZM71.5792 19.5781L12.0346 4.28708H117.286L71.5792 19.5781Z" fill="white" fill-opacity="0.08"/>
</svg>
