<svg width="115" height="32" viewBox="0 0 115 32" fill="none" xmlns="http://www.w3.org/2000/svg">
<g id="Yandex_Logo" clip-path="url(#clip0_283_6041)">
<path id="Name" d="M109.555 27.8644C111.809 27.8644 113.406 27.4719 114.596 26.6267V22.7927C113.375 23.6078 111.903 24.121 109.837 24.121C106.361 24.121 104.921 21.5248 104.921 17.4191C104.921 13.1021 106.675 10.8984 109.868 10.8984C111.747 10.8984 113.594 11.5323 114.565 12.1361V8.15118C113.531 7.60778 111.747 7.21533 109.305 7.21533C103.074 7.21533 99.8488 11.5323 99.8488 17.5701C99.8802 24.1814 103.043 27.8644 109.555 27.8644ZM79.0901 26.1134V22.2795C77.5872 23.2757 75.0197 24.1512 72.6714 24.1512C69.1021 24.1512 67.7557 22.521 67.5365 19.2002H79.3092V16.7248C79.3092 9.81156 76.1469 7.21533 71.2938 7.21533C65.3448 7.21533 62.5269 11.5927 62.5269 17.6002C62.5269 24.5134 66.065 27.8644 72.2644 27.8644C75.3641 27.8644 77.6498 27.0493 79.0901 26.1134ZM34.4102 7.5776V15.4267H27.8976V7.5776H23.0132V27.4719H27.8976V19.17H34.4102V27.4719H39.2946V7.5776H34.4102ZM61.3058 23.7285H59.1454V7.5776H44.9304V9.26816C44.9304 14.1285 44.6173 20.4078 42.8953 23.7285H41.3298V32.0002H45.8384V27.4719H56.7658V32.0002H61.2745V23.7285H61.3058ZM94.6513 27.4719H100.193L92.3657 16.755L99.254 7.5776H94.3382L87.4499 16.755V7.5776H82.5655V27.4719H87.4499V17.6908L94.6513 27.4719ZM71.1685 10.8984C73.5794 10.8984 74.3309 12.8304 74.3309 15.3361V15.7285H67.5365C67.6618 12.5587 68.8516 10.8984 71.1685 10.8984ZM54.2609 23.7285H47.3727C48.719 20.7399 49.0947 15.3059 49.0947 11.8644V11.2606H54.2609V23.7285Z" fill="black"/>
<path id="Glyph" d="M18.9428 27.4717H13.9644V3.71321H11.7414C7.67104 3.71321 5.54194 5.67547 5.54194 8.60377C5.54194 11.9245 7.01352 13.4641 10.0506 15.4264L12.5555 17.0566L5.35407 27.4717H0L6.48125 18.1736C2.75531 15.6075 0.657518 13.1019 0.657518 8.87547C0.657518 3.59245 4.47738 0 11.7101 0H18.9115V27.4717H18.9428Z" fill="#FC3F1D"/>
</g>
<defs>
<clipPath id="clip0_283_6041">
<rect width="114.909" height="32" fill="white"/>
</clipPath>
</defs>
</svg>
